{
.appVersion = "85";
DisplayStrings = (
G,
E,
F,
T
);
copyright = "Copyright 2011 The Montserrat Project Authors (https://github.com/JulietaUla/Montserrat) & Denjell";
customParameters = (
{
name = vendorID;
value = "ULA ";
},
{
name = panose;
value = (
0,
0,
8,
0,
0,
0,
0,
0,
0,
0
);
},
{
name = unicodeRanges;
value = (
0,
1,
2,
3,
9,
29,
32,
33
);
}
);
date = "2017-10-17 18:36:54 +0000";
designer = "Julieta Ulanovsky";
designerURL = "http://www.zkysky.com.ar/";
familyName = "EFTG LOGO Montserrat";
featurePrefixes = (
{
automatic = 1;
code = "languagesystem DFLT dflt;\012languagesystem latn dflt;\012languagesystem cyrl dflt;\012languagesystem latn NLD;\012languagesystem latn CAT;\012languagesystem latn ROM;\012languagesystem latn MOL;\012languagesystem latn KAZ;\012languagesystem latn TAT;\012languagesystem latn TRK;\012languagesystem latn CRT;\012languagesystem latn AZE;\012languagesystem cyrl BGR;\012languagesystem cyrl MKD;\012languagesystem cyrl SRB;\012";
name = Languagesystems;
}
);
features = (
{
automatic = 1;
code = "feature locl;\012feature frac;\012feature ordn;\012feature smcp;\012";
name = aalt;
},
{
automatic = 1;

glyphs = (
{
glyphname = A;
lastChange = "2018-09-25 17:15:10 +0000";
layers = (
{
layerId = "E232F0B7-B012-4077-9E12-ABC19F379844";
paths = (
{
closed = 1;
nodes = (
"776 0 LINE",
"463 700 LINE",
"303 700 LINE",
"-9 0 LINE",
"157 0 LINE",
"219 150 LINE",
"544 150 LINE",
"606 0 LINE"
);
},
{
closed = 1;
nodes = (
"382 541 LINE",
"493 273 LINE",
"271 273 LINE"
);
}
);
width = 766;
}
);
leftKerningGroup = A;
rightKerningGroup = A;
unicode = 0041;
},
{
glyphname = AE;
lastChange = "2018-09-25 17:15:10 +0000";
layers = (
{
layerId = "E232F0B7-B012-4077-9E12-ABC19F379844";
paths = (
{
closed = 1;
nodes = (
"653 292 LINE",
"979 292 LINE",
"979 418 LINE",
"653 418 LINE",
"653 570 LINE",
"1021 570 LINE",
"1021 700 LINE",
"386 700 LINE",
"-9 0 LINE",
"157 0 LINE",
"239 150 LINE",
"492 150 LINE",
"492 0 LINE",
"1034 0 LINE",
"1034 130 LINE",
"653 130 LINE"
);
},
{
closed = 1;
nodes = (
"469 570 LINE",
"492 570 LINE",
"492 273 LINE",
"306 273 LINE"
);
}
);
width = 1080;
}
);
leftKerningGroup = A;
rightKerningGroup = AE;
unicode = 00C6;
},
{
glyphname = B;
lastChange = "2018-09-25 17:15:10 +0000";
layers = (
{
layerId = "E232F0B7-B012-4077-9E12-ABC19F379844";
paths = (
{
closed = 1;
nodes = (
"626.333 379.333 OFFCURVE",
"649.167 400.333 OFFCURVE",
"665.5 427 CURVE SMOOTH",
"681.833 453.667 OFFCURVE",
"690 484 OFFCURVE",
"690 518 CURVE SMOOTH",
"690 574 OFFCURVE",
"667.167 618.333 OFFCURVE",
"621.5 651 CURVE SMOOTH",
"575.833 683.667 OFFCURVE",
"510.333 700 OFFCURVE",
"425 700 CURVE SMOOTH",
"83 700 LINE",
"83 0 LINE",
"445 0 LINE SMOOTH",
"536.333 0 OFFCURVE",
"605.833 16.5 OFFCURVE",
"653.5 49.5 CURVE SMOOTH",
"701.167 82.5 OFFCURVE",
"725 129.667 OFFCURVE",
"725 191 CURVE SMOOTH",
"725 234.333 OFFCURVE",
"713.667 270.833 OFFCURVE",
"691 300.5 CURVE SMOOTH",
"668.333 330.167 OFFCURVE",
"637 351.333 OFFCURVE",
"597 364 CURVE"
);
},
{
closed = 1;
nodes = (
"445 578 OFFCURVE",
"475.333 571.167 OFFCURVE",
"496 557.5 CURVE SMOOTH",
"516.667 543.833 OFFCURVE",
"527 523.333 OFFCURVE",
"527 496 CURVE SMOOTH",
"527 468.667 OFFCURVE",
"516.667 448 OFFCURVE",
"496 434 CURVE SMOOTH",
"475.333 420 OFFCURVE",
"445 413 OFFCURVE",
"405 413 CURVE SMOOTH",
"244 413 LINE",
"244 578 LINE",
"405 578 LINE SMOOTH"
);
},
{
closed = 1;
nodes = (
"244 122 LINE",
"244 295 LINE",
"433 295 LINE SMOOTH",
"519 295 OFFCURVE",
"562 266 OFFCURVE",
"562 208 CURVE SMOOTH",
"562 178.667 OFFCURVE",
"551.167 157 OFFCURVE",
"529.5 143 CURVE SMOOTH",
"507.833 129 OFFCURVE",
"475.667 122 OFFCURVE",
"433 122 CURVE SMOOTH"
);
}
);
width = 765;
}
);
leftKerningGroup = B;
rightKerningGroup = B;
unicode = 0042;
},
{
glyphname = C;
lastChange = "2018-09-25 17:15:10 +0000";
layers = (
{
layerId = "E232F0B7-B012-4077-9E12-ABC19F379844";
paths = (
{
closed = 1;
nodes = (
"478.667 -12 OFFCURVE",
"533.667 -1.333 OFFCURVE",
"583 20 CURVE SMOOTH",
"632.333 41.333 OFFCURVE",
"673.667 72.333 OFFCURVE",
"707 113 CURVE",
"603 209 LINE",
"555.667 153.667 OFFCURVE",
"497 126 OFFCURVE",
"427 126 CURVE SMOOTH",
"383.667 126 OFFCURVE",
"345 135.5 OFFCURVE",
"311 154.5 CURVE SMOOTH",
"277 173.5 OFFCURVE",
"250.5 200 OFFCURVE",
"231.5 234 CURVE SMOOTH",
"212.5 268 OFFCURVE",
"203 306.667 OFFCURVE",
"203 350 CURVE SMOOTH",
"203 393.333 OFFCURVE",
"212.5 432 OFFCURVE",
"231.5 466 CURVE SMOOTH",
"250.5 500 OFFCURVE",
"277 526.5 OFFCURVE",
"311 545.5 CURVE SMOOTH",
"345 564.5 OFFCURVE",
"383.667 574 OFFCURVE",
"427 574 CURVE SMOOTH",
"497 574 OFFCURVE",
"555.667 546.667 OFFCURVE",
"603 492 CURVE",
"707 588 LINE",
"673.667 628 OFFCURVE",
"632.5 658.667 OFFCURVE",
"583.5 680 CURVE SMOOTH",
"534.5 701.333 OFFCURVE",
"479.667 712 OFFCURVE",
"419 712 CURVE SMOOTH",
"347 712 OFFCURVE",
"282.167 696.5 OFFCURVE",
"224.5 665.5 CURVE SMOOTH",
"166.833 634.5 OFFCURVE",
"121.5 591.5 OFFCURVE",
"88.5 536.5 CURVE SMOOTH",
"55.5 481.5 OFFCURVE",
"39 419.333 OFFCURVE",
"39 350 CURVE SMOOTH",
"39 280.667 OFFCURVE",
"55.5 218.5 OFFCURVE",
"88.5 163.5 CURVE SMOOTH",
"121.5 108.5 OFFCURVE",
"166.833 65.5 OFFCURVE",
"224.5 34.5 CURVE SMOOTH",
"282.167 3.5 OFFCURVE",
"346.667 -12 OFFCURVE",
"418 -12 CURVE SMOOTH"
);
}
);
width = 733;
}
);
leftKerningGroup = C;
rightKerningGroup = C;
unicode = 0043;
},
{
glyphname = D;
lastChange = "2018-09-25 17:15:10 +0000";
layers = (
{
layerId = "E232F0B7-B012-4077-9E12-ABC19F379844";
paths = (
{
closed = 1;
nodes = (
"401 0 LINE SMOOTH",
"477 0 OFFCURVE",
"544.167 14.5 OFFCURVE",
"602.5 43.5 CURVE SMOOTH",
"660.833 72.5 OFFCURVE",
"706.167 113.333 OFFCURVE",
"738.5 166 CURVE SMOOTH",
"770.833 218.667 OFFCURVE",
"787 280 OFFCURVE",
"787 350 CURVE SMOOTH",
"787 420 OFFCURVE",
"770.833 481.333 OFFCURVE",
"738.5 534 CURVE SMOOTH",
"706.167 586.667 OFFCURVE",
"660.833 627.5 OFFCURVE",
"602.5 656.5 CURVE SMOOTH",
"544.167 685.5 OFFCURVE",
"477 700 OFFCURVE",
"401 700 CURVE SMOOTH",
"83 700 LINE",
"83 0 LINE"
);
},
{
closed = 1;
nodes = (
"245 567 LINE",
"393 567 LINE SMOOTH",
"463 567 OFFCURVE",
"518.833 547.5 OFFCURVE",
"560.5 508.5 CURVE SMOOTH",
"602.167 469.5 OFFCURVE",
"623 416.667 OFFCURVE",
"623 350 CURVE SMOOTH",
"623 283.333 OFFCURVE",
"602.167 230.5 OFFCURVE",
"560.5 191.5 CURVE SMOOTH",
"518.833 152.5 OFFCURVE",
"463 133 OFFCURVE",
"393 133 CURVE SMOOTH",
"245 133 LINE"
);
}
);
width = 826;
}
);
leftKerningGroup = B;
rightKerningGroup = D;
unicode = 0044;
},
{
glyphname = E;
lastChange = "2018-09-25 20:34:38 +0000";
layers = (
{
layerId = "E232F0B7-B012-4077-9E12-ABC19F379844";
paths = (
{
closed = 1;
nodes = (
"83 700 LINE",
"612 700 LINE",
"612 570 LINE",
"244 570 LINE",
"244 418 LINE",
"569 418 LINE",
"569 292 LINE",
"244 292 LINE",
"244 130 LINE",
"625 130 LINE",
"625 0 LINE",
"83 0 LINE"
);
},
{
closed = 1;
nodes = (
"147 346 LINE",
"137 313 LINE",
"165 333 LINE",
"193 313 LINE",
"182 346 LINE",
"210 366 LINE",
"176 366 LINE",
"165 399 LINE",
"154 366 LINE",
"119 366 LINE"
);
}
);
width = 671;
}
);
leftKerningGroup = B;
rightKerningGroup = AE;
unicode = 0045;
},
{
glyphname = F;
lastChange = "2018-09-25 20:37:18 +0000";
layers = (
{
layerId = "E232F0B7-B012-4077-9E12-ABC19F379844";
paths = (
{
closed = 1;
nodes = (
"83 700 LINE",
"612 700 LINE",
"612 570 LINE",
"245 570 LINE",
"245 385 LINE",
"569 385 LINE",
"569 255 LINE",
"245 255 LINE",
"245 0 LINE",
"83 0 LINE"
);
},
{
closed = 1;
nodes = (
"153 610 LINE",
"142 577 LINE",
"171 598 LINE",
"199 577 LINE",
"188 610 LINE",
"216 631 LINE",
"181 631 LINE",
"171 664 LINE",
"160 631 LINE",
"125 631 LINE"
);
}
);
width = 639;
}
);
leftKerningGroup = B;
rightKerningGroup = F;
unicode = 0046;
},
{
glyphname = G;
lastChange = "2018-09-25 20:27:39 +0000";
layers = (
{
layerId = "E232F0B7-B012-4077-9E12-ABC19F379844";
paths = (
{
closed = 1;
nodes = (
"-48 437 OFFCURVE",
"62 638 OFFCURVE",
"252 695 CURVE SMOOTH",
"443 752 OFFCURVE",
"644 642 OFFCURVE",
"700 452 CURVE",
"570 413 LINE",
"535 532 OFFCURVE",
"410 600 OFFCURVE",
"291 564 CURVE SMOOTH",
"172 530 OFFCURVE",
"104 404 OFFCURVE",
"139 285 CURVE SMOOTH",
"174 166 OFFCURVE",
"299 98 OFFCURVE",
"418 134 CURVE SMOOTH",
"457 145 OFFCURVE",
"502 168 OFFCURVE",
"530 206 CURVE",
"531 207 OFFCURVE",
"533 208 OFFCURVE",
"534 210 CURVE",
"431 329 LINE",
"870 224 LINE",
"711 158 LINE",
"724 -13 LINE",
"622 105 LINE",
"579 56 OFFCURVE",
"515 20 OFFCURVE",
"457 3 CURVE SMOOTH",
"266 -53 OFFCURVE",
"65 56 OFFCURVE",
"9 246 CURVE SMOOTH"
);
},
{
closed = 1;
nodes = (
"93 500 LINE",
"83 467 LINE",
"111 487 LINE",
"139 467 LINE",
"129 500 LINE",
"157 521 LINE",
"122 521 LINE",
"111 554 LINE",
"100 521 LINE",
"65 521 LINE"
);
},
{
closed = 1;
nodes = (
"616 191 LINE",
"606 157 LINE",
"634 178 LINE",
"662 157 LINE",
"651 191 LINE",
"680 211 LINE",
"644 211 LINE",
"634 244 LINE",
"623 211 LINE",
"587 211 LINE"
);
}
);
width = 771;
}
);
leftKerningGroup = C;
rightKerningGroup = G;
unicode = 0047;
},
{
glyphname = H;
lastChange = "2018-09-25 17:15:10 +0000";
layers = (
{
layerId = "E232F0B7-B012-4077-9E12-ABC19F379844";
paths = (
{
closed = 1;
nodes = (
"563 424 LINE",
"245 424 LINE",
"245 700 LINE",
"83 700 LINE",
"83 0 LINE",
"245 0 LINE",
"245 287 LINE",
"563 287 LINE",
"563 0 LINE",
"725 0 LINE",
"725 700 LINE",
"563 700 LINE"
);
}
);
width = 808;
}
);
leftKerningGroup = B;
rightKerningGroup = H;
unicode = 0048;
},
{
glyphname = I;
lastChange = "2018-09-25 17:15:10 +0000";
layers = (
{
layerId = "E232F0B7-B012-4077-9E12-ABC19F379844";
paths = (
{
closed = 1;
nodes = (
"245 0 LINE",
"245 700 LINE",
"83 700 LINE",
"83 0 LINE"
);
}
);
width = 328;
}
);
leftKerningGroup = B;
rightKerningGroup = H;
unicode = 0049;
},
{
glyphname = IJ;
lastChange = "2018-09-25 17:15:10 +0000";
layers = (
{
layerId = "E232F0B7-B012-4077-9E12-ABC19F379844";
paths = (
{
closed = 1;
nodes = (
"391.667 -12 OFFCURVE",
"448 0.5 OFFCURVE",
"496 25.5 CURVE SMOOTH",
"544 50.5 OFFCURVE",
"581.167 87.5 OFFCURVE",
"607.5 136.5 CURVE SMOOTH",
"633.833 185.5 OFFCURVE",
"647 245 OFFCURVE",
"647 315 CURVE SMOOTH",
"647 700 LINE",
"485 700 LINE",
"485 307 LINE SMOOTH",
"485 185 OFFCURVE",
"431.333 124 OFFCURVE",
"324 124 CURVE SMOOTH",
"290 124 OFFCURVE",
"255.5 129.333 OFFCURVE",
"220.5 140 CURVE SMOOTH",
"185.5 150.667 OFFCURVE",
"152.667 166.333 OFFCURVE",
"122 187 CURVE",
"61 65 LINE",
"95.667 41 OFFCURVE",
"135.833 22.167 OFFCURVE",
"181.5 8.5 CURVE SMOOTH",
"227.167 -5.167 OFFCURVE",
"275.667 -12 OFFCURVE",
"327 -12 CURVE SMOOTH"
);
},
{
closed = 1;
nodes = (
"239 322 LINE",
"239 700 LINE",
"77 700 LINE",
"77 322 LINE"
);
}
);
width = 724;
}
);
leftKerningGroup = B;
rightKerningGroup = IJ;
unicode = 0132;
},
{
glyphname = J;
lastChange = "2018-09-25 17:15:10 +0000";
layers = (
{
layerId = "E232F0B7-B012-4077-9E12-ABC19F379844";
paths = (
{
closed = 1;
nodes = (
"294.667 -12 OFFCURVE",
"357.333 9.5 OFFCURVE",
"400 52.5 CURVE SMOOTH",
"442.667 95.5 OFFCURVE",
"464 160 OFFCURVE",
"464 246 CURVE SMOOTH",
"464 700 LINE",
"57 700 LINE",
"57 570 LINE",
"303 570 LINE",
"303 237 LINE SMOOTH",
"303 159.667 OFFCURVE",
"270 121 OFFCURVE",
"204 121 CURVE SMOOTH",
"155.333 121 OFFCURVE",
"112 146.667 OFFCURVE",
"74 198 CURVE",
"-16 90 LINE",
"9.333 57.333 OFFCURVE",
"41.833 32.167 OFFCURVE",
"81.5 14.5 CURVE SMOOTH",
"121.167 -3.167 OFFCURVE",
"164.667 -12 OFFCURVE",
"212 -12 CURVE SMOOTH"
);
}
);
width = 541;
}
);
leftKerningGroup = J;
rightKerningGroup = IJ;
unicode = 004A;
},
{
glyphname = K;
lastChange = "2018-09-25 17:15:10 +0000";
layers = (
{
layerId = "E232F0B7-B012-4077-9E12-ABC19F379844";
paths = (
{
closed = 1;
nodes = (
"751 0 LINE",
"444 388 LINE",
"734 700 LINE",
"554 700 LINE",
"244 373 LINE",
"244 700 LINE",
"83 700 LINE",
"83 0 LINE",
"244 0 LINE",
"244 177 LINE",
"338 275 LINE",
"562 0 LINE"
);
}
);
width = 740;
}
);
leftKerningGroup = B;
rightKerningGroup = K;
unicode = 004B;
},
{
glyphname = L;
lastChange = "2018-09-25 17:15:10 +0000";
layers = (
{
layerId = "E232F0B7-B012-4077-9E12-ABC19F379844";
paths = (
{
closed = 1;
nodes = (
"596 0 LINE",
"596 132 LINE",
"245 132 LINE",
"245 700 LINE",
"83 700 LINE",
"83 0 LINE"
);
}
);
width = 604;
}
);
leftKerningGroup = B;
rightKerningGroup = L;
unicode = 004C;
},
{
glyphname = M;
lastChange = "2018-09-25 17:15:10 +0000";
layers = (
{
layerId = "E232F0B7-B012-4077-9E12-ABC19F379844";
paths = (
{
closed = 1;
nodes = (
"870 700 LINE",
"737 700 LINE",
"479 265 LINE",
"217 700 LINE",
"83 700 LINE",
"83 0 LINE",
"235 0 LINE",
"235 411 LINE",
"440 74 LINE",
"513 74 LINE",
"719 420 LINE",
"720 0 LINE",
"872 0 LINE"
);
}
);
width = 955;
}
);
leftKerningGroup = B;
rightKerningGroup = H;
unicode = 004D;
},
{
glyphname = N;
lastChange = "2018-09-25 17:15:10 +0000";
layers = (
{
layerId = "E232F0B7-B012-4077-9E12-ABC19F379844";
paths = (
{
closed = 1;
nodes = (
"565 275 LINE",
"217 700 LINE",
"83 700 LINE",
"83 0 LINE",
"243 0 LINE",
"243 425 LINE",
"592 0 LINE",
"725 0 LINE",
"725 700 LINE",
"565 700 LINE"
);
}
);
width = 808;
}
);
leftKerningGroup = B;
rightKerningGroup = H;
unicode = 004E;
},
{
glyphname = Eng;
lastChange = "2018-09-25 17:15:10 +0000";
layers = (
{
layerId = "E232F0B7-B012-4077-9E12-ABC19F379844";
paths = (
{
closed = 1;
nodes = (
"565 275 LINE",
"217 700 LINE",
"83 700 LINE",
"83 0 LINE",
"243 0 LINE",
"243 425 LINE",
"565 33 LINE",
"561 -35 OFFCURVE",
"528.667 -69 OFFCURVE",
"468 -69 CURVE SMOOTH",
"428 -69 OFFCURVE",
"393.667 -53.667 OFFCURVE",
"365 -23 CURVE",
"289 -136 LINE",
"313 -158 OFFCURVE",
"341 -174.5 OFFCURVE",
"373 -185.5 CURVE SMOOTH",
"405 -196.5 OFFCURVE",
"439.333 -202 OFFCURVE",
"476 -202 CURVE SMOOTH",
"558.667 -202 OFFCURVE",
"620.833 -179.667 OFFCURVE",
"662.5 -135 CURVE SMOOTH",
"704.167 -90.333 OFFCURVE",
"725 -21.667 OFFCURVE",
"725 71 CURVE SMOOTH",
"725 700 LINE",
"565 700 LINE"
);
}
);
width = 808;
}
);
leftKerningGroup = B;
rightKerningGroup = H;
unicode = 014A;
},
{
glyphname = O;
lastChange = "2018-09-25 17:15:10 +0000";
layers = (
{
layerId = "E232F0B7-B012-4077-9E12-ABC19F379844";
paths = (
{
closed = 1;
nodes = (
"494.667 -12 OFFCURVE",
"560 3.667 OFFCURVE",
"618 35 CURVE SMOOTH",
"676 66.333 OFFCURVE",
"721.667 109.5 OFFCURVE",
"755 164.5 CURVE SMOOTH",
"788.333 219.5 OFFCURVE",
"805 281.333 OFFCURVE",
"805 350 CURVE SMOOTH",
"805 418.667 OFFCURVE",
"788.333 480.5 OFFCURVE",
"755 535.5 CURVE SMOOTH",
"721.667 590.5 OFFCURVE",
"676 633.667 OFFCURVE",
"618 665 CURVE SMOOTH",
"560 696.333 OFFCURVE",
"494.667 712 OFFCURVE",
"422 712 CURVE SMOOTH",
"349.333 712 OFFCURVE",
"283.833 696.333 OFFCURVE",
"225.5 665 CURVE SMOOTH",
"167.167 633.667 OFFCURVE",
"121.5 590.5 OFFCURVE",
"88.5 535.5 CURVE SMOOTH",
"55.5 480.5 OFFCURVE",
"39 418.667 OFFCURVE",
"39 350 CURVE SMOOTH",
"39 281.333 OFFCURVE",
"55.5 219.5 OFFCURVE",
"88.5 164.5 CURVE SMOOTH",
"121.5 109.5 OFFCURVE",
"167.167 66.333 OFFCURVE",
"225.5 35 CURVE SMOOTH",
"283.833 3.667 OFFCURVE",
"349.333 -12 OFFCURVE",
"422 -12 CURVE SMOOTH"
);
},
{
closed = 1;
nodes = (
"380.667 126 OFFCURVE",
"343.333 135.5 OFFCURVE",
"310 154.5 CURVE SMOOTH",
"276.667 173.5 OFFCURVE",
"250.5 200 OFFCURVE",
"231.5 234 CURVE SMOOTH",
"212.5 268 OFFCURVE",
"203 306.667 OFFCURVE",
"203 350 CURVE SMOOTH",
"203 393.333 OFFCURVE",
"212.5 432 OFFCURVE",
"231.5 466 CURVE SMOOTH",
"250.5 500 OFFCURVE",
"276.667 526.5 OFFCURVE",
"310 545.5 CURVE SMOOTH",
"343.333 564.5 OFFCURVE",
"380.667 574 OFFCURVE",
"422 574 CURVE SMOOTH",
"463.333 574 OFFCURVE",
"500.667 564.5 OFFCURVE",
"534 545.5 CURVE SMOOTH",
"567.333 526.5 OFFCURVE",
"593.5 500 OFFCURVE",
"612.5 466 CURVE SMOOTH",
"631.5 432 OFFCURVE",
"641 393.333 OFFCURVE",
"641 350 CURVE SMOOTH",
"641 306.667 OFFCURVE",
"631.5 268 OFFCURVE",
"612.5 234 CURVE SMOOTH",
"593.5 200 OFFCURVE",
"567.333 173.5 OFFCURVE",
"534 154.5 CURVE SMOOTH",
"500.667 135.5 OFFCURVE",
"463.333 126 OFFCURVE",
"422 126 CURVE SMOOTH"
);
}
);
width = 844;
}
);
leftKerningGroup = C;
rightKerningGroup = D;
unicode = 004F;
},
{
glyphname = Ohorn;
lastChange = "2018-09-25 17:15:10 +0000";
layers = (
{
layerId = "E232F0B7-B012-4077-9E12-ABC19F379844";
paths = (
{
closed = 1;
nodes = (
"722.333 624 OFFCURVE",
"749.667 641.333 OFFCURVE",
"769 666 CURVE SMOOTH",
"788.333 690.667 OFFCURVE",
"798 721.333 OFFCURVE",
"798 758 CURVE SMOOTH",
"798 794.667 OFFCURVE",
"787.333 828 OFFCURVE",
"766 858 CURVE",
"674 824 LINE",
"687.333 804.667 OFFCURVE",
"694 784.667 OFFCURVE",
"694 764 CURVE SMOOTH",
"694 742.667 OFFCURVE",
"686.833 726.333 OFFCURVE",
"672.5 715 CURVE SMOOTH",
"658.167 703.667 OFFCURVE",
"638 698 OFFCURVE",
"612 698 CURVE SMOOTH",
"598 698 OFFCURVE",
"573.667 700 OFFCURVE",
"539 704 CURVE SMOOTH",
"495 709.333 OFFCURVE",
"458.333 712 OFFCURVE",
"429 712 CURVE SMOOTH",
"354.333 712 OFFCURVE",
"287.333 696.333 OFFCURVE",
"228 665 CURVE SMOOTH",
"168.667 633.667 OFFCURVE",
"122.333 590.5 OFFCURVE",
"89 535.5 CURVE SMOOTH",
"55.667 480.5 OFFCURVE",
"39 418.667 OFFCURVE",
"39 350 CURVE SMOOTH",
"39 281.333 OFFCURVE",
"55.5 219.5 OFFCURVE",
"88.5 164.5 CURVE SMOOTH",
"121.5 109.5 OFFCURVE",
"167.167 66.333 OFFCURVE",
"225.5 35 CURVE SMOOTH",
"283.833 3.667 OFFCURVE",
"349.333 -12 OFFCURVE",
"422 -12 CURVE SMOOTH",
"494.667 -12 OFFCURVE",
"560 3.667 OFFCURVE",
"618 35 CURVE SMOOTH",
"676 66.333 OFFCURVE",
"721.667 109.5 OFFCURVE",
"755 164.5 CURVE SMOOTH",
"788.333 219.5 OFFCURVE",
"805 281.333 OFFCURVE",
"805 350 CURVE SMOOTH",
"805 403.333 OFFCURVE",
"794.5 452.833 OFFCURVE",
"773.5 498.5 CURVE SMOOTH",
"752.5 544.167 OFFCURVE",
"723.667 582.667 OFFCURVE",
"687 614 CURVE"
);
},
{
closed = 1;
nodes = (
"380.667 126 OFFCURVE",
"343.333 135.5 OFFCURVE",
"310 154.5 CURVE SMOOTH",
"276.667 173.5 OFFCURVE",
"250.5 200 OFFCURVE",
"231.5 234 CURVE SMOOTH",
"212.5 268 OFFCURVE",
"203 306.667 OFFCURVE",
"203 350 CURVE SMOOTH",
"203 393.333 OFFCURVE",
"212.5 432 OFFCURVE",
"231.5 466 CURVE SMOOTH",
"250.5 500 OFFCURVE",
"276.667 526.5 OFFCURVE",
"310 545.5 CURVE SMOOTH",
"343.333 564.5 OFFCURVE",
"380.667 574 OFFCURVE",
"422 574 CURVE SMOOTH",
"463.333 574 OFFCURVE",
"500.667 564.5 OFFCURVE",
"534 545.5 CURVE SMOOTH",
"567.333 526.5 OFFCURVE",
"593.5 500 OFFCURVE",
"612.5 466 CURVE SMOOTH",
"631.5 432 OFFCURVE",
"641 393.333 OFFCURVE",
"641 350 CURVE SMOOTH",
"641 306.667 OFFCURVE",
"631.5 268 OFFCURVE",
"612.5 234 CURVE SMOOTH",
"593.5 200 OFFCURVE",
"567.333 173.5 OFFCURVE",
"534 154.5 CURVE SMOOTH",
"500.667 135.5 OFFCURVE",
"463.333 126 OFFCURVE",
"422 126 CURVE SMOOTH"
);
}
);
width = 844;
}
);
leftKerningGroup = C;
rightKerningGroup = D;
unicode = 01A0;
},
{
glyphname = Oogonek;
lastChange = "2018-09-25 17:15:10 +0000";
layers = (
{
layerId = "E232F0B7-B012-4077-9E12-ABC19F379844";
paths = (
{
closed = 1;
nodes = (
"592 20.667 OFFCURVE",
"636.833 44 OFFCURVE",
"676.5 76 CURVE SMOOTH",
"716.167 108 OFFCURVE",
"747.5 147.5 OFFCURVE",
"770.5 194.5 CURVE SMOOTH",
"793.5 241.5 OFFCURVE",
"805 293.333 OFFCURVE",
"805 350 CURVE SMOOTH",
"805 418.667 OFFCURVE",
"788.333 480.5 OFFCURVE",
"755 535.5 CURVE SMOOTH",
"721.667 590.5 OFFCURVE",
"676 633.667 OFFCURVE",
"618 665 CURVE SMOOTH",
"560 696.333 OFFCURVE",
"494.667 712 OFFCURVE",
"422 712 CURVE SMOOTH",
"349.333 712 OFFCURVE",
"284 696.333 OFFCURVE",
"226 665 CURVE SMOOTH",
"168 633.667 OFFCURVE",
"122.333 590.5 OFFCURVE",
"89 535.5 CURVE SMOOTH",
"55.667 480.5 OFFCURVE",
"39 418.667 OFFCURVE",
"39 350 CURVE SMOOTH",
"39 287.333 OFFCURVE",
"52.833 230.333 OFFCURVE",
"80.5 179 CURVE SMOOTH",
"108.167 127.667 OFFCURVE",
"146.667 85.667 OFFCURVE",
"196 53 CURVE SMOOTH",
"245.333 20.333 OFFCURVE",
"301.667 0 OFFCURVE",
"365 -8 CURVE",
"325 -40 OFFCURVE",
"305 -77.333 OFFCURVE",
"305 -120 CURVE SMOOTH",
"305 -154 OFFCURVE",
"317.167 -181.167 OFFCURVE",
"341.5 -201.5 CURVE SMOOTH",
"365.833 -221.833 OFFCURVE",
"399.667 -232 OFFCURVE",
"443 -232 CURVE SMOOTH",
"461 -232 OFFCURVE",
"479.167 -229.833 OFFCURVE",
"497.5 -225.5 CURVE SMOOTH",
"515.833 -221.167 OFFCURVE",
"531.333 -215.667 OFFCURVE",
"544 -209 CURVE",
"521 -138 LINE",
"503 -148 OFFCURVE",
"483 -153 OFFCURVE",
"461 -153 CURVE SMOOTH",
"443 -153 OFFCURVE",
"428.833 -148.833 OFFCURVE",
"418.5 -140.5 CURVE SMOOTH",
"408.167 -132.167 OFFCURVE",
"403 -121 OFFCURVE",
"403 -107 CURVE SMOOTH",
"403 -85 OFFCURVE",
"414.667 -64.167 OFFCURVE",
"438 -44.5 CURVE SMOOTH",
"461.333 -24.833 OFFCURVE",
"496 -8 OFFCURVE",
"542 6 CURVE SMOOTH"
);
},
{
closed = 1;
nodes = (
"203 393.333 OFFCURVE",
"212.5 432 OFFCURVE",
"231.5 466 CURVE SMOOTH",
"250.5 500 OFFCURVE",
"276.667 526.5 OFFCURVE",
"310 545.5 CURVE SMOOTH",
"343.333 564.5 OFFCURVE",
"380.667 574 OFFCURVE",
"422 574 CURVE SMOOTH",
"463.333 574 OFFCURVE",
"500.667 564.5 OFFCURVE",
"534 545.5 CURVE SMOOTH",
"567.333 526.5 OFFCURVE",
"593.5 500 OFFCURVE",
"612.5 466 CURVE SMOOTH",
"631.5 432 OFFCURVE",
"641 393.333 OFFCURVE",
"641 350 CURVE SMOOTH",
"641 306.667 OFFCURVE",
"631.5 268 OFFCURVE",
"612.5 234 CURVE SMOOTH",
"593.5 200 OFFCURVE",
"567.333 173.5 OFFCURVE",
"534 154.5 CURVE SMOOTH",
"500.667 135.5 OFFCURVE",
"463.333 126 OFFCURVE",
"422 126 CURVE SMOOTH",
"380.667 126 OFFCURVE",
"343.333 135.5 OFFCURVE",
"310 154.5 CURVE SMOOTH",
"276.667 173.5 OFFCURVE",
"250.5 200 OFFCURVE",
"231.5 234 CURVE SMOOTH",
"212.5 268 OFFCURVE",
"203 306.667 OFFCURVE",
"203 350 CURVE SMOOTH"
);
}
);
width = 844;
}
);
leftKerningGroup = C;
note = uni01EA;
rightKerningGroup = D;
unicode = 01EA;
},
{
glyphname = OE;
lastChange = "2018-09-25 17:15:10 +0000";
layers = (
{
layerId = "E232F0B7-B012-4077-9E12-ABC19F379844";
paths = (
{
closed = 1;
nodes = (
"709 292 LINE",
"1034 292 LINE",
"1034 418 LINE",
"709 418 LINE",
"709 570 LINE",
"1077 570 LINE",
"1077 700 LINE",
"425 700 LINE SMOOTH",
"349 700 OFFCURVE",
"281.833 685.5 OFFCURVE",
"223.5 656.5 CURVE SMOOTH",
"165.167 627.5 OFFCURVE",
"119.833 586.5 OFFCURVE",
"87.5 533.5 CURVE SMOOTH",
"55.167 480.5 OFFCURVE",
"39 419 OFFCURVE",
"39 349 CURVE SMOOTH",
"39 279.667 OFFCURVE",
"55.167 218.667 OFFCURVE",
"87.5 166 CURVE SMOOTH",
"119.833 113.333 OFFCURVE",
"165.167 72.5 OFFCURVE",
"223.5 43.5 CURVE SMOOTH",
"281.833 14.5 OFFCURVE",
"349 0 OFFCURVE",
"425 0 CURVE SMOOTH",
"1090 0 LINE",
"1090 130 LINE",
"709 130 LINE"
);
},
{
closed = 1;
nodes = (
"363 133 OFFCURVE",
"307.167 152.5 OFFCURVE",
"265.5 191.5 CURVE SMOOTH",
"223.833 230.5 OFFCURVE",
"203 283 OFFCURVE",
"203 349 CURVE SMOOTH",
"203 416.333 OFFCURVE",
"223.833 469.5 OFFCURVE",
"265.5 508.5 CURVE SMOOTH",
"307.167 547.5 OFFCURVE",
"363 567 OFFCURVE",
"433 567 CURVE SMOOTH",
"548 567 LINE",
"548 133 LINE",
"433 133 LINE SMOOTH"
);
}
);
width = 1136;
}
);
leftKerningGroup = C;
rightKerningGroup = AE;
unicode = 0152;
},
{
glyphname = P;
lastChange = "2018-09-25 17:15:10 +0000";
layers = (
{
layerId = "E232F0B7-B012-4077-9E12-ABC19F379844";
paths = (
{
closed = 1;
nodes = (
"83 700 LINE",
"83 0 LINE",
"245 0 LINE",
"245 193 LINE",
"386 193 LINE SMOOTH",
"448 193 OFFCURVE",
"501.833 203.167 OFFCURVE",
"547.5 223.5 CURVE SMOOTH",
"593.167 243.833 OFFCURVE",
"628.333 273.167 OFFCURVE",
"653 311.5 CURVE SMOOTH",
"677.667 349.833 OFFCURVE",
"690 394.667 OFFCURVE",
"690 446 CURVE SMOOTH",
"690 498 OFFCURVE",
"677.667 543 OFFCURVE",
"653 581 CURVE SMOOTH",
"628.333 619 OFFCURVE",
"593.167 648.333 OFFCURVE",
"547.5 669 CURVE SMOOTH",
"501.833 689.667 OFFCURVE",
"448 700 OFFCURVE",
"386 700 CURVE SMOOTH"
);
},
{
closed = 1;
nodes = (
"245 325 LINE",
"245 568 LINE",
"377 568 LINE SMOOTH",
"425.667 568 OFFCURVE",
"462.667 557.5 OFFCURVE",
"488 536.5 CURVE SMOOTH",
"513.333 515.5 OFFCURVE",
"526 485.333 OFFCURVE",
"526 446 CURVE SMOOTH",
"526 407.333 OFFCURVE",
"513.333 377.5 OFFCURVE",
"488 356.5 CURVE SMOOTH",
"462.667 335.5 OFFCURVE",
"425.667 325 OFFCURVE",
"377 325 CURVE SMOOTH"
);
}
);
width = 732;
}
);
leftKerningGroup = B;
rightKerningGroup = P;
unicode = 0050;
},
{
glyphname = Thorn;
lastChange = "2018-09-25 17:15:10 +0000";
layers = (
{
layerId = "E232F0B7-B012-4077-9E12-ABC19F379844";
paths = (
{
closed = 1;
nodes = (
"245 623 LINE",
"245 700 LINE",
"83 700 LINE",
"83 0 LINE",
"245 0 LINE",
"245 115 LINE",
"386 115 LINE SMOOTH",
"448 115 OFFCURVE",
"501.833 125.333 OFFCURVE",
"547.5 146 CURVE SMOOTH",
"593.167 166.667 OFFCURVE",
"628.333 196 OFFCURVE",
"653 234 CURVE SMOOTH",
"677.667 272 OFFCURVE",
"690 317 OFFCURVE",
"690 369 CURVE SMOOTH",
"690 421 OFFCURVE",
"677.667 466 OFFCURVE",
"653 504 CURVE SMOOTH",
"628.333 542 OFFCURVE",
"593.167 571.333 OFFCURVE",
"547.5 592 CURVE SMOOTH",
"501.833 612.667 OFFCURVE",
"448 623 OFFCURVE",
"386 623 CURVE SMOOTH"
);
},
{
closed = 1;
nodes = (
"245 247 LINE",
"245 491 LINE",
"377 491 LINE SMOOTH",
"425.667 491 OFFCURVE",
"462.667 480.5 OFFCURVE",
"488 459.5 CURVE SMOOTH",
"513.333 438.5 OFFCURVE",
"526 408.333 OFFCURVE",
"526 369 CURVE SMOOTH",
"526 329.667 OFFCURVE",
"513.333 299.5 OFFCURVE",
"488 278.5 CURVE SMOOTH",
"462.667 257.5 OFFCURVE",
"425.667 247 OFFCURVE",
"377 247 CURVE SMOOTH"
);
}
);
width = 732;
}
);
leftKerningGroup = B;
rightKerningGroup = Thorn;
unicode = 00DE;
},
{
glyphname = Q;
lastChange = "2018-09-25 17:15:10 +0000";
layers = (
{
layerId = "E232F0B7-B012-4077-9E12-ABC19F379844";
paths = (
{
closed = 1;
nodes = (
"735.333 -23.667 OFFCURVE",
"697.333 -41 OFFCURVE",
"654 -41 CURVE SMOOTH",
"636 -41 OFFCURVE",
"619.167 -37.167 OFFCURVE",
"603.5 -29.5 CURVE SMOOTH",
"587.833 -21.833 OFFCURVE",
"571.667 -9.333 OFFCURVE",
"555 8 CURVE",
"630.333 32 OFFCURVE",
"690.833 74.667 OFFCURVE",
"736.5 136 CURVE SMOOTH",
"782.167 197.333 OFFCURVE",
"805 268.667 OFFCURVE",
"805 350 CURVE SMOOTH",
"805 418.667 OFFCURVE",
"788.333 480.5 OFFCURVE",
"755 535.5 CURVE SMOOTH",
"721.667 590.5 OFFCURVE",
"676 633.667 OFFCURVE",
"618 665 CURVE SMOOTH",
"560 696.333 OFFCURVE",
"494.667 712 OFFCURVE",
"422 712 CURVE SMOOTH",
"349.333 712 OFFCURVE",
"283.833 696.333 OFFCURVE",
"225.5 665 CURVE SMOOTH",
"167.167 633.667 OFFCURVE",
"121.5 590.5 OFFCURVE",
"88.5 535.5 CURVE SMOOTH",
"55.5 480.5 OFFCURVE",
"39 418.667 OFFCURVE",
"39 350 CURVE SMOOTH",
"39 287.333 OFFCURVE",
"52.833 230.167 OFFCURVE",
"80.5 178.5 CURVE SMOOTH",
"108.167 126.833 OFFCURVE",
"146.833 84.667 OFFCURVE",
"196.5 52 CURVE SMOOTH",
"246.167 19.333 OFFCURVE",
"302.667 -1 OFFCURVE",
"366 -9 CURVE",
"420 -65.667 OFFCURVE",
"468 -105.167 OFFCURVE",
"510 -127.5 CURVE SMOOTH",
"552 -149.833 OFFCURVE",
"599 -161 OFFCURVE",
"651 -161 CURVE SMOOTH",
"689.667 -161 OFFCURVE",
"725.167 -153.667 OFFCURVE",
"757.5 -139 CURVE SMOOTH",
"789.833 -124.333 OFFCURVE",
"817.333 -103 OFFCURVE",
"840 -75 CURVE",
"768 11 LINE"
);
},
{
closed = 1;
nodes = (
"203 393.333 OFFCURVE",
"212.5 432 OFFCURVE",
"231.5 466 CURVE SMOOTH",
"250.5 500 OFFCURVE",
"276.667 526.5 OFFCURVE",
"310 545.5 CURVE SMOOTH",
"343.333 564.5 OFFCURVE",
"380.667 574 OFFCURVE",
"422 574 CURVE SMOOTH",
"463.333 574 OFFCURVE",
"500.667 564.5 OFFCURVE",
"534 545.5 CURVE SMOOTH",
"567.333 526.5 OFFCURVE",
"593.5 500 OFFCURVE",
"612.5 466 CURVE SMOOTH",
"631.5 432 OFFCURVE",
"641 393.333 OFFCURVE",
"641 350 CURVE SMOOTH",
"641 306.667 OFFCURVE",
"631.5 268 OFFCURVE",
"612.5 234 CURVE SMOOTH",
"593.5 200 OFFCURVE",
"567.333 173.5 OFFCURVE",
"534 154.5 CURVE SMOOTH",
"500.667 135.5 OFFCURVE",
"463.333 126 OFFCURVE",
"422 126 CURVE SMOOTH",
"380.667 126 OFFCURVE",
"343.333 135.5 OFFCURVE",
"310 154.5 CURVE SMOOTH",
"276.667 173.5 OFFCURVE",
"250.5 200 OFFCURVE",
"231.5 234 CURVE SMOOTH",
"212.5 268 OFFCURVE",
"203 306.667 OFFCURVE",
"203 350 CURVE SMOOTH"
);
}
);
width = 844;
}
);
leftKerningGroup = C;
rightKerningGroup = D;
unicode = 0051;
},
{
glyphname = R;
lastChange = "2018-09-25 17:15:10 +0000";
layers = (
{
layerId = "E232F0B7-B012-4077-9E12-ABC19F379844";
paths = (
{
closed = 1;
nodes = (
"546 225 LINE",
"592 245 OFFCURVE",
"627.5 273.833 OFFCURVE",
"652.5 311.5 CURVE SMOOTH",
"677.5 349.167 OFFCURVE",
"690 394 OFFCURVE",
"690 446 CURVE SMOOTH",
"690 498 OFFCURVE",
"677.667 543 OFFCURVE",
"653 581 CURVE SMOOTH",
"628.333 619 OFFCURVE",
"593.167 648.333 OFFCURVE",
"547.5 669 CURVE SMOOTH",
"501.833 689.667 OFFCURVE",
"448 700 OFFCURVE",
"386 700 CURVE SMOOTH",
"83 700 LINE",
"83 0 LINE",
"245 0 LINE",
"245 195 LINE",
"386 195 LINE",
"394 195 LINE",
"529 0 LINE",
"703 0 LINE"
);
},
{
closed = 1;
nodes = (
"526 407.333 OFFCURVE",
"513.333 377.333 OFFCURVE",
"488 356 CURVE SMOOTH",
"462.667 334.667 OFFCURVE",
"425.667 324 OFFCURVE",
"377 324 CURVE SMOOTH",
"245 324 LINE",
"245 568 LINE",
"377 568 LINE SMOOTH",
"425.667 568 OFFCURVE",
"462.667 557.5 OFFCURVE",
"488 536.5 CURVE SMOOTH",
"513.333 515.5 OFFCURVE",
"526 485.333 OFFCURVE",
"526 446 CURVE SMOOTH"
);
}
);
width = 735;
}
);
leftKerningGroup = B;
rightKerningGroup = R;
unicode = 0052;
},
{
glyphname = S;
lastChange = "2018-09-25 17:15:10 +0000";
layers = (
{
layerId = "E232F0B7-B012-4077-9E12-ABC19F379844";
paths = (
{
closed = 1;
nodes = (
"377 -12 OFFCURVE",
"431.333 -2.333 OFFCURVE",
"476 17 CURVE SMOOTH",
"520.667 36.333 OFFCURVE",
"554.167 62.5 OFFCURVE",
"576.5 95.5 CURVE SMOOTH",
"598.833 128.5 OFFCURVE",
"610 165 OFFCURVE",
"610 205 CURVE SMOOTH",
"610 251.667 OFFCURVE",
"597.833 288.667 OFFCURVE",
"573.5 316 CURVE SMOOTH",
"549.167 343.333 OFFCURVE",
"520 363.333 OFFCURVE",
"486 376 CURVE SMOOTH",
"452 388.667 OFFCURVE",
"408.333 401.333 OFFCURVE",
"355 414 CURVE SMOOTH",
"303.667 425.333 OFFCURVE",
"265.5 436.833 OFFCURVE",
"240.5 448.5 CURVE SMOOTH",
"215.5 460.167 OFFCURVE",
"203 478 OFFCURVE",
"203 502 CURVE SMOOTH",
"203 526 OFFCURVE",
"213.833 545.333 OFFCURVE",
"235.5 560 CURVE SMOOTH",
"257.167 574.667 OFFCURVE",
"290.667 582 OFFCURVE",
"336 582 CURVE SMOOTH",
"400.667 582 OFFCURVE",
"465.333 563.667 OFFCURVE",
"530 527 CURVE",
"580 650 LINE",
"548 670 OFFCURVE",
"510.667 685.333 OFFCURVE",
"468 696 CURVE SMOOTH",
"425.333 706.667 OFFCURVE",
"381.667 712 OFFCURVE",
"337 712 CURVE SMOOTH",
"273 712 OFFCURVE",
"218.833 702.333 OFFCURVE",
"174.5 683 CURVE SMOOTH",
"130.167 663.667 OFFCURVE",
"97 637.5 OFFCURVE",
"75 604.5 CURVE SMOOTH",
"53 571.5 OFFCURVE",
"42 534.667 OFFCURVE",
"42 494 CURVE SMOOTH",
"42 447.333 OFFCURVE",
"54.167 410 OFFCURVE",
"78.5 382 CURVE SMOOTH",
"102.833 354 OFFCURVE",
"132 333.667 OFFCURVE",
"166 321 CURVE SMOOTH",
"200 308.333 OFFCURVE",
"243.667 295.667 OFFCURVE",
"297 283 CURVE SMOOTH",
"331.667 275 OFFCURVE",
"359.167 267.667 OFFCURVE",
"379.5 261 CURVE SMOOTH",
"399.833 254.333 OFFCURVE",
"416.5 245.5 OFFCURVE",
"429.5 234.5 CURVE SMOOTH",
"442.5 223.5 OFFCURVE",
"449 209.667 OFFCURVE",
"449 193 CURVE SMOOTH",
"449 170.333 OFFCURVE",
"438 152.167 OFFCURVE",
"416 138.5 CURVE SMOOTH",
"394 124.833 OFFCURVE",
"360 118 OFFCURVE",
"314 118 CURVE SMOOTH",
"272.667 118 OFFCURVE",
"231.333 124.667 OFFCURVE",
"190 138 CURVE SMOOTH",
"148.667 151.333 OFFCURVE",
"113 169 OFFCURVE",
"83 191 CURVE",
"28 69 LINE",
"59.333 45 OFFCURVE",
"100.833 25.5 OFFCURVE",
"152.5 10.5 CURVE SMOOTH",
"204.167 -4.5 OFFCURVE",
"257.667 -12 OFFCURVE",
"313 -12 CURVE SMOOTH"
);
}
);
width = 638;
}
);
leftKerningGroup = S;
rightKerningGroup = S;
unicode = 0053;
},
{
glyphname = Saltillo;
lastChange = "2018-09-25 17:15:10 +0000";
layers = (
{
layerId = "E232F0B7-B012-4077-9E12-ABC19F379844";
paths = (
{
closed = 1;
nodes = (
"208 297 LINE",
"228 700 LINE",
"68 700 LINE",
"68 297 LINE"
);
}
);
width = 297;
}
);
note = uniA78B;
unicode = A78B;
},
{
glyphname = Germandbls;
lastChange = "2018-09-25 17:15:10 +0000";
layers = (
{
layerId = "E232F0B7-B012-4077-9E12-ABC19F379844";
paths = (
{
closed = 1;
nodes = (
"670 548 LINE",
"670 646 LINE",
"639.333 667.333 OFFCURVE",
"601.333 683.833 OFFCURVE",
"556 695.5 CURVE SMOOTH",
"510.667 707.167 OFFCURVE",
"465.333 713 OFFCURVE",
"420 713 CURVE SMOOTH",
"348 713 OFFCURVE",
"286.167 700 OFFCURVE",
"234.5 674 CURVE SMOOTH",
"182.833 648 OFFCURVE",
"143.667 611 OFFCURVE",
"117 563 CURVE SMOOTH",
"90.333 515 OFFCURVE",
"77 458 OFFCURVE",
"77 392 CURVE SMOOTH",
"77 0 LINE",
"239 0 LINE",
"239 388 LINE SMOOTH",
"239 450.667 OFFCURVE",
"254.667 498.833 OFFCURVE",
"286 532.5 CURVE SMOOTH",
"317.333 566.167 OFFCURVE",
"362.667 583 OFFCURVE",
"422 583 CURVE SMOOTH",
"460 583 OFFCURVE",
"495.333 577.333 OFFCURVE",
"528 566 CURVE",
"356 367 LINE",
"384 297 LINE",
"404.667 304.333 OFFCURVE",
"429.333 308 OFFCURVE",
"458 308 CURVE SMOOTH",
"495.333 308 OFFCURVE",
"524.333 299.833 OFFCURVE",
"545 283.5 CURVE SMOOTH",
"565.667 267.167 OFFCURVE",
"576 243.667 OFFCURVE",
"576 213 CURVE SMOOTH",
"576 181.667 OFFCURVE",
"565.833 158 OFFCURVE",
"545.5 142 CURVE SMOOTH",
"525.167 126 OFFCURVE",
"495.667 118 OFFCURVE",
"457 118 CURVE SMOOTH",
"418.333 118 OFFCURVE",
"384.333 125.333 OFFCURVE",
"355 140 CURVE",
"331 12 LINE",
"372.333 -4 OFFCURVE",
"422.667 -12 OFFCURVE",
"482 -12 CURVE SMOOTH",
"530.667 -12 OFFCURVE",
"574.5 -3.333 OFFCURVE",
"613.5 14 CURVE SMOOTH",
"652.5 31.333 OFFCURVE",
"683.333 56.333 OFFCURVE",
"706 89 CURVE SMOOTH",
"728.667 121.667 OFFCURVE",
"740 160.667 OFFCURVE",
"740 206 CURVE SMOOTH",
"740 262 OFFCURVE",
"723.167 308.5 OFFCURVE",
"689.5 345.5 CURVE SMOOTH",
"655.833 382.5 OFFCURVE",
"611.667 406.667 OFFCURVE",
"557 418 CURVE"
);
}
);
width = 779;
}
);
leftKerningGroup = Germandbls;
note = uni1E9E;
rightKerningGroup = B;
unicode = 1E9E;
},
{
glyphname = Schwa;
lastChange = "2018-09-25 17:15:10 +0000";
layers = (
{
layerId = "E232F0B7-B012-4077-9E12-ABC19F379844";
paths = (
{
closed = 1;
nodes = (
"338 712 OFFCURVE",
"281.333 701.5 OFFCURVE",
"228 680.5 CURVE SMOOTH",
"174.667 659.5 OFFCURVE",
"131 631.667 OFFCURVE",
"97 597 CURVE",
"194 492 LINE",
"218.667 518 OFFCURVE",
"249.333 538.167 OFFCURVE",
"286 552.5 CURVE SMOOTH",
"322.667 566.833 OFFCURVE",
"359.667 574 OFFCURVE",
"397 574 CURVE SMOOTH",
"433.667 574 OFFCURVE",
"467.333 566.167 OFFCURVE",
"498 550.5 CURVE SMOOTH",
"528.667 534.833 OFFCURVE",
"554 513.167 OFFCURVE",
"574 485.5 CURVE SMOOTH",
"594 457.833 OFFCURVE",
"606.667 426.333 OFFCURVE",
"612 391 CURVE",
"39 391 LINE",
"39 357 LINE SMOOTH",
"39 285.667 OFFCURVE",
"54.833 222 OFFCURVE",
"86.5 166 CURVE SMOOTH",
"118.167 110 OFFCURVE",
"162.167 66.333 OFFCURVE",
"218.5 35 CURVE SMOOTH",
"274.833 3.667 OFFCURVE",
"338.333 -12 OFFCURVE",
"409 -12 CURVE SMOOTH",
"479 -12 OFFCURVE",
"542 3.5 OFFCURVE",
"598 34.5 CURVE SMOOTH",
"654 65.5 OFFCURVE",
"698 108.667 OFFCURVE",
"730 164 CURVE SMOOTH",
"762 219.333 OFFCURVE",
"778 281.667 OFFCURVE",
"778 351 CURVE SMOOTH",
"778 419.667 OFFCURVE",
"761.833 481.5 OFFCURVE",
"729.5 536.5 CURVE SMOOTH",
"697.167 591.5 OFFCURVE",
"652 634.5 OFFCURVE",
"594 665.5 CURVE SMOOTH",
"536 696.5 OFFCURVE",
"470.667 712 OFFCURVE",
"398 712 CURVE SMOOTH"
);
},
{
closed = 1;
nodes = (
"354.333 117 OFFCURVE",
"309.333 131.5 OFFCURVE",
"274 160.5 CURVE SMOOTH",
"238.667 189.5 OFFCURVE",
"216.333 229.667 OFFCURVE",
"207 281 CURVE",
"610 281 LINE",
"600.667 230.333 OFFCURVE",
"578.5 190.333 OFFCURVE",
"543.5 161 CURVE SMOOTH",
"508.5 131.667 OFFCURVE",
"463.667 117 OFFCURVE",
"409 117 CURVE SMOOTH"
);
}
);
width = 817;
}
);
leftKerningGroup = C;
note = uni018F;
rightKerningGroup = D;
unicode = 018F;
},
{
glyphname = T;
lastChange = "2018-09-25 20:37:07 +0000";
layers = (
{
layerId = "E232F0B7-B012-4077-9E12-ABC19F379844";
paths = (
{
closed = 1;
nodes = (
"5 699 LINE",
"614 699 LINE",
"614 567 LINE",
"390 567 LINE",
"390 0 LINE",
"229 0 LINE",
"229 567 LINE",
"5 567 LINE"
);
},
{
closed = 1;
nodes = (
"295 620 LINE",
"284 587 LINE",
"312 607 LINE",
"340 587 LINE",
"330 620 LINE",
"358 640 LINE",
"323 640 LINE",
"312 673 LINE",
"301 640 LINE",
"267 640 LINE"
);
}
);
width = 618;
}
);
leftKerningGroup = T;
rightKerningGroup = T;
unicode = 0054;
},
{
glyphname = U;
lastChange = "2018-09-25 17:15:10 +0000";
layers = (
{
layerId = "E232F0B7-B012-4077-9E12-ABC19F379844";
paths = (
{
closed = 1;
nodes = (
"494 -12 OFFCURVE",
"571.833 15.667 OFFCURVE",
"627.5 71 CURVE SMOOTH",
"683.167 126.333 OFFCURVE",
"711 205.333 OFFCURVE",
"711 308 CURVE SMOOTH",
"711 700 LINE",
"551 700 LINE",
"551 314 LINE SMOOTH",
"551 249.333 OFFCURVE",
"537.667 201.833 OFFCURVE",
"511 171.5 CURVE SMOOTH",
"484.333 141.167 OFFCURVE",
"445.667 126 OFFCURVE",
"395 126 CURVE SMOOTH",
"291 126 OFFCURVE",
"239 188.667 OFFCURVE",
"239 314 CURVE SMOOTH",
"239 700 LINE",
"77 700 LINE",
"77 308 LINE SMOOTH",
"77 205.333 OFFCURVE",
"104.833 126.333 OFFCURVE",
"160.5 71 CURVE SMOOTH",
"216.167 15.667 OFFCURVE",
"294 -12 OFFCURVE",
"394 -12 CURVE SMOOTH"
);
}
);
width = 788;
}
);
leftKerningGroup = U;
rightKerningGroup = IJ;
unicode = 0055;
},
{
glyphname = Uogonek;
lastChange = "2018-09-25 17:15:10 +0000";
layers = (
{
layerId = "E232F0B7-B012-4077-9E12-ABC19F379844";
paths = (
{
closed = 1;
nodes = (
"551 314 LINE SMOOTH",
"551 249.333 OFFCURVE",
"537.667 201.833 OFFCURVE",
"511 171.5 CURVE SMOOTH",
"484.333 141.167 OFFCURVE",
"445.667 126 OFFCURVE",
"395 126 CURVE SMOOTH",
"291 126 OFFCURVE",
"239 188.667 OFFCURVE",
"239 314 CURVE SMOOTH",
"239 700 LINE",
"77 700 LINE",
"77 308 LINE SMOOTH",
"77 214.667 OFFCURVE",
"100.333 140.667 OFFCURVE",
"147 86 CURVE SMOOTH",
"193.667 31.333 OFFCURVE",
"259.333 -0.333 OFFCURVE",
"344 -9 CURVE",
"304.667 -41.667 OFFCURVE",
"285 -78.667 OFFCURVE",
"285 -120 CURVE SMOOTH",
"285 -154 OFFCURVE",
"297.333 -181.167 OFFCURVE",
"322 -201.5 CURVE SMOOTH",
"346.667 -221.833 OFFCURVE",
"380.333 -232 OFFCURVE",
"423 -232 CURVE SMOOTH",
"441.667 -232 OFFCURVE",
"460 -229.833 OFFCURVE",
"478 -225.5 CURVE SMOOTH",
"496 -221.167 OFFCURVE",
"511.333 -215.667 OFFCURVE",
"524 -209 CURVE",
"501 -138 LINE",
"484.333 -148 OFFCURVE",
"464.333 -153 OFFCURVE",
"441 -153 CURVE SMOOTH",
"423 -153 OFFCURVE",
"409 -148.833 OFFCURVE",
"399 -140.5 CURVE SMOOTH",
"389 -132.167 OFFCURVE",
"384 -121 OFFCURVE",
"384 -107 CURVE SMOOTH",
"384 -87.667 OFFCURVE",
"394.333 -68.5 OFFCURVE",
"415 -49.5 CURVE SMOOTH",
"435.667 -30.5 OFFCURVE",
"472 -11.333 OFFCURVE",
"524 8 CURVE SMOOTH",
"583.333 30 OFFCURVE",
"629.333 65.667 OFFCURVE",
"662 115 CURVE SMOOTH",
"694.667 164.333 OFFCURVE",
"711 228.667 OFFCURVE",
"711 308 CURVE SMOOTH",
"711 700 LINE",
"551 700 LINE"
);
}
);
width = 788;
}
);
leftKerningGroup = U;
rightKerningGroup = IJ;
unicode = 0172;
},
{
glyphname = V;
lastChange = "2018-09-25 17:15:10 +0000";
layers = (
{
layerId = "E232F0B7-B012-4077-9E12-ABC19F379844";
paths = (
{
closed = 1;
nodes = (
"379 200 LINE",
"166 700 LINE",
"-9 700 LINE",
"293 0 LINE",
"453 0 LINE",
"756 700 LINE",
"595 700 LINE"
);
}
);
width = 746;
}
);
leftKerningGroup = V;
rightKerningGroup = V;
unicode = 0056;
},
{
glyphname = W;
lastChange = "2018-09-25 17:15:10 +0000";
layers = (
{
layerId = "E232F0B7-B012-4077-9E12-ABC19F379844";
paths = (
{
closed = 1;
nodes = (
"823 204 LINE",
"663 700 LINE",
"513 700 LINE",
"348 208 LINE",
"190 700 LINE",
"22 700 LINE",
"252 0 LINE",
"425 0 LINE",
"584 474 LINE",
"738 0 LINE",
"912 0 LINE",
"1141 700 LINE",
"986 700 LINE"
);
}
);
width = 1163;
}
);
leftKerningGroup = V;
rightKerningGroup = V;
unicode = 0057;
},
{
glyphname = X;
lastChange = "2018-09-25 17:15:10 +0000";
layers = (
{
layerId = "E232F0B7-B012-4077-9E12-ABC19F379844";
paths = (
{
closed = 1;
nodes = (
"450 362 LINE",
"694 700 LINE",
"519 700 LINE",
"361 473 LINE",
"200 700 LINE",
"16 700 LINE",
"262 356 LINE",
"3 0 LINE",
"189 0 LINE",
"355 243 LINE",
"524 0 LINE",
"711 0 LINE"
);
}
);
width = 714;
}
);
leftKerningGroup = X;
rightKerningGroup = X;
unicode = 0058;
},
{
glyphname = Y;
lastChange = "2018-09-25 17:15:10 +0000";
layers = (
{
layerId = "E232F0B7-B012-4077-9E12-ABC19F379844";
paths = (
{
closed = 1;
nodes = (
"532 700 LINE",
"345 389 LINE",
"158 700 LINE",
"-14 700 LINE",
"257 250 LINE",
"257 0 LINE",
"419 0 LINE",
"419 248 LINE",
"691 700 LINE"
);
}
);
width = 676;
}
);
leftKerningGroup = Y;
rightKerningGroup = Y;
unicode = 0059;
},
{
glyphname = Z;
lastChange = "2018-09-25 17:15:10 +0000";
layers = (
{
layerId = "E232F0B7-B012-4077-9E12-ABC19F379844";
paths = (
{
closed = 1;
nodes = (
"635 595 LINE",
"635 700 LINE",
"46 700 LINE",
"46 568 LINE",
"422 568 LINE",
"38 105 LINE",
"38 0 LINE",
"650 0 LINE",
"650 132 LINE",
"252 132 LINE"
);
}
);
width = 671;
}
);
leftKerningGroup = Z;
rightKerningGroup = DZcaron;
unicode = 005A;
},
{
glyphname = Iacute_J.loclNLD;
lastChange = "2018-09-25 17:15:10 +0000";
layers = (
{
layerId = "E232F0B7-B012-4077-9E12-ABC19F379844";
paths = (
{
closed = 1;
nodes = (
"193 757 LINE",
"374 901 LINE",
"218 901 LINE",
"84 757 LINE"
);
},
{
closed = 1;
nodes = (
"600 757 LINE",
"782 901 LINE",
"626 901 LINE",
"491 757 LINE"
);
},
{
closed = 1;
nodes = (
"391.667 -8 OFFCURVE",
"448 4.5 OFFCURVE",
"496 29.5 CURVE SMOOTH",
"544 54.5 OFFCURVE",
"581.167 91.5 OFFCURVE",
"607.5 140.5 CURVE SMOOTH",
"633.833 189.5 OFFCURVE",
"647 249 OFFCURVE",
"647 319 CURVE SMOOTH",
"647 700 LINE",
"484 700 LINE",
"484 311 LINE SMOOTH",
"484 248.333 OFFCURVE",
"470.5 202.167 OFFCURVE",
"443.5 172.5 CURVE SMOOTH",
"416.5 142.833 OFFCURVE",
"375.667 128 OFFCURVE",
"321 128 CURVE SMOOTH",
"288.333 128 OFFCURVE",
"254.667 133.5 OFFCURVE",
"220 144.5 CURVE SMOOTH",
"185.333 155.5 OFFCURVE",
"152.667 171 OFFCURVE",
"122 191 CURVE",
"61 71 LINE",
"95.667 46.333 OFFCURVE",
"135.833 27 OFFCURVE",
"181.5 13 CURVE SMOOTH",
"227.167 -1 OFFCURVE",
"275.667 -8 OFFCURVE",
"327 -8 CURVE SMOOTH"
);
},
{
closed = 1;
nodes = (
"239 322 LINE",
"239 700 LINE",
"77 700 LINE",
"77 322 LINE"
);
}
);
width = 724;
}
);
leftKerningGroup = B;
rightKerningGroup = IJ;
},
{
glyphname = Adieresis.alt;
lastChange = "2018-09-25 17:15:10 +0000";
layers = (
{
layerId = "E232F0B7-B012-4077-9E12-ABC19F379844";
paths = (
{
closed = 1;
nodes = (
"166 563 OFFCURVE",
"182.5 569.5 OFFCURVE",
"195.5 582.5 CURVE SMOOTH",
"208.5 595.5 OFFCURVE",
"215 612 OFFCURVE",
"215 632 CURVE SMOOTH",
"215 652 OFFCURVE",
"208.5 668.5 OFFCURVE",
"195.5 681.5 CURVE SMOOTH",
"182.5 694.5 OFFCURVE",
"166 701 OFFCURVE",
"146 701 CURVE SMOOTH",
"126 701 OFFCURVE",
"109.333 694.5 OFFCURVE",
"96 681.5 CURVE SMOOTH",
"82.667 668.5 OFFCURVE",
"76 652 OFFCURVE",
"76 632 CURVE SMOOTH",
"76 612 OFFCURVE",
"82.667 595.5 OFFCURVE",
"96 582.5 CURVE SMOOTH",
"109.333 569.5 OFFCURVE",
"126 563 OFFCURVE",
"146 563 CURVE SMOOTH"
);
},
{
closed = 1;
nodes = (
"640 563 OFFCURVE",
"656.5 569.5 OFFCURVE",
"669.5 582.5 CURVE SMOOTH",
"682.5 595.5 OFFCURVE",
"689 612 OFFCURVE",
"689 632 CURVE SMOOTH",
"689 652 OFFCURVE",
"682.5 668.5 OFFCURVE",
"669.5 681.5 CURVE SMOOTH",
"656.5 694.5 OFFCURVE",
"640 701 OFFCURVE",
"620 701 CURVE SMOOTH",
"600 701 OFFCURVE",
"583.333 694.5 OFFCURVE",
"570 681.5 CURVE SMOOTH",
"556.667 668.5 OFFCURVE",
"550 652 OFFCURVE",
"550 632 CURVE SMOOTH",
"550 612 OFFCURVE",
"556.667 595.5 OFFCURVE",
"570 582.5 CURVE SMOOTH",
"583.333 569.5 OFFCURVE",
"600 563 OFFCURVE",
"620 563 CURVE SMOOTH"
);
},
{
closed = 1;
nodes = (
"776 0 LINE",
"463 700 LINE",
"303 700 LINE",
"-9 0 LINE",
"157 0 LINE",
"216 142 LINE",
"547 142 LINE",
"606 0 LINE"
);
},
{
closed = 1;
nodes = (
"382 541 LINE",
"496 265 LINE",
"267 265 LINE"
);
}
);
width = 766;
}
);
leftKerningGroup = A;
rightKerningGroup = A;
},
{
glyphname = Udieresis.alt;
lastChange = "2018-09-25 17:15:10 +0000";
layers = (
{
layerId = "E232F0B7-B012-4077-9E12-ABC19F379844";
paths = (
{
closed = 1;
nodes = (
"414.333 574 OFFCURVE",
"430.5 580.333 OFFCURVE",
"443.5 593 CURVE SMOOTH",
"456.5 605.667 OFFCURVE",
"463 621.667 OFFCURVE",
"463 641 CURVE SMOOTH",
"463 660.333 OFFCURVE",
"456.5 676.333 OFFCURVE",
"443.5 689 CURVE SMOOTH",
"430.5 701.667 OFFCURVE",
"414.333 708 OFFCURVE",
"395 708 CURVE SMOOTH",
"375.667 708 OFFCURVE",
"359.667 701.667 OFFCURVE",
"347 689 CURVE SMOOTH",
"334.333 676.333 OFFCURVE",
"328 660.333 OFFCURVE",
"328 641 CURVE SMOOTH",
"328 621.667 OFFCURVE",
"334.333 605.667 OFFCURVE",
"347 593 CURVE SMOOTH",
"359.667 580.333 OFFCURVE",
"375.667 574 OFFCURVE",
"395 574 CURVE SMOOTH"
);
},
{
closed = 1;
nodes = (
"494 -12 OFFCURVE",
"571.833 15.667 OFFCURVE",
"627.5 71 CURVE SMOOTH",
"683.167 126.333 OFFCURVE",
"711 205.333 OFFCURVE",
"711 308 CURVE SMOOTH",
"711 700 LINE",
"551 700 LINE",
"551 314 LINE SMOOTH",
"551 249.333 OFFCURVE",
"537.667 201.833 OFFCURVE",
"511 171.5 CURVE SMOOTH",
"484.333 141.167 OFFCURVE",
"445.667 126 OFFCURVE",
"395 126 CURVE SMOOTH",
"291 126 OFFCURVE",
"239 188.667 OFFCURVE",
"239 314 CURVE SMOOTH",
"239 700 LINE",
"77 700 LINE",
"77 308 LINE SMOOTH",
"77 205.333 OFFCURVE",
"104.833 126.333 OFFCURVE",
"160.5 71 CURVE SMOOTH",
"216.167 15.667 OFFCURVE",
"294 -12 OFFCURVE",
"394 -12 CURVE SMOOTH"
);
},
{
closed = 1;
nodes = (
"414.333 422 OFFCURVE",
"430.5 428.333 OFFCURVE",
"443.5 441 CURVE SMOOTH",
"456.5 453.667 OFFCURVE",
"463 469.667 OFFCURVE",
"463 489 CURVE SMOOTH",
"463 508.333 OFFCURVE",
"456.5 524.333 OFFCURVE",
"443.5 537 CURVE SMOOTH",
"430.5 549.667 OFFCURVE",
"414.333 556 OFFCURVE",
"395 556 CURVE SMOOTH",
"375.667 556 OFFCURVE",
"359.667 549.667 OFFCURVE",
"347 537 CURVE SMOOTH",
"334.333 524.333 OFFCURVE",
"328 508.333 OFFCURVE",
"328 489 CURVE SMOOTH",
"328 469.667 OFFCURVE",
"334.333 453.667 OFFCURVE",
"347 441 CURVE SMOOTH",
"359.667 428.333 OFFCURVE",
"375.667 422 OFFCURVE",
"395 422 CURVE SMOOTH"
);
}
);
width = 788;
}
);
leftKerningGroup = U;
rightKerningGroup = IJ;
},
{
glyphname = Udieresis.ss01.alt;
lastChange = "2018-09-25 17:15:10 +0000";
layers = (
{
layerId = "E232F0B7-B012-4077-9E12-ABC19F379844";
paths = (
{
closed = 1;
nodes = (
"412.333 574 OFFCURVE",
"428.5 580.333 OFFCURVE",
"441.5 593 CURVE SMOOTH",
"454.5 605.667 OFFCURVE",
"461 621.667 OFFCURVE",
"461 641 CURVE SMOOTH",
"461 660.333 OFFCURVE",
"454.5 676.333 OFFCURVE",
"441.5 689 CURVE SMOOTH",
"428.5 701.667 OFFCURVE",
"412.333 708 OFFCURVE",
"393 708 CURVE SMOOTH",
"373.667 708 OFFCURVE",
"357.667 701.667 OFFCURVE",
"345 689 CURVE SMOOTH",
"332.333 676.333 OFFCURVE",
"326 660.333 OFFCURVE",
"326 641 CURVE SMOOTH",
"326 621.667 OFFCURVE",
"332.333 605.667 OFFCURVE",
"345 593 CURVE SMOOTH",
"357.667 580.333 OFFCURVE",
"373.667 574 OFFCURVE",
"393 574 CURVE SMOOTH"
);
},
{
closed = 1;
nodes = (
"547 306 LINE SMOOTH",
"547 246.667 OFFCURVE",
"532.333 201.833 OFFCURVE",
"503 171.5 CURVE SMOOTH",
"473.667 141.167 OFFCURVE",
"434.667 126 OFFCURVE",
"386 126 CURVE SMOOTH",
"340.667 126 OFFCURVE",
"304.833 140.167 OFFCURVE",
"278.5 168.5 CURVE SMOOTH",
"252.167 196.833 OFFCURVE",
"239 239 OFFCURVE",
"239 295 CURVE SMOOTH",
"239 700 LINE",
"77 700 LINE",
"77 290 LINE SMOOTH",
"77 193.333 OFFCURVE",
"100.167 118.833 OFFCURVE",
"146.5 66.5 CURVE SMOOTH",
"192.833 14.167 OFFCURVE",
"257.333 -12 OFFCURVE",
"340 -12 CURVE SMOOTH",
"433.333 -12 OFFCURVE",
"504 20.333 OFFCURVE",
"552 85 CURVE",
"552 0 LINE",
"709 0 LINE",
"709 700 LINE",
"547 700 LINE"
);
},
{
closed = 1;
nodes = (
"412.333 422 OFFCURVE",
"428.5 428.333 OFFCURVE",
"441.5 441 CURVE SMOOTH",
"454.5 453.667 OFFCURVE",
"461 469.333 OFFCURVE",
"461 488 CURVE SMOOTH",
"461 507.333 OFFCURVE",
"454.5 523.333 OFFCURVE",
"441.5 536 CURVE SMOOTH",
"428.5 548.667 OFFCURVE",
"412.333 555 OFFCURVE",
"393 555 CURVE SMOOTH",
"373.667 555 OFFCURVE",
"357.667 548.667 OFFCURVE",
"345 536 CURVE SMOOTH",
"332.333 523.333 OFFCURVE",
"326 507.333 OFFCURVE",
"326 488 CURVE SMOOTH",
"326 469.333 OFFCURVE",
"332.333 453.667 OFFCURVE",
"345 441 CURVE SMOOTH",
"357.667 428.333 OFFCURVE",
"373.667 422 OFFCURVE",
"393 422 CURVE SMOOTH"
);
}
);
width = 792;
}
);
leftKerningGroup = U;
rightKerningGroup = H;
},
{
glyphname = A.ss01;
lastChange = "2018-09-25 17:15:10 +0000";
layers = (
{
layerId = "E232F0B7-B012-4077-9E12-ABC19F379844";
paths = (
{
closed = 1;
nodes = (
"333.333 712 OFFCURVE",
"277 699.333 OFFCURVE",
"229 674 CURVE SMOOTH",
"181 648.667 OFFCURVE",
"143.667 611.333 OFFCURVE",
"117 562 CURVE SMOOTH",
"90.333 512.667 OFFCURVE",
"77 453 OFFCURVE",
"77 383 CURVE SMOOTH",
"77 0 LINE",
"237 0 LINE",
"237 168 LINE",
"557 168 LINE",
"557 0 LINE",
"719 0 LINE",
"719 383 LINE SMOOTH",
"719 453 OFFCURVE",
"705.667 512.667 OFFCURVE",
"679 562 CURVE SMOOTH",
"652.333 611.333 OFFCURVE",
"615 648.667 OFFCURVE",
"567 674 CURVE SMOOTH",
"519 699.333 OFFCURVE",
"462.667 712 OFFCURVE",
"398 712 CURVE SMOOTH"
);
},
{
closed = 1;
nodes = (
"237 398 LINE SMOOTH",
"237 456 OFFCURVE",
"251.167 499.833 OFFCURVE",
"279.5 529.5 CURVE SMOOTH",
"307.833 559.167 OFFCURVE",
"347 574 OFFCURVE",
"397 574 CURVE SMOOTH",
"446.333 574 OFFCURVE",
"485.333 559.167 OFFCURVE",
"514 529.5 CURVE SMOOTH",
"542.667 499.833 OFFCURVE",
"557 456 OFFCURVE",
"557 398 CURVE SMOOTH",
"557 298 LINE",
"237 298 LINE"
);
}
);
width = 796;
}
);
leftKerningGroup = A.ss01;
rightKerningGroup = A.ss01;
},
{
glyphname = AE.ss01;
lastChange = "2018-09-25 17:15:10 +0000";
layers = (
{
layerId = "E232F0B7-B012-4077-9E12-ABC19F379844";
paths = (
{
closed = 1;
nodes = (
"666 294 LINE",
"993 294 LINE",
"993 417 LINE",
"666 417 LINE",
"666 571 LINE",
"1035 571 LINE",
"1035 700 LINE",
"384 700 LINE SMOOTH",
"282.667 700 OFFCURVE",
"205 672.833 OFFCURVE",
"151 618.5 CURVE SMOOTH",
"97 564.167 OFFCURVE",
"70 486.333 OFFCURVE",
"70 385 CURVE SMOOTH",
"70 0 LINE",
"233 0 LINE",
"233 177 LINE",
"506 177 LINE",
"506 0 LINE",
"1049 0 LINE",
"1049 129 LINE",
"666 129 LINE"
);
},
{
closed = 1;
nodes = (
"233 381 LINE SMOOTH",
"233 442.333 OFFCURVE",
"246.5 487.833 OFFCURVE",
"273.5 517.5 CURVE SMOOTH",
"300.5 547.167 OFFCURVE",
"342 562 OFFCURVE",
"398 562 CURVE SMOOTH",
"506 562 LINE",
"506 305 LINE",
"233 305 LINE"
);
}
);
width = 1086;
}
);
leftKerningGroup = A;
rightKerningGroup = AE;
},
{
glyphname = E.ss01;
lastChange = "2018-09-25 17:15:10 +0000";
layers = (
{
layerId = "E232F0B7-B012-4077-9E12-ABC19F379844";
paths = (
{
closed = 1;
nodes = (
"576.333 162 OFFCURVE",
"541.333 146.5 OFFCURVE",
"500 135.5 CURVE SMOOTH",
"458.667 124.5 OFFCURVE",
"417.333 119 OFFCURVE",
"376 119 CURVE SMOOTH",
"317.333 119 OFFCURVE",
"273.833 126.833 OFFCURVE",
"245.5 142.5 CURVE SMOOTH",
"217.167 158.167 OFFCURVE",
"203 180 OFFCURVE",
"203 208 CURVE SMOOTH",
"203 234.667 OFFCURVE",
"214 255 OFFCURVE",
"236 269 CURVE SMOOTH",
"258 283 OFFCURVE",
"289.333 290 OFFCURVE",
"330 290 CURVE SMOOTH",
"531 290 LINE",
"531 418 LINE",
"340 418 LINE SMOOTH",
"304 418 OFFCURVE",
"277.167 424.5 OFFCURVE",
"259.5 437.5 CURVE SMOOTH",
"241.833 450.5 OFFCURVE",
"233 469.333 OFFCURVE",
"233 494 CURVE SMOOTH",
"233 520.667 OFFCURVE",
"246.167 541.833 OFFCURVE",
"272.5 557.5 CURVE SMOOTH",
"298.833 573.167 OFFCURVE",
"338 581 OFFCURVE",
"390 581 CURVE SMOOTH",
"458.667 581 OFFCURVE",
"523.667 566.667 OFFCURVE",
"585 538 CURVE",
"630 662 LINE",
"598 677.333 OFFCURVE",
"560.333 689.5 OFFCURVE",
"517 698.5 CURVE SMOOTH",
"473.667 707.5 OFFCURVE",
"429.333 712 OFFCURVE",
"384 712 CURVE SMOOTH",
"315.333 712 OFFCURVE",
"257.333 702.667 OFFCURVE",
"210 684 CURVE SMOOTH",
"162.667 665.333 OFFCURVE",
"127.333 640.333 OFFCURVE",
"104 609 CURVE SMOOTH",
"80.667 577.667 OFFCURVE",
"69 543 OFFCURVE",
"69 505 CURVE SMOOTH",
"69 473.667 OFFCURVE",
"76.5 445.333 OFFCURVE",
"91.5 420 CURVE SMOOTH",
"106.5 394.667 OFFCURVE",
"127.667 374.667 OFFCURVE",
"155 360 CURVE",
"119 346 OFFCURVE",
"90.667 324.667 OFFCURVE",
"70 296 CURVE SMOOTH",
"49.333 267.333 OFFCURVE",
"39 234.333 OFFCURVE",
"39 197 CURVE SMOOTH",
"39 156.333 OFFCURVE",
"51.667 120.167 OFFCURVE",
"77 88.5 CURVE SMOOTH",
"102.333 56.833 OFFCURVE",
"139.667 32.167 OFFCURVE",
"189 14.5 CURVE SMOOTH",
"238.333 -3.167 OFFCURVE",
"298.333 -12 OFFCURVE",
"369 -12 CURVE SMOOTH",
"425.667 -12 OFFCURVE",
"479.167 -5.667 OFFCURVE",
"529.5 7 CURVE SMOOTH",
"579.833 19.667 OFFCURVE",
"621.667 37.333 OFFCURVE",
"655 60 CURVE",
"605 182 LINE"
);
}
);
width = 667;
}
);
leftKerningGroup = E.ss01;
rightKerningGroup = E.ss01;
},
{
glyphname = Eogonek.ss01;
lastChange = "2018-09-25 17:15:10 +0000";
layers = (
{
layerId = "E232F0B7-B012-4077-9E12-ABC19F379844";
paths = (
{
closed = 1;
nodes = (
"539.667 -153 OFFCURVE",
"525.833 -148.667 OFFCURVE",
"515.5 -140 CURVE SMOOTH",
"505.167 -131.333 OFFCURVE",
"500 -119.333 OFFCURVE",
"500 -104 CURVE SMOOTH",
"500 -54 OFFCURVE",
"551.667 0.667 OFFCURVE",
"655 60 CURVE",
"605 182 LINE",
"575.667 162.667 OFFCURVE",
"540.333 147.333 OFFCURVE",
"499 136 CURVE SMOOTH",
"457.667 124.667 OFFCURVE",
"416.667 119 OFFCURVE",
"376 119 CURVE SMOOTH",
"317.333 119 OFFCURVE",
"273.833 126.833 OFFCURVE",
"245.5 142.5 CURVE SMOOTH",
"217.167 158.167 OFFCURVE",
"203 180 OFFCURVE",
"203 208 CURVE SMOOTH",
"203 234.667 OFFCURVE",
"214 255 OFFCURVE",
"236 269 CURVE SMOOTH",
"258 283 OFFCURVE",
"289.333 290 OFFCURVE",
"330 290 CURVE SMOOTH",
"531 290 LINE",
"531 418 LINE",
"340 418 LINE SMOOTH",
"304 418 OFFCURVE",
"277.167 424.5 OFFCURVE",
"259.5 437.5 CURVE SMOOTH",
"241.833 450.5 OFFCURVE",
"233 469.333 OFFCURVE",
"233 494 CURVE SMOOTH",
"233 520.667 OFFCURVE",
"246.167 541.833 OFFCURVE",
"272.5 557.5 CURVE SMOOTH",
"298.833 573.167 OFFCURVE",
"338 581 OFFCURVE",
"390 581 CURVE SMOOTH",
"458.667 581 OFFCURVE",
"523.667 566.667 OFFCURVE",
"585 538 CURVE",
"630 662 LINE",
"598 677.333 OFFCURVE",
"560.333 689.5 OFFCURVE",
"517 698.5 CURVE SMOOTH",
"473.667 707.5 OFFCURVE",
"429.333 712 OFFCURVE",
"384 712 CURVE SMOOTH",
"315.333 712 OFFCURVE",
"257.333 702.667 OFFCURVE",
"210 684 CURVE SMOOTH",
"162.667 665.333 OFFCURVE",
"127.333 640.333 OFFCURVE",
"104 609 CURVE SMOOTH",
"80.667 577.667 OFFCURVE",
"69 543 OFFCURVE",
"69 505 CURVE SMOOTH",
"69 473.667 OFFCURVE",
"76.5 445.333 OFFCURVE",
"91.5 420 CURVE SMOOTH",
"106.5 394.667 OFFCURVE",
"127.667 374.667 OFFCURVE",
"155 360 CURVE",
"119 346 OFFCURVE",
"90.667 324.667 OFFCURVE",
"70 296 CURVE SMOOTH",
"49.333 267.333 OFFCURVE",
"39 234.333 OFFCURVE",
"39 197 CURVE SMOOTH",
"39 156.333 OFFCURVE",
"51.667 120.167 OFFCURVE",
"77 88.5 CURVE SMOOTH",
"102.333 56.833 OFFCURVE",
"139.667 32.167 OFFCURVE",
"189 14.5 CURVE SMOOTH",
"238.333 -3.167 OFFCURVE",
"298.333 -12 OFFCURVE",
"369 -12 CURVE SMOOTH",
"397.667 -12 OFFCURVE",
"425.333 -10 OFFCURVE",
"452 -6 CURVE",
"418 -39.333 OFFCURVE",
"401 -77.333 OFFCURVE",
"401 -120 CURVE SMOOTH",
"401 -154 OFFCURVE",
"413.333 -181.167 OFFCURVE",
"438 -201.5 CURVE SMOOTH",
"462.667 -221.833 OFFCURVE",
"496.667 -232 OFFCURVE",
"540 -232 CURVE SMOOTH",
"558 -232 OFFCURVE",
"576 -229.833 OFFCURVE",
"594 -225.5 CURVE SMOOTH",
"612 -221.167 OFFCURVE",
"627.333 -215.667 OFFCURVE",
"640 -209 CURVE",
"618 -138 LINE",
"600 -148 OFFCURVE",
"579.667 -153 OFFCURVE",
"557 -153 CURVE SMOOTH"
);
}
);
width = 667;
}
);
leftKerningGroup = E.ss01;
rightKerningGroup = E.ss01;
},
{
glyphname = F.ss01;
lastChange = "2018-09-25 17:15:10 +0000";
layers = (
{
layerId = "E232F0B7-B012-4077-9E12-ABC19F379844";
paths = (
{
closed = 1;
nodes = (
"465 574 OFFCURVE",
"513 561 OFFCURVE",
"553 535 CURVE",
"603 663 LINE",
"577 679 OFFCURVE",
"546.333 691.167 OFFCURVE",
"511 699.5 CURVE SMOOTH",
"475.667 707.833 OFFCURVE",
"438 712 OFFCURVE",
"398 712 CURVE SMOOTH",
"296.667 712 OFFCURVE",
"217.833 687 OFFCURVE",
"161.5 637 CURVE SMOOTH",
"105.167 587 OFFCURVE",
"77 517 OFFCURVE",
"77 427 CURVE SMOOTH",
"77 0 LINE",
"239 0 LINE",
"239 255 LINE",
"527 255 LINE",
"527 385 LINE",
"239 385 LINE",
"239 428 LINE SMOOTH",
"239 476.667 OFFCURVE",
"253.333 513.167 OFFCURVE",
"282 537.5 CURVE SMOOTH",
"310.667 561.833 OFFCURVE",
"353 574 OFFCURVE",
"409 574 CURVE SMOOTH"
);
}
);
width = 615;
}
);
leftKerningGroup = A.ss01;
rightKerningGroup = F.ss01;
},
{
glyphname = G.ss01;
lastChange = "2018-09-25 17:15:10 +0000";
layers = (
{
layerId = "E232F0B7-B012-4077-9E12-ABC19F379844";
paths = (
{
closed = 1;
nodes = (
"517.333 139 OFFCURVE",
"469.667 123 OFFCURVE",
"413 123 CURVE SMOOTH",
"375 123 OFFCURVE",
"340 131.5 OFFCURVE",
"308 148.5 CURVE SMOOTH",
"276 165.5 OFFCURVE",
"250.5 190.667 OFFCURVE",
"231.5 224 CURVE SMOOTH",
"212.5 257.333 OFFCURVE",
"203 297.667 OFFCURVE",
"203 345 CURVE SMOOTH",
"203 390.333 OFFCURVE",
"212.667 430.333 OFFCURVE",
"232 465 CURVE SMOOTH",
"251.333 499.667 OFFCURVE",
"278.333 526.5 OFFCURVE",
"313 545.5 CURVE SMOOTH",
"347.667 564.5 OFFCURVE",
"387.333 574 OFFCURVE",
"432 574 CURVE SMOOTH",
"502.667 574 OFFCURVE",
"563 547.667 OFFCURVE",
"613 495 CURVE",
"717 591 LINE",
"683 630.333 OFFCURVE",
"641 660.333 OFFCURVE",
"591 681 CURVE SMOOTH",
"541 701.667 OFFCURVE",
"485.333 712 OFFCURVE",
"424 712 CURVE SMOOTH",
"350.667 712 OFFCURVE",
"284.667 696.333 OFFCURVE",
"226 665 CURVE SMOOTH",
"167.333 633.667 OFFCURVE",
"121.5 590.167 OFFCURVE",
"88.5 534.5 CURVE SMOOTH",
"55.5 478.833 OFFCURVE",
"39 415.333 OFFCURVE",
"39 344 CURVE SMOOTH",
"39 270 OFFCURVE",
"55 206.167 OFFCURVE",
"87 152.5 CURVE SMOOTH",
"119 98.833 OFFCURVE",
"162 58 OFFCURVE",
"216 30 CURVE SMOOTH",
"270 2 OFFCURVE",
"329.333 -12 OFFCURVE",
"394 -12 CURVE SMOOTH",
"470.667 -12 OFFCURVE",
"533.333 6 OFFCURVE",
"582 42 CURVE",
"582 0 LINE",
"704 0 LINE",
"704 361 LINE",
"556 361 LINE",
"556 171 LINE"
);
}
);
width = 771;
}
);
leftKerningGroup = C;
rightKerningGroup = G;
},
{
glyphname = Gstroke.ss01;
lastChange = "2018-09-25 17:33:43 +0000";
layers = (
{
layerId = "E232F0B7-B012-4077-9E12-ABC19F379844";
paths = (
{
closed = 1;
nodes = (
"-48 437 OFFCURVE",
"62 638 OFFCURVE",
"252 695 CURVE SMOOTH",
"443 752 OFFCURVE",
"644 642 OFFCURVE",
"700 452 CURVE",
"570 413 LINE",
"535 532 OFFCURVE",
"410 600 OFFCURVE",
"291 564 CURVE SMOOTH",
"172 530 OFFCURVE",
"104 404 OFFCURVE",
"139 285 CURVE SMOOTH",
"174 166 OFFCURVE",
"299 98 OFFCURVE",
"418 134 CURVE SMOOTH",
"457 145 OFFCURVE",
"502 168 OFFCURVE",
"530 206 CURVE",
"531 207 OFFCURVE",
"533 208 OFFCURVE",
"534 210 CURVE",
"431 329 LINE",
"870 224 LINE",
"711 158 LINE",
"724 -13 LINE",
"622 105 LINE",
"579 56 OFFCURVE",
"515 20 OFFCURVE",
"457 3 CURVE SMOOTH",
"266 -53 OFFCURVE",
"65 56 OFFCURVE",
"9 246 CURVE SMOOTH"
);
},
{
closed = 1;
nodes = (
"93 500 LINE",
"83 467 LINE",
"111 487 LINE",
"139 467 LINE",
"129 500 LINE",
"157 521 LINE",
"122 521 LINE",
"111 554 LINE",
"100 521 LINE",
"65 521 LINE"
);
},
{
closed = 1;
nodes = (
"616 191 LINE",
"606 157 LINE",
"634 178 LINE",
"662 157 LINE",
"651 191 LINE",
"680 211 LINE",
"644 211 LINE",
"634 244 LINE",
"623 211 LINE",
"587 211 LINE"
);
}
);
width = 816;
}
);
leftKerningGroup = C;
note = uni01E4.ss01;
rightKerningGroup = G;
},
{
glyphname = I.ss01;
lastChange = "2018-09-25 17:15:10 +0000";
layers = (
{
layerId = "E232F0B7-B012-4077-9E12-ABC19F379844";
paths = (
{
closed = 1;
nodes = (
"444 700 LINE",
"39 700 LINE",
"39 570 LINE",
"161 570 LINE",
"161 130 LINE",
"39 130 LINE",
"39 0 LINE",
"444 0 LINE",
"444 130 LINE",
"323 130 LINE",
"323 570 LINE",
"444 570 LINE"
);
}
);
width = 483;
}
);
leftKerningGroup = I.ss01;
rightKerningGroup = I.ss01;
},
{
glyphname = IJ.ss01;
lastChange = "2018-09-25 17:15:10 +0000";
layers = (
{
layerId = "E232F0B7-B012-4077-9E12-ABC19F379844";
paths = (
{
closed = 1;
nodes = (
"391.667 -109 OFFCURVE",
"448 -96.5 OFFCURVE",
"496 -71.5 CURVE SMOOTH",
"544 -46.5 OFFCURVE",
"581.167 -9.5 OFFCURVE",
"607.5 39.5 CURVE SMOOTH",
"633.833 88.5 OFFCURVE",
"647 148 OFFCURVE",
"647 218 CURVE SMOOTH",
"647 700 LINE",
"485 700 LINE",
"485 208 LINE SMOOTH",
"485 146 OFFCURVE",
"471.5 100.167 OFFCURVE",
"444.5 70.5 CURVE SMOOTH",
"417.5 40.833 OFFCURVE",
"377.333 26 OFFCURVE",
"324 26 CURVE SMOOTH",
"290 26 OFFCURVE",
"255.5 31.5 OFFCURVE",
"220.5 42.5 CURVE SMOOTH",
"185.5 53.5 OFFCURVE",
"152.667 69.333 OFFCURVE",
"122 90 CURVE",
"61 -32 LINE",
"95.667 -56 OFFCURVE",
"135.667 -74.833 OFFCURVE",
"181 -88.5 CURVE SMOOTH",
"226.333 -102.167 OFFCURVE",
"275 -109 OFFCURVE",
"327 -109 CURVE SMOOTH"
);
},
{
closed = 1;
nodes = (
"239 222 LINE",
"239 700 LINE",
"77 700 LINE",
"77 222 LINE"
);
}
);
width = 724;
}
);
leftKerningGroup = B;
rightKerningGroup = IJ.ss01;
},
{
glyphname = Iacute_J.loclNLD.ss01;
lastChange = "2018-09-25 17:15:10 +0000";
layers = (
{
layerId = "E232F0B7-B012-4077-9E12-ABC19F379844";
paths = (
{
closed = 1;
nodes = (
"193 757 LINE",
"374 901 LINE",
"218 901 LINE",
"84 757 LINE"
);
},
{
closed = 1;
nodes = (
"600 757 LINE",
"782 901 LINE",
"626 901 LINE",
"491 757 LINE"
);
},
{
closed = 1;
nodes = (
"391.667 -108 OFFCURVE",
"448 -95.5 OFFCURVE",
"496 -70.5 CURVE SMOOTH",
"544 -45.5 OFFCURVE",
"581.167 -8.5 OFFCURVE",
"607.5 40.5 CURVE SMOOTH",
"633.833 89.5 OFFCURVE",
"647 149 OFFCURVE",
"647 219 CURVE SMOOTH",
"647 700 LINE",
"484 700 LINE",
"484 211 LINE SMOOTH",
"484 148.333 OFFCURVE",
"470.5 102.167 OFFCURVE",
"443.5 72.5 CURVE SMOOTH",
"416.5 42.833 OFFCURVE",
"375.667 28 OFFCURVE",
"321 28 CURVE SMOOTH",
"288.333 28 OFFCURVE",
"254.667 33.5 OFFCURVE",
"220 44.5 CURVE SMOOTH",
"185.333 55.5 OFFCURVE",
"152.667 71 OFFCURVE",
"122 91 CURVE",
"61 -29 LINE",
"95.667 -53.667 OFFCURVE",
"135.833 -73 OFFCURVE",
"181.5 -87 CURVE SMOOTH",
"227.167 -101 OFFCURVE",
"275.667 -108 OFFCURVE",
"327 -108 CURVE SMOOTH"
);
},
{
closed = 1;
nodes = (
"239 222 LINE",
"239 700 LINE",
"77 700 LINE",
"77 222 LINE"
);
}
);
width = 724;
}
);
leftKerningGroup = I.ss01;
},
{
glyphname = J.ss01;
lastChange = "2018-09-25 17:15:10 +0000";
layers = (
{
layerId = "E232F0B7-B012-4077-9E12-ABC19F379844";
paths = (
{
closed = 1;
nodes = (
"293.333 -112 OFFCURVE",
"356.333 -90.5 OFFCURVE",
"399 -47.5 CURVE SMOOTH",
"441.667 -4.5 OFFCURVE",
"463 60 OFFCURVE",
"463 146 CURVE SMOOTH",
"463 700 LINE",
"56 700 LINE",
"56 570 LINE",
"301 570 LINE",
"301 137 LINE SMOOTH",
"301 59.667 OFFCURVE",
"267.667 21 OFFCURVE",
"201 21 CURVE SMOOTH",
"153 21 OFFCURVE",
"110 46.667 OFFCURVE",
"72 98 CURVE",
"-16 -10 LINE",
"9.333 -42.667 OFFCURVE",
"41.5 -67.833 OFFCURVE",
"80.5 -85.5 CURVE SMOOTH",
"119.5 -103.167 OFFCURVE",
"162.667 -112 OFFCURVE",
"210 -112 CURVE SMOOTH"
);
}
);
width = 540;
}
);
leftKerningGroup = J.ss01;
rightKerningGroup = IJ.ss01;
},
{
glyphname = M.ss01;
lastChange = "2018-09-25 17:15:10 +0000";
layers = (
{
layerId = "E232F0B7-B012-4077-9E12-ABC19F379844";
paths = (
{
closed = 1;
nodes = (
"833.333 712 OFFCURVE",
"789.5 703.167 OFFCURVE",
"750.5 685.5 CURVE SMOOTH",
"711.5 667.833 OFFCURVE",
"680 642.333 OFFCURVE",
"656 609 CURVE",
"636.667 642.333 OFFCURVE",
"609 667.833 OFFCURVE",
"573 685.5 CURVE SMOOTH",
"537 703.167 OFFCURVE",
"495 712 OFFCURVE",
"447 712 CURVE SMOOTH",
"401 712 OFFCURVE",
"360.333 703.5 OFFCURVE",
"325 686.5 CURVE SMOOTH",
"289.667 669.5 OFFCURVE",
"261.333 645.333 OFFCURVE",
"240 614 CURVE",
"240 700 LINE",
"83 700 LINE",
"83 0 LINE",
"245 0 LINE",
"245 415 LINE SMOOTH",
"245 468.333 OFFCURVE",
"258.667 508.167 OFFCURVE",
"286 534.5 CURVE SMOOTH",
"313.333 560.833 OFFCURVE",
"349.667 574 OFFCURVE",
"395 574 CURVE SMOOTH",
"436.333 574 OFFCURVE",
"469 561.5 OFFCURVE",
"493 536.5 CURVE SMOOTH",
"517 511.5 OFFCURVE",
"529 474.333 OFFCURVE",
"529 425 CURVE SMOOTH",
"529 0 LINE",
"691 0 LINE",
"691 415 LINE SMOOTH",
"691 468.333 OFFCURVE",
"704.667 508.167 OFFCURVE",
"732 534.5 CURVE SMOOTH",
"759.333 560.833 OFFCURVE",
"796 574 OFFCURVE",
"842 574 CURVE SMOOTH",
"884 574 OFFCURVE",
"917.833 561.5 OFFCURVE",
"943.5 536.5 CURVE SMOOTH",
"969.167 511.5 OFFCURVE",
"982 474.333 OFFCURVE",
"982 425 CURVE SMOOTH",
"982 0 LINE",
"1144 0 LINE",
"1144 430 LINE SMOOTH",
"1144 521.333 OFFCURVE",
"1121 591.167 OFFCURVE",
"1075 639.5 CURVE SMOOTH",
"1029 687.833 OFFCURVE",
"964.667 712 OFFCURVE",
"882 712 CURVE SMOOTH"
);
}
);
width = 1221;
}
);
leftKerningGroup = B;
rightKerningGroup = M.ss01;
},
{
glyphname = N.ss01;
lastChange = "2018-09-25 17:15:10 +0000";
layers = (
{
layerId = "E232F0B7-B012-4077-9E12-ABC19F379844";
paths = (
{
closed = 1;
nodes = (
"407.333 712 OFFCURVE",
"366 703.833 OFFCURVE",
"330 687.5 CURVE SMOOTH",
"294 671.167 OFFCURVE",
"264 647 OFFCURVE",
"240 615 CURVE",
"240 700 LINE",
"83 700 LINE",
"83 0 LINE",
"245 0 LINE",
"245 394 LINE SMOOTH",
"245 453.333 OFFCURVE",
"259.833 498.167 OFFCURVE",
"289.5 528.5 CURVE SMOOTH",
"319.167 558.833 OFFCURVE",
"358.667 574 OFFCURVE",
"408 574 CURVE SMOOTH",
"454.667 574 OFFCURVE",
"491.167 559.833 OFFCURVE",
"517.5 531.5 CURVE SMOOTH",
"543.833 503.167 OFFCURVE",
"557 461 OFFCURVE",
"557 405 CURVE SMOOTH",
"557 0 LINE",
"719 0 LINE",
"719 410 LINE SMOOTH",
"719 506.667 OFFCURVE",
"695.667 581.167 OFFCURVE",
"649 633.5 CURVE SMOOTH",
"602.333 685.833 OFFCURVE",
"537.333 712 OFFCURVE",
"454 712 CURVE SMOOTH"
);
}
);
width = 796;
}
);
leftKerningGroup = B;
rightKerningGroup = M.ss01;
},
{
glyphname = Eng.ss01;
lastChange = "2018-09-25 17:15:10 +0000";
layers = (
{
layerId = "E232F0B7-B012-4077-9E12-ABC19F379844";
paths = (
{
closed = 1;
nodes = (
"407.333 712 OFFCURVE",
"366 703.833 OFFCURVE",
"330 687.5 CURVE SMOOTH",
"294 671.167 OFFCURVE",
"264 647 OFFCURVE",
"240 615 CURVE",
"240 700 LINE",
"83 700 LINE",
"83 0 LINE",
"245 0 LINE",
"245 394 LINE SMOOTH",
"245 453.333 OFFCURVE",
"259.833 498.167 OFFCURVE",
"289.5 528.5 CURVE SMOOTH",
"319.167 558.833 OFFCURVE",
"358.667 574 OFFCURVE",
"408 574 CURVE SMOOTH",
"454.667 574 OFFCURVE",
"491.167 559.833 OFFCURVE",
"517.5 531.5 CURVE SMOOTH",
"543.833 503.167 OFFCURVE",
"557 461 OFFCURVE",
"557 405 CURVE SMOOTH",
"557 50 LINE SMOOTH",
"557 11.333 OFFCURVE",
"548.667 -17.667 OFFCURVE",
"532 -37 CURVE SMOOTH",
"515.333 -56.333 OFFCURVE",
"491 -66 OFFCURVE",
"459 -66 CURVE SMOOTH",
"419 -66 OFFCURVE",
"384.333 -50.667 OFFCURVE",
"355 -20 CURVE",
"279 -136 LINE",
"303 -158 OFFCURVE",
"331.167 -174.5 OFFCURVE",
"363.5 -185.5 CURVE SMOOTH",
"395.833 -196.5 OFFCURVE",
"430.667 -202 OFFCURVE",
"468 -202 CURVE SMOOTH",
"550 -202 OFFCURVE",
"612.333 -180.333 OFFCURVE",
"655 -137 CURVE SMOOTH",
"697.667 -93.667 OFFCURVE",
"719 -29 OFFCURVE",
"719 57 CURVE SMOOTH",
"719 410 LINE SMOOTH",
"719 506.667 OFFCURVE",
"695.667 581.167 OFFCURVE",
"649 633.5 CURVE SMOOTH",
"602.333 685.833 OFFCURVE",
"537.333 712 OFFCURVE",
"454 712 CURVE SMOOTH"
);
}
);
width = 796;
}
);
leftKerningGroup = B;
rightKerningGroup = M.ss01;
},
{
glyphname = Q.ss01;
lastChange = "2018-09-25 17:15:10 +0000";
layers = (
{
layerId = "E232F0B7-B012-4077-9E12-ABC19F379844";
paths = (
{
closed = 1;
nodes = (
"805 418.667 OFFCURVE",
"788.333 480.5 OFFCURVE",
"755 535.5 CURVE SMOOTH",
"721.667 590.5 OFFCURVE",
"676 633.667 OFFCURVE",
"618 665 CURVE SMOOTH",
"560 696.333 OFFCURVE",
"494.667 712 OFFCURVE",
"422 712 CURVE SMOOTH",
"349.333 712 OFFCURVE",
"283.833 696.333 OFFCURVE",
"225.5 665 CURVE SMOOTH",
"167.167 633.667 OFFCURVE",
"121.5 590.5 OFFCURVE",
"88.5 535.5 CURVE SMOOTH",
"55.5 480.5 OFFCURVE",
"39 418.667 OFFCURVE",
"39 350 CURVE SMOOTH",
"39 290.667 OFFCURVE",
"51.667 236 OFFCURVE",
"77 186 CURVE SMOOTH",
"102.333 136 OFFCURVE",
"137.833 94.333 OFFCURVE",
"183.5 61 CURVE SMOOTH",
"229.167 27.667 OFFCURVE",
"281.333 5.667 OFFCURVE",
"340 -5 CURVE",
"340 -135 LINE",
"503 -135 LINE",
"503 -5 LINE",
"562.333 5.667 OFFCURVE",
"614.833 27.667 OFFCURVE",
"660.5 61 CURVE SMOOTH",
"706.167 94.333 OFFCURVE",
"741.667 135.833 OFFCURVE",
"767 185.5 CURVE SMOOTH",
"792.333 235.167 OFFCURVE",
"805 290 OFFCURVE",
"805 350 CURVE SMOOTH"
);
},
{
closed = 1;
nodes = (
"496 281 LINE",
"346 281 LINE",
"346 137 LINE",
"302 151.667 OFFCURVE",
"267.167 177.667 OFFCURVE",
"241.5 215 CURVE SMOOTH",
"215.833 252.333 OFFCURVE",
"203 297.333 OFFCURVE",
"203 350 CURVE SMOOTH",
"203 393.333 OFFCURVE",
"212.5 432 OFFCURVE",
"231.5 466 CURVE SMOOTH",
"250.5 500 OFFCURVE",
"276.667 526.5 OFFCURVE",
"310 545.5 CURVE SMOOTH",
"343.333 564.5 OFFCURVE",
"380.667 574 OFFCURVE",
"422 574 CURVE SMOOTH",
"463.333 574 OFFCURVE",
"500.667 564.5 OFFCURVE",
"534 545.5 CURVE SMOOTH",
"567.333 526.5 OFFCURVE",
"593.5 500 OFFCURVE",
"612.5 466 CURVE SMOOTH",
"631.5 432 OFFCURVE",
"641 393.333 OFFCURVE",
"641 350 CURVE SMOOTH",
"641 297.333 OFFCURVE",
"628 252.167 OFFCURVE",
"602 214.5 CURVE SMOOTH",
"576 176.833 OFFCURVE",
"540.667 151 OFFCURVE",
"496 137 CURVE"
);
}
);
width = 844;
}
);
leftKerningGroup = C;
rightKerningGroup = D;
},
{
glyphname = Schwa.ss01;
lastChange = "2018-09-25 17:15:10 +0000";
layers = (
{
layerId = "E232F0B7-B012-4077-9E12-ABC19F379844";
paths = (
{
closed = 1;
nodes = (
"338 712 OFFCURVE",
"281.333 701.5 OFFCURVE",
"228 680.5 CURVE SMOOTH",
"174.667 659.5 OFFCURVE",
"131 631.667 OFFCURVE",
"97 597 CURVE",
"194 492 LINE",
"218.667 518 OFFCURVE",
"249.333 538.167 OFFCURVE",
"286 552.5 CURVE SMOOTH",
"322.667 566.833 OFFCURVE",
"359.667 574 OFFCURVE",
"397 574 CURVE SMOOTH",
"439.667 574 OFFCURVE",
"478 563.667 OFFCURVE",
"512 543 CURVE SMOOTH",
"546 522.333 OFFCURVE",
"572 494.667 OFFCURVE",
"590 460 CURVE",
"55 245 LINE",
"78.333 165.667 OFFCURVE",
"121.5 103 OFFCURVE",
"184.5 57 CURVE SMOOTH",
"247.5 11 OFFCURVE",
"322.333 -12 OFFCURVE",
"409 -12 CURVE SMOOTH",
"479 -12 OFFCURVE",
"542 3.5 OFFCURVE",
"598 34.5 CURVE SMOOTH",
"654 65.5 OFFCURVE",
"698 108.667 OFFCURVE",
"730 164 CURVE SMOOTH",
"762 219.333 OFFCURVE",
"778 281.667 OFFCURVE",
"778 351 CURVE SMOOTH",
"778 419.667 OFFCURVE",
"761.833 481.5 OFFCURVE",
"729.5 536.5 CURVE SMOOTH",
"697.167 591.5 OFFCURVE",
"652 634.5 OFFCURVE",
"594 665.5 CURVE SMOOTH",
"536 696.5 OFFCURVE",
"470.667 712 OFFCURVE",
"398 712 CURVE SMOOTH"
);
},
{
closed = 1;
nodes = (
"370.333 117 OFFCURVE",
"337.167 124 OFFCURVE",
"309.5 138 CURVE SMOOTH",
"281.833 152 OFFCURVE",
"260.333 172.333 OFFCURVE",
"245 199 CURVE",
"614 349 LINE",
"614 331 LINE SMOOTH",
"614 265.667 OFFCURVE",
"595.667 213.667 OFFCURVE",
"559 175 CURVE SMOOTH",
"522.333 136.333 OFFCURVE",
"472.333 117 OFFCURVE",
"409 117 CURVE SMOOTH"
);
}
);
width = 817;
}
);
leftKerningGroup = C;
note = uni018F.ss01;
rightKerningGroup = D;
},
{
glyphname = T.ss01;
lastChange = "2018-09-25 17:15:10 +0000";
layers = (
{
layerId = "E232F0B7-B012-4077-9E12-ABC19F379844";
paths = (
{
closed = 1;
nodes = (
"600.667 653.667 OFFCURVE",
"548.833 675.333 OFFCURVE",
"492.5 690 CURVE SMOOTH",
"436.167 704.667 OFFCURVE",
"378 712 OFFCURVE",
"318 712 CURVE SMOOTH",
"258.667 712 OFFCURVE",
"201 704.667 OFFCURVE",
"145 690 CURVE SMOOTH",
"89 675.333 OFFCURVE",
"37 653.667 OFFCURVE",
"-11 625 CURVE",
"44 504 LINE",
"104.667 538.667 OFFCURVE",
"169.333 561 OFFCURVE",
"238 571 CURVE",
"238 0 LINE",
"400 0 LINE",
"400 571 LINE",
"468.667 561 OFFCURVE",
"533 538.667 OFFCURVE",
"593 504 CURVE",
"648 625 LINE"
);
}
);
width = 638;
}
);
leftKerningGroup = T.ss01;
rightKerningGroup = T.ss01;
},
{
glyphname = U.ss01;
lastChange = "2018-09-25 17:15:10 +0000";
layers = (
{
layerId = "E232F0B7-B012-4077-9E12-ABC19F379844";
paths = (
{
closed = 1;
nodes = (
"547 306 LINE SMOOTH",
"547 246.667 OFFCURVE",
"532.333 201.833 OFFCURVE",
"503 171.5 CURVE SMOOTH",
"473.667 141.167 OFFCURVE",
"434.667 126 OFFCURVE",
"386 126 CURVE SMOOTH",
"340.667 126 OFFCURVE",
"304.833 140.167 OFFCURVE",
"278.5 168.5 CURVE SMOOTH",
"252.167 196.833 OFFCURVE",
"239 239 OFFCURVE",
"239 295 CURVE SMOOTH",
"239 700 LINE",
"77 700 LINE",
"77 290 LINE SMOOTH",
"77 193.333 OFFCURVE",
"100.167 118.833 OFFCURVE",
"146.5 66.5 CURVE SMOOTH",
"192.833 14.167 OFFCURVE",
"257.333 -12 OFFCURVE",
"340 -12 CURVE SMOOTH",
"433.333 -12 OFFCURVE",
"504 20.333 OFFCURVE",
"552 85 CURVE",
"552 0 LINE",
"709 0 LINE",
"709 700 LINE",
"547 700 LINE"
);
}
);
width = 792;
}
);
leftKerningGroup = U;
rightKerningGroup = H;
},
{
glyphname = W.ss01;
lastChange = "2018-09-25 17:15:10 +0000";
layers = (
{
layerId = "E232F0B7-B012-4077-9E12-ABC19F379844";
paths = (
{
closed = 1;
nodes = (
"961 292 LINE SMOOTH",
"961 181.333 OFFCURVE",
"915 126 OFFCURVE",
"823 126 CURVE SMOOTH",
"728.333 126 OFFCURVE",
"681 181.333 OFFCURVE",
"681 292 CURVE SMOOTH",
"681 700 LINE",
"519 700 LINE",
"519 292 LINE SMOOTH",
"519 181.333 OFFCURVE",
"472 126 OFFCURVE",
"378 126 CURVE SMOOTH",
"332 126 OFFCURVE",
"297.333 139.5 OFFCURVE",
"274 166.5 CURVE SMOOTH",
"250.667 193.5 OFFCURVE",
"239 235.333 OFFCURVE",
"239 292 CURVE SMOOTH",
"239 700 LINE",
"77 700 LINE",
"77 287 LINE SMOOTH",
"77 189.667 OFFCURVE",
"103.333 115.5 OFFCURVE",
"156 64.5 CURVE SMOOTH",
"208.667 13.5 OFFCURVE",
"283.333 -12 OFFCURVE",
"380 -12 CURVE SMOOTH",
"427.333 -12 OFFCURVE",
"469.667 -5 OFFCURVE",
"507 9 CURVE SMOOTH",
"544.333 23 OFFCURVE",
"575.333 42.667 OFFCURVE",
"600 68 CURVE",
"624 42.667 OFFCURVE",
"654.833 23 OFFCURVE",
"692.5 9 CURVE SMOOTH",
"730.167 -5 OFFCURVE",
"773 -12 OFFCURVE",
"821 -12 CURVE SMOOTH",
"917.667 -12 OFFCURVE",
"992.333 13.5 OFFCURVE",
"1045 64.5 CURVE SMOOTH",
"1097.667 115.5 OFFCURVE",
"1124 189.667 OFFCURVE",
"1124 287 CURVE SMOOTH",
"1124 700 LINE",
"961 700 LINE"
);
}
);
width = 1201;
}
);
leftKerningGroup = U;
rightKerningGroup = IJ;
},
{
glyphname = Y.ss01;
lastChange = "2018-09-25 17:15:10 +0000";
layers = (
{
layerId = "E232F0B7-B012-4077-9E12-ABC19F379844";
paths = (
{
closed = 1;
nodes = (
"546 482 LINE SMOOTH",
"546 422.667 OFFCURVE",
"531.333 378.333 OFFCURVE",
"502 349 CURVE SMOOTH",
"472.667 319.667 OFFCURVE",
"433 305 OFFCURVE",
"383 305 CURVE SMOOTH",
"335.667 305 OFFCURVE",
"299 319 OFFCURVE",
"273 347 CURVE SMOOTH",
"247 375 OFFCURVE",
"234 416.333 OFFCURVE",
"234 471 CURVE SMOOTH",
"234 700 LINE",
"72 700 LINE",
"72 461 LINE SMOOTH",
"72 366.333 OFFCURVE",
"95.833 293.833 OFFCURVE",
"143.5 243.5 CURVE SMOOTH",
"191.167 193.167 OFFCURVE",
"259.333 168 OFFCURVE",
"348 168 CURVE SMOOTH",
"433.333 168 OFFCURVE",
"499.333 196.667 OFFCURVE",
"546 254 CURVE",
"546 211 LINE SMOOTH",
"546 149 OFFCURVE",
"531.833 103.167 OFFCURVE",
"503.5 73.5 CURVE SMOOTH",
"475.167 43.833 OFFCURVE",
"431.667 29 OFFCURVE",
"373 29 CURVE SMOOTH",
"288.333 29 OFFCURVE",
"214.333 54.667 OFFCURVE",
"151 106 CURVE",
"88 -14 LINE",
"122.667 -44 OFFCURVE",
"164.667 -67.167 OFFCURVE",
"214 -83.5 CURVE SMOOTH",
"263.333 -99.833 OFFCURVE",
"317.667 -108 OFFCURVE",
"377 -108 CURVE SMOOTH",
"480.333 -108 OFFCURVE",
"561.333 -79.833 OFFCURVE",
"620 -23.5 CURVE SMOOTH",
"678.667 32.833 OFFCURVE",
"708 113.667 OFFCURVE",
"708 219 CURVE SMOOTH",
"708 700 LINE",
"546 700 LINE"
);
}
);
width = 785;
}
);
leftKerningGroup = Y.ss01;
rightKerningGroup = IJ;
},
{
glyphname = Z.ss01;
lastChange = "2018-09-25 17:15:10 +0000";
layers = (
{
layerId = "E232F0B7-B012-4077-9E12-ABC19F379844";
paths = (
{
closed = 1;
nodes = (
"384 294 LINE",
"584 294 LINE",
"584 414 LINE",
"482 414 LINE",
"640 607 LINE",
"640 700 LINE",
"50 700 LINE",
"50 570 LINE",
"434 570 LINE",
"308 417 LINE",
"98 417 LINE",
"98 296 LINE",
"209 296 LINE",
"43 94 LINE",
"43 0 LINE",
"655 0 LINE",
"655 130 LINE",
"249 130 LINE"
);
}
);
width = 681;
}
);
leftKerningGroup = Z;
rightKerningGroup = DZcaron;
},
{
glyphname = a;
lastChange = "2018-09-25 17:15:10 +0000";
layers = (
{
layerId = "E232F0B7-B012-4077-9E12-ABC19F379844";
paths = (
{
closed = 1;
nodes = (
"245.667 546 OFFCURVE",
"203.5 540.333 OFFCURVE",
"162.5 529 CURVE SMOOTH",
"121.5 517.667 OFFCURVE",
"86.333 501.667 OFFCURVE",
"57 481 CURVE",
"113 372 LINE",
"132.333 387.333 OFFCURVE",
"155.833 399.5 OFFCURVE",
"183.5 408.5 CURVE SMOOTH",
"211.167 417.5 OFFCURVE",
"239.333 422 OFFCURVE",
"268 422 CURVE SMOOTH",
"309.333 422 OFFCURVE",
"340.333 412.833 OFFCURVE",
"361 394.5 CURVE SMOOTH",
"381.667 376.167 OFFCURVE",
"392 350 OFFCURVE",
"392 316 CURVE",
"268 316 LINE SMOOTH",
"189.333 316 OFFCURVE",
"131.167 301.667 OFFCURVE",
"93.5 273 CURVE SMOOTH",
"55.833 244.333 OFFCURVE",
"37 205 OFFCURVE",
"37 155 CURVE SMOOTH",
"37 123.667 OFFCURVE",
"45 95.667 OFFCURVE",
"61 71 CURVE SMOOTH",
"77 46.333 OFFCURVE",
"100.167 27 OFFCURVE",
"130.5 13 CURVE SMOOTH",
"160.833 -1 OFFCURVE",
"196.667 -8 OFFCURVE",
"238 -8 CURVE SMOOTH",
"318 -8 OFFCURVE",
"372.667 17 OFFCURVE",
"402 67 CURVE",
"402 0 LINE",
"548 0 LINE",
"548 307 LINE SMOOTH",
"548 387 OFFCURVE",
"525.667 446.833 OFFCURVE",
"481 486.5 CURVE SMOOTH",
"436.333 526.167 OFFCURVE",
"372.333 546 OFFCURVE",
"289 546 CURVE SMOOTH"
);
},
{
closed = 1;
nodes = (
"249.667 97 OFFCURVE",
"228.167 102.833 OFFCURVE",
"212.5 114.5 CURVE SMOOTH",
"196.833 126.167 OFFCURVE",
"189 142 OFFCURVE",
"189 162 CURVE SMOOTH",
"189 204 OFFCURVE",
"221 225 OFFCURVE",
"285 225 CURVE SMOOTH",
"392 225 LINE",
"392 170 LINE",
"383.333 146 OFFCURVE",
"368.667 127.833 OFFCURVE",
"348 115.5 CURVE SMOOTH",
"327.333 103.167 OFFCURVE",
"303.667 97 OFFCURVE",
"277 97 CURVE SMOOTH"
);
}
);
width = 617;
}
);
leftKerningGroup = a;
rightKerningGroup = a;
unicode = 0061;
},
{
glyphname = ae;
lastChange = "2018-09-25 17:15:10 +0000";
layers = (
{
layerId = "E232F0B7-B012-4077-9E12-ABC19F379844";
paths = (
{
closed = 1;
nodes = (
"963 325 OFFCURVE",
"950.667 373 OFFCURVE",
"926 415 CURVE SMOOTH",
"901.333 457 OFFCURVE",
"867.667 489.333 OFFCURVE",
"825 512 CURVE SMOOTH",
"782.333 534.667 OFFCURVE",
"735.333 546 OFFCURVE",
"684 546 CURVE SMOOTH",
"644.667 546 OFFCURVE",
"608 539.333 OFFCURVE",
"574 526 CURVE SMOOTH",
"540 512.667 OFFCURVE",
"510.667 494 OFFCURVE",
"486 470 CURVE",
"444.667 520.667 OFFCURVE",
"378.667 546 OFFCURVE",
"288 546 CURVE SMOOTH",
"244.667 546 OFFCURVE",
"202.667 540.333 OFFCURVE",
"162 529 CURVE SMOOTH",
"121.333 517.667 OFFCURVE",
"86.333 501.667 OFFCURVE",
"57 481 CURVE",
"113 372 LINE",
"132.333 387.333 OFFCURVE",
"156 399.5 OFFCURVE",
"184 408.5 CURVE SMOOTH",
"212 417.5 OFFCURVE",
"240.333 422 OFFCURVE",
"269 422 CURVE SMOOTH",
"309.667 422 OFFCURVE",
"340.333 412.833 OFFCURVE",
"361 394.5 CURVE SMOOTH",
"381.667 376.167 OFFCURVE",
"392 350.333 OFFCURVE",
"392 317 CURVE",
"268 317 LINE SMOOTH",
"190 317 OFFCURVE",
"132 302.667 OFFCURVE",
"94 274 CURVE SMOOTH",
"56 245.333 OFFCURVE",
"37 207.667 OFFCURVE",
"37 161 CURVE SMOOTH",
"37 109.667 OFFCURVE",
"57.167 68.667 OFFCURVE",
"97.5 38 CURVE SMOOTH",
"137.833 7.333 OFFCURVE",
"193 -8 OFFCURVE",
"263 -8 CURVE SMOOTH",
"359 -8 OFFCURVE",
"427.667 23 OFFCURVE",
"469 85 CURVE",
"497 53.667 OFFCURVE",
"531 30.333 OFFCURVE",
"571 15 CURVE SMOOTH",
"611 -0.333 OFFCURVE",
"654.667 -8 OFFCURVE",
"702 -8 CURVE SMOOTH",
"748.667 -8 OFFCURVE",
"790.833 -0.667 OFFCURVE",
"828.5 14 CURVE SMOOTH",
"866.167 28.667 OFFCURVE",
"898 50.333 OFFCURVE",
"924 79 CURVE",
"841 169 LINE",
"802.333 134.333 OFFCURVE",
"757 117 OFFCURVE",
"705 117 CURVE SMOOTH",
"663.667 117 OFFCURVE",
"629.667 126.667 OFFCURVE",
"603 146 CURVE SMOOTH",
"576.333 165.333 OFFCURVE",
"559.333 192 OFFCURVE",
"552 226 CURVE",
"960 226 LINE",
"962 239.333 OFFCURVE",
"963 254.333 OFFCURVE",
"963 271 CURVE SMOOTH"
);
},
{
closed = 1;
nodes = (
"714.667 428 OFFCURVE",
"743.167 418.333 OFFCURVE",
"767.5 399 CURVE SMOOTH",
"791.833 379.667 OFFCURVE",
"806.667 352.333 OFFCURVE",
"812 317 CURVE",
"550 317 LINE",
"556 352.333 OFFCURVE",
"571.333 379.667 OFFCURVE",
"596 399 CURVE SMOOTH",
"620.667 418.333 OFFCURVE",
"649.333 428 OFFCURVE",
"682 428 CURVE SMOOTH"
);
},
{
closed = 1;
nodes = (
"250.333 97 OFFCURVE",
"228.167 102.833 OFFCURVE",
"212.5 114.5 CURVE SMOOTH",
"196.833 126.167 OFFCURVE",
"189 142.667 OFFCURVE",
"189 164 CURVE SMOOTH",
"189 205.333 OFFCURVE",
"221 226 OFFCURVE",
"285 226 CURVE SMOOTH",
"392 226 LINE",
"392 201 LINE SMOOTH",
"392 169 OFFCURVE",
"382 143.667 OFFCURVE",
"362 125 CURVE SMOOTH",
"342 106.333 OFFCURVE",
"314.333 97 OFFCURVE",
"279 97 CURVE SMOOTH"
);
}
);
width = 996;
}
);
leftKerningGroup = a;
rightKerningGroup = ae;
unicode = 00E6;
},
{
glyphname = b;
lastChange = "2018-09-25 17:15:10 +0000";
layers = (
{
layerId = "E232F0B7-B012-4077-9E12-ABC19F379844";
paths = (
{
closed = 1;
nodes = (
"321.333 546 OFFCURVE",
"267.333 524.333 OFFCURVE",
"228 481 CURVE",
"228 742 LINE",
"72 742 LINE",
"72 0 LINE",
"221 0 LINE",
"221 62 LINE",
"259.667 15.333 OFFCURVE",
"316 -8 OFFCURVE",
"390 -8 CURVE SMOOTH",
"440 -8 OFFCURVE",
"485.5 3.5 OFFCURVE",
"526.5 26.5 CURVE SMOOTH",
"567.5 49.5 OFFCURVE",
"599.667 81.833 OFFCURVE",
"623 123.5 CURVE SMOOTH",
"646.333 165.167 OFFCURVE",
"658 213.667 OFFCURVE",
"658 269 CURVE SMOOTH",
"658 324.333 OFFCURVE",
"646.333 372.833 OFFCURVE",
"623 414.5 CURVE SMOOTH",
"599.667 456.167 OFFCURVE",
"567.5 488.5 OFFCURVE",
"526.5 511.5 CURVE SMOOTH",
"485.5 534.5 OFFCURVE",
"440 546 OFFCURVE",
"390 546 CURVE SMOOTH"
);
},
{
closed = 1;
nodes = (
"323 120 OFFCURVE",
"290.167 133.5 OFFCURVE",
"264.5 160.5 CURVE SMOOTH",
"238.833 187.5 OFFCURVE",
"226 223.667 OFFCURVE",
"226 269 CURVE SMOOTH",
"226 314.333 OFFCURVE",
"238.833 350.5 OFFCURVE",
"264.5 377.5 CURVE SMOOTH",
"290.167 404.5 OFFCURVE",
"323 418 OFFCURVE",
"363 418 CURVE SMOOTH",
"403 418 OFFCURVE",
"435.833 404.5 OFFCURVE",
"461.5 377.5 CURVE SMOOTH",
"487.167 350.5 OFFCURVE",
"500 314.333 OFFCURVE",
"500 269 CURVE SMOOTH",
"500 223.667 OFFCURVE",
"487.167 187.5 OFFCURVE",
"461.5 160.5 CURVE SMOOTH",
"435.833 133.5 OFFCURVE",
"403 120 OFFCURVE",
"363 120 CURVE SMOOTH"
);
}
);
width = 690;
}
);
leftKerningGroup = b;
rightKerningGroup = b;
unicode = 0062;
},
{
glyphname = c;
lastChange = "2018-09-25 17:15:10 +0000";
layers = (
{
layerId = "E232F0B7-B012-4077-9E12-ABC19F379844";
paths = (
{
closed = 1;
nodes = (
"388.667 -8 OFFCURVE",
"438.167 4 OFFCURVE",
"480.5 28 CURVE SMOOTH",
"522.833 52 OFFCURVE",
"553.667 85.333 OFFCURVE",
"573 128 CURVE",
"452 194 LINE",
"424.667 144.667 OFFCURVE",
"384.333 120 OFFCURVE",
"331 120 CURVE SMOOTH",
"290.333 120 OFFCURVE",
"256.667 133.333 OFFCURVE",
"230 160 CURVE SMOOTH",
"203.333 186.667 OFFCURVE",
"190 223 OFFCURVE",
"190 269 CURVE SMOOTH",
"190 315 OFFCURVE",
"203.333 351.333 OFFCURVE",
"230 378 CURVE SMOOTH",
"256.667 404.667 OFFCURVE",
"290.333 418 OFFCURVE",
"331 418 CURVE SMOOTH",
"383.667 418 OFFCURVE",
"424 393.333 OFFCURVE",
"452 344 CURVE",
"573 409 LINE",
"553.667 453 OFFCURVE",
"522.833 486.833 OFFCURVE",
"480.5 510.5 CURVE SMOOTH",
"438.167 534.167 OFFCURVE",
"388.667 546 OFFCURVE",
"332 546 CURVE SMOOTH",
"274.667 546 OFFCURVE",
"223.167 534.167 OFFCURVE",
"177.5 510.5 CURVE SMOOTH",
"131.833 486.833 OFFCURVE",
"96.167 454 OFFCURVE",
"70.5 412 CURVE SMOOTH",
"44.833 370 OFFCURVE",
"32 322.333 OFFCURVE",
"32 269 CURVE SMOOTH",
"32 215.667 OFFCURVE",
"44.833 168 OFFCURVE",
"70.5 126 CURVE SMOOTH",
"96.167 84 OFFCURVE",
"131.833 51.167 OFFCURVE",
"177.5 27.5 CURVE SMOOTH",
"223.167 3.833 OFFCURVE",
"274.667 -8 OFFCURVE",
"332 -8 CURVE SMOOTH"
);
}
);
width = 591;
}
);
leftKerningGroup = c;
rightKerningGroup = c;
unicode = 0063;
},
{
glyphname = d;
lastChange = "2018-09-25 17:15:10 +0000";
layers = (
{
layerId = "E232F0B7-B012-4077-9E12-ABC19F379844";
paths = (
{
closed = 1;
nodes = (
"464 481 LINE",
"425.333 524.333 OFFCURVE",
"371.667 546 OFFCURVE",
"303 546 CURVE SMOOTH",
"252.333 546 OFFCURVE",
"206.5 534.667 OFFCURVE",
"165.5 512 CURVE SMOOTH",
"124.5 489.333 OFFCURVE",
"92.333 457 OFFCURVE",
"69 415 CURVE SMOOTH",
"45.667 373 OFFCURVE",
"34 324.333 OFFCURVE",
"34 269 CURVE SMOOTH",
"34 213.667 OFFCURVE",
"45.667 165 OFFCURVE",
"69 123 CURVE SMOOTH",
"92.333 81 OFFCURVE",
"124.5 48.667 OFFCURVE",
"165.5 26 CURVE SMOOTH",
"206.5 3.333 OFFCURVE",
"252.333 -8 OFFCURVE",
"303 -8 CURVE SMOOTH",
"376.333 -8 OFFCURVE",
"432.333 15.333 OFFCURVE",
"471 62 CURVE",
"471 0 LINE",
"620 0 LINE",
"620 742 LINE",
"464 742 LINE"
);
},
{
closed = 1;
nodes = (
"290 120 OFFCURVE",
"257 133.5 OFFCURVE",
"231 160.5 CURVE SMOOTH",
"205 187.5 OFFCURVE",
"192 223.667 OFFCURVE",
"192 269 CURVE SMOOTH",
"192 314.333 OFFCURVE",
"205 350.5 OFFCURVE",
"231 377.5 CURVE SMOOTH",
"257 404.5 OFFCURVE",
"290 418 OFFCURVE",
"330 418 CURVE SMOOTH",
"369.333 418 OFFCURVE",
"402 404.5 OFFCURVE",
"428 377.5 CURVE SMOOTH",
"454 350.5 OFFCURVE",
"467 314.333 OFFCURVE",
"467 269 CURVE SMOOTH",
"467 223.667 OFFCURVE",
"454 187.5 OFFCURVE",
"428 160.5 CURVE SMOOTH",
"402 133.5 OFFCURVE",
"369.333 120 OFFCURVE",
"330 120 CURVE SMOOTH"
);
}
);
width = 692;
}
);
leftKerningGroup = c;
rightKerningGroup = d;
unicode = 0064;
},
{
glyphname = eth;
lastChange = "2018-09-25 17:15:10 +0000";
layers = (
{
layerId = "E232F0B7-B012-4077-9E12-ABC19F379844";
paths = (
{
closed = 1;
nodes = (
"597 634 LINE",
"565 713 LINE",
"475 678 LINE",
"413 720 OFFCURVE",
"335.667 741 OFFCURVE",
"243 741 CURVE SMOOTH",
"188.333 741 OFFCURVE",
"135 734.333 OFFCURVE",
"83 721 CURVE",
"102 600 LINE",
"144 614 OFFCURVE",
"189 621 OFFCURVE",
"237 621 CURVE SMOOTH",
"263.667 621 OFFCURVE",
"286.667 618.667 OFFCURVE",
"306 614 CURVE",
"119 542 LINE",
"151 463 LINE",
"404 560 LINE",
"442.667 518 OFFCURVE",
"462 456.667 OFFCURVE",
"462 376 CURVE SMOOTH",
"462 374 LINE",
"421.333 422 OFFCURVE",
"362.667 446 OFFCURVE",
"286 446 CURVE SMOOTH",
"238.667 446 OFFCURVE",
"195.667 436.667 OFFCURVE",
"157 418 CURVE SMOOTH",
"118.333 399.333 OFFCURVE",
"87.833 373 OFFCURVE",
"65.5 339 CURVE SMOOTH",
"43.167 305 OFFCURVE",
"32 265.667 OFFCURVE",
"32 221 CURVE SMOOTH",
"32 175 OFFCURVE",
"43.833 134.333 OFFCURVE",
"67.5 99 CURVE SMOOTH",
"91.167 63.667 OFFCURVE",
"123.5 36.333 OFFCURVE",
"164.5 17 CURVE SMOOTH",
"205.5 -2.333 OFFCURVE",
"251.333 -12 OFFCURVE",
"302 -12 CURVE SMOOTH",
"368 -12 OFFCURVE",
"425.167 2.167 OFFCURVE",
"473.5 30.5 CURVE SMOOTH",
"521.833 58.833 OFFCURVE",
"559 99.5 OFFCURVE",
"585 152.5 CURVE SMOOTH",
"611 205.5 OFFCURVE",
"624 268.667 OFFCURVE",
"624 342 CURVE SMOOTH",
"624 455.333 OFFCURVE",
"597.333 546 OFFCURVE",
"544 614 CURVE"
);
},
{
closed = 1;
nodes = (
"277.333 109 OFFCURVE",
"247.667 118.833 OFFCURVE",
"225 138.5 CURVE SMOOTH",
"202.333 158.167 OFFCURVE",
"191 184.333 OFFCURVE",
"191 217 CURVE SMOOTH",
"191 250.333 OFFCURVE",
"202.333 276.667 OFFCURVE",
"225 296 CURVE SMOOTH",
"247.667 315.333 OFFCURVE",
"278.333 325 OFFCURVE",
"317 325 CURVE SMOOTH",
"353 325 OFFCURVE",
"382.833 314.833 OFFCURVE",
"406.5 294.5 CURVE SMOOTH",
"430.167 274.167 OFFCURVE",
"442 248.333 OFFCURVE",
"442 217 CURVE SMOOTH",
"442 186.333 OFFCURVE",
"430.167 160.667 OFFCURVE",
"406.5 140 CURVE SMOOTH",
"382.833 119.333 OFFCURVE",
"352 109 OFFCURVE",
"314 109 CURVE SMOOTH"
);
}
);
width = 657;
}
);
leftKerningGroup = c;
rightKerningGroup = eth;
unicode = 00F0;
},
{
glyphname = e;
lastChange = "2018-09-25 17:15:10 +0000";
layers = (
{
layerId = "E232F0B7-B012-4077-9E12-ABC19F379844";
paths = (
{
closed = 1;
nodes = (
"599 323 OFFCURVE",
"586.833 372.167 OFFCURVE",
"562.5 414.5 CURVE SMOOTH",
"538.167 456.833 OFFCURVE",
"504.667 489.333 OFFCURVE",
"462 512 CURVE SMOOTH",
"419.333 534.667 OFFCURVE",
"371.667 546 OFFCURVE",
"319 546 CURVE SMOOTH",
"265 546 OFFCURVE",
"216.167 534.167 OFFCURVE",
"172.5 510.5 CURVE SMOOTH",
"128.833 486.833 OFFCURVE",
"94.5 453.833 OFFCURVE",
"69.5 411.5 CURVE SMOOTH",
"44.5 369.167 OFFCURVE",
"32 321.667 OFFCURVE",
"32 269 CURVE SMOOTH",
"32 215.667 OFFCURVE",
"44.667 168 OFFCURVE",
"70 126 CURVE SMOOTH",
"95.333 84 OFFCURVE",
"131.333 51.167 OFFCURVE",
"178 27.5 CURVE SMOOTH",
"224.667 3.833 OFFCURVE",
"278.333 -8 OFFCURVE",
"339 -8 CURVE SMOOTH",
"436.333 -8 OFFCURVE",
"510.333 21 OFFCURVE",
"561 79 CURVE",
"478 169 LINE",
"459.333 151 OFFCURVE",
"439.167 137.833 OFFCURVE",
"417.5 129.5 CURVE SMOOTH",
"395.833 121.167 OFFCURVE",
"371 117 OFFCURVE",
"343 117 CURVE SMOOTH",
"302.333 117 OFFCURVE",
"268.333 126.667 OFFCURVE",
"241 146 CURVE SMOOTH",
"213.667 165.333 OFFCURVE",
"196.333 191.667 OFFCURVE",
"189 225 CURVE",
"596 225 LINE",
"598 251 OFFCURVE",
"599 265 OFFCURVE",
"599 267 CURVE SMOOTH"
);
},
{
closed = 1;
nodes = (
"354.667 428 OFFCURVE",
"384 417.833 OFFCURVE",
"408 397.5 CURVE SMOOTH",
"432 377.167 OFFCURVE",
"446.667 350 OFFCURVE",
"452 316 CURVE",
"187 316 LINE",
"192.333 350.667 OFFCURVE",
"207 378 OFFCURVE",
"231 398 CURVE SMOOTH",
"255 418 OFFCURVE",
"284.667 428 OFFCURVE",
"320 428 CURVE SMOOTH"
);
}
);
width = 631;
}
);
leftKerningGroup = c;
rightKerningGroup = ae;
unicode = 0065;
},
{
glyphname = eogonek;
lastChange = "2018-09-25 17:15:10 +0000";
layers = (
{
layerId = "E232F0B7-B012-4077-9E12-ABC19F379844";
paths = (
{
closed = 1;
nodes = (
"599 323 OFFCURVE",
"586.833 372.167 OFFCURVE",
"562.5 414.5 CURVE SMOOTH",
"538.167 456.833 OFFCURVE",
"504.667 489.333 OFFCURVE",
"462 512 CURVE SMOOTH",
"419.333 534.667 OFFCURVE",
"371.667 546 OFFCURVE",
"319 546 CURVE SMOOTH",
"265 546 OFFCURVE",
"216.167 534.167 OFFCURVE",
"172.5 510.5 CURVE SMOOTH",
"128.833 486.833 OFFCURVE",
"94.5 453.833 OFFCURVE",
"69.5 411.5 CURVE SMOOTH",
"44.5 369.167 OFFCURVE",
"32 321.667 OFFCURVE",
"32 269 CURVE SMOOTH",
"32 215.667 OFFCURVE",
"44.667 168 OFFCURVE",
"70 126 CURVE SMOOTH",
"95.333 84 OFFCURVE",
"131.333 51.167 OFFCURVE",
"178 27.5 CURVE SMOOTH",
"224.667 3.833 OFFCURVE",
"278.333 -8 OFFCURVE",
"339 -8 CURVE SMOOTH",
"348.333 -8 OFFCURVE",
"355.333 -7.667 OFFCURVE",
"360 -7 CURVE",
"344 -23 OFFCURVE",
"331.833 -40.5 OFFCURVE",
"323.5 -59.5 CURVE SMOOTH",
"315.167 -78.5 OFFCURVE",
"311 -97.333 OFFCURVE",
"311 -116 CURVE SMOOTH",
"311 -151.333 OFFCURVE",
"323.333 -179.5 OFFCURVE",
"348 -200.5 CURVE SMOOTH",
"372.667 -221.5 OFFCURVE",
"406.333 -232 OFFCURVE",
"449 -232 CURVE SMOOTH",
"467 -232 OFFCURVE",
"485.167 -229.833 OFFCURVE",
"503.5 -225.5 CURVE SMOOTH",
"521.833 -221.167 OFFCURVE",
"537.333 -215.667 OFFCURVE",
"550 -209 CURVE",
"527 -138 LINE",
"509 -148 OFFCURVE",
"489.333 -153 OFFCURVE",
"468 -153 CURVE SMOOTH",
"450 -153 OFFCURVE",
"435.833 -148.5 OFFCURVE",
"425.5 -139.5 CURVE SMOOTH",
"415.167 -130.5 OFFCURVE",
"410 -118 OFFCURVE",
"410 -102 CURVE SMOOTH",
"410 -81.333 OFFCURVE",
"418 -59.667 OFFCURVE",
"434 -37 CURVE SMOOTH",
"450 -14.333 OFFCURVE",
"479 12.333 OFFCURVE",
"521 43 CURVE SMOOTH",
"535 53 OFFCURVE",
"548.667 65 OFFCURVE",
"562 79 CURVE",
"478 169 LINE",
"459.333 151 OFFCURVE",
"439.167 137.833 OFFCURVE",
"417.5 129.5 CURVE SMOOTH",
"395.833 121.167 OFFCURVE",
"371 117 OFFCURVE",
"343 117 CURVE SMOOTH",
"302.333 117 OFFCURVE",
"268.333 126.667 OFFCURVE",
"241 146 CURVE SMOOTH",
"213.667 165.333 OFFCURVE",
"196.333 191.667 OFFCURVE",
"189 225 CURVE",
"596 225 LINE",
"598 251 OFFCURVE",
"599 265 OFFCURVE",
"599 267 CURVE SMOOTH"
);
},
{
closed = 1;
nodes = (
"354.667 428 OFFCURVE",
"384 417.833 OFFCURVE",
"408 397.5 CURVE SMOOTH",
"432 377.167 OFFCURVE",
"446.667 350 OFFCURVE",
"452 316 CURVE",
"187 316 LINE",
"192.333 350.667 OFFCURVE",
"207 378 OFFCURVE",
"231 398 CURVE SMOOTH",
"255 418 OFFCURVE",
"284.667 428 OFFCURVE",
"320 428 CURVE SMOOTH"
);
}
);
width = 631;
}
);
leftKerningGroup = c;
rightKerningGroup = ae;
unicode = 0119;
},
{
glyphname = f;
lastChange = "2018-09-25 17:15:10 +0000";
layers = (
{
layerId = "E232F0B7-B012-4077-9E12-ABC19F379844";
paths = (
{
closed = 1;
nodes = (
"243 601 OFFCURVE",
"266.667 627 OFFCURVE",
"314 627 CURVE SMOOTH",
"338 627 OFFCURVE",
"359 620.667 OFFCURVE",
"377 608 CURVE",
"418 721 LINE",
"404 730.333 OFFCURVE",
"386.5 737.5 OFFCURVE",
"365.5 742.5 CURVE SMOOTH",
"344.5 747.5 OFFCURVE",
"322.333 750 OFFCURVE",
"299 750 CURVE SMOOTH",
"233 750 OFFCURVE",
"181.833 732 OFFCURVE",
"145.5 696 CURVE SMOOTH",
"109.167 660 OFFCURVE",
"91 611.333 OFFCURVE",
"91 550 CURVE SMOOTH",
"91 526 LINE",
"8 526 LINE",
"8 406 LINE",
"91 406 LINE",
"91 0 LINE",
"247 0 LINE",
"247 406 LINE",
"381 406 LINE",
"381 526 LINE",
"243 526 LINE",
"243 549 LINE SMOOTH"
);
}
);
width = 387;
}
);
rightKerningGroup = f;
unicode = 0066;
},
{
glyphname = g;
lastChange = "2018-09-25 17:15:10 +0000";
layers = (
{
layerId = "E232F0B7-B012-4077-9E12-ABC19F379844";
paths = (
{
closed = 1;
nodes = (
"479 469 LINE",
"438.333 520.333 OFFCURVE",
"379 546 OFFCURVE",
"301 546 CURVE SMOOTH",
"251.667 546 OFFCURVE",
"206.5 535.167 OFFCURVE",
"165.5 513.5 CURVE SMOOTH",
"124.5 491.833 OFFCURVE",
"92 461.333 OFFCURVE",
"68 422 CURVE SMOOTH",
"44 382.667 OFFCURVE",
"32 337.333 OFFCURVE",
"32 286 CURVE SMOOTH",
"32 234.667 OFFCURVE",
"44 189.333 OFFCURVE",
"68 150 CURVE SMOOTH",
"92 110.667 OFFCURVE",
"124.5 80.167 OFFCURVE",
"165.5 58.5 CURVE SMOOTH",
"206.5 36.833 OFFCURVE",
"251.667 26 OFFCURVE",
"301 26 CURVE SMOOTH",
"373.667 26 OFFCURVE",
"430.333 48.333 OFFCURVE",
"471 93 CURVE",
"471 70 LINE SMOOTH",
"471 20.667 OFFCURVE",
"458.167 -16.167 OFFCURVE",
"432.5 -40.5 CURVE SMOOTH",
"406.833 -64.833 OFFCURVE",
"367 -77 OFFCURVE",
"313 -77 CURVE SMOOTH",
"278.333 -77 OFFCURVE",
"243.667 -71.5 OFFCURVE",
"209 -60.5 CURVE SMOOTH",
"174.333 -49.5 OFFCURVE",
"145.667 -34.667 OFFCURVE",
"123 -16 CURVE",
"61 -128 LINE",
"91.667 -152 OFFCURVE",
"130.333 -170.333 OFFCURVE",
"177 -183 CURVE SMOOTH",
"223.667 -195.667 OFFCURVE",
"273 -202 OFFCURVE",
"325 -202 CURVE SMOOTH",
"423.667 -202 OFFCURVE",
"498.667 -178 OFFCURVE",
"550 -130 CURVE SMOOTH",
"601.333 -82 OFFCURVE",
"627 -8.667 OFFCURVE",
"627 90 CURVE SMOOTH",
"627 538 LINE",
"479 538 LINE"
);
},
{
closed = 1;
nodes = (
"290.667 154 OFFCURVE",
"256.667 166.167 OFFCURVE",
"230 190.5 CURVE SMOOTH",
"203.333 214.833 OFFCURVE",
"190 246.667 OFFCURVE",
"190 286 CURVE SMOOTH",
"190 325.333 OFFCURVE",
"203.333 357.167 OFFCURVE",
"230 381.5 CURVE SMOOTH",
"256.667 405.833 OFFCURVE",
"290.667 418 OFFCURVE",
"332 418 CURVE SMOOTH",
"373.333 418 OFFCURVE",
"407.167 405.833 OFFCURVE",
"433.5 381.5 CURVE SMOOTH",
"459.833 357.167 OFFCURVE",
"473 325.333 OFFCURVE",
"473 286 CURVE SMOOTH",
"473 246.667 OFFCURVE",
"459.833 214.833 OFFCURVE",
"433.5 190.5 CURVE SMOOTH",
"407.167 166.167 OFFCURVE",
"373.333 154 OFFCURVE",
"332 154 CURVE SMOOTH"
);
}
);
width = 700;
}
);
leftKerningGroup = c;
rightKerningGroup = Lj;
unicode = 0067;
},
{
glyphname = gstroke;
lastChange = "2018-09-25 17:15:10 +0000";
layers = (
{
layerId = "E232F0B7-B012-4077-9E12-ABC19F379844";
paths = (
{
closed = 1;
nodes = (
"624 39 LINE",
"626 55 OFFCURVE",
"627 72 OFFCURVE",
"627 90 CURVE SMOOTH",
"627 538 LINE",
"479 538 LINE",
"479 471 LINE",
"458.333 495.667 OFFCURVE",
"432.333 514.167 OFFCURVE",
"401 526.5 CURVE SMOOTH",
"369.667 538.833 OFFCURVE",
"335 545 OFFCURVE",
"297 545 CURVE SMOOTH",
"245.667 545 OFFCURVE",
"200 534.833 OFFCURVE",
"160 514.5 CURVE SMOOTH",
"120 494.167 OFFCURVE",
"88.667 466 OFFCURVE",
"66 430 CURVE SMOOTH",
"43.333 394 OFFCURVE",
"32 352.667 OFFCURVE",
"32 306 CURVE SMOOTH",
"32 259.333 OFFCURVE",
"43.333 217.667 OFFCURVE",
"66 181 CURVE SMOOTH",
"88.667 144.333 OFFCURVE",
"120 115.833 OFFCURVE",
"160 95.5 CURVE SMOOTH",
"200 75.167 OFFCURVE",
"245.667 65 OFFCURVE",
"297 65 CURVE SMOOTH",
"371.667 65 OFFCURVE",
"429.667 86.667 OFFCURVE",
"471 130 CURVE",
"471 66 LINE SMOOTH",
"471 53.333 OFFCURVE",
"470.667 44 OFFCURVE",
"470 38 CURVE",
"273 38 LINE",
"273 -38 LINE",
"439 -38 LINE",
"413 -66.667 OFFCURVE",
"371.333 -81 OFFCURVE",
"314 -81 CURVE SMOOTH",
"278.667 -81 OFFCURVE",
"243.667 -75.5 OFFCURVE",
"209 -64.5 CURVE SMOOTH",
"174.333 -53.5 OFFCURVE",
"145.667 -38.667 OFFCURVE",
"123 -20 CURVE",
"61 -128 LINE",
"91.667 -151.333 OFFCURVE",
"130.167 -169.5 OFFCURVE",
"176.5 -182.5 CURVE SMOOTH",
"222.833 -195.5 OFFCURVE",
"271.667 -202 OFFCURVE",
"323 -202 CURVE SMOOTH",
"474.333 -202 OFFCURVE",
"569.333 -147.333 OFFCURVE",
"608 -38 CURVE",
"691 -38 LINE",
"691 39 LINE"
);
},
{
closed = 1;
nodes = (
"290 181 OFFCURVE",
"255.833 192.333 OFFCURVE",
"229.5 215 CURVE SMOOTH",
"203.167 237.667 OFFCURVE",
"190 268 OFFCURVE",
"190 306 CURVE SMOOTH",
"190 343.333 OFFCURVE",
"203.167 373.333 OFFCURVE",
"229.5 396 CURVE SMOOTH",
"255.833 418.667 OFFCURVE",
"290 430 OFFCURVE",
"332 430 CURVE SMOOTH",
"374 430 OFFCURVE",
"408 418.667 OFFCURVE",
"434 396 CURVE SMOOTH",
"460 373.333 OFFCURVE",
"473 343.333 OFFCURVE",
"473 306 CURVE SMOOTH",
"473 268 OFFCURVE",
"460 237.667 OFFCURVE",
"434 215 CURVE SMOOTH",
"408 192.333 OFFCURVE",
"374 181 OFFCURVE",
"332 181 CURVE SMOOTH"
);
}
);
width = 711;
}
);
leftKerningGroup = c;
note = uni01E5;
unicode = 01E5;
},
{
glyphname = h;
lastChange = "2018-09-25 17:15:10 +0000";
layers = (
{
layerId = "E232F0B7-B012-4077-9E12-ABC19F379844";
paths = (
{
closed = 1;
nodes = (
"364.333 546 OFFCURVE",
"332.333 540.5 OFFCURVE",
"303 529.5 CURVE SMOOTH",
"273.667 518.5 OFFCURVE",
"248.667 502.667 OFFCURVE",
"228 482 CURVE",
"228 742 LINE",
"72 742 LINE",
"72 0 LINE",
"228 0 LINE",
"228 266 LINE SMOOTH",
"228 314 OFFCURVE",
"239.667 350.167 OFFCURVE",
"263 374.5 CURVE SMOOTH",
"286.333 398.833 OFFCURVE",
"317.667 411 OFFCURVE",
"357 411 CURVE SMOOTH",
"392.333 411 OFFCURVE",
"419.333 400.5 OFFCURVE",
"438 379.5 CURVE SMOOTH",
"456.667 358.5 OFFCURVE",
"466 326.667 OFFCURVE",
"466 284 CURVE SMOOTH",
"466 0 LINE",
"622 0 LINE",
"622 308 LINE SMOOTH",
"622 386.667 OFFCURVE",
"601.5 446 OFFCURVE",
"560.5 486 CURVE SMOOTH",
"519.5 526 OFFCURVE",
"465.667 546 OFFCURVE",
"399 546 CURVE SMOOTH"
);
}
);
width = 691;
}
);
leftKerningGroup = b;
rightKerningGroup = a;
unicode = 0068;
},
{
glyphname = idotless;
lastChange = "2018-09-25 17:15:10 +0000";
layers = (
{
layerId = "E232F0B7-B012-4077-9E12-ABC19F379844";
paths = (
{
closed = 1;
nodes = (
"228 0 LINE",
"228 538 LINE",
"72 538 LINE",
"72 0 LINE"
);
}
);
width = 301;
}
);
leftKerningGroup = i;
note = dotlessi;
rightKerningGroup = Lj;
unicode = 0131;
},
{
glyphname = jdotless;
lastChange = "2018-09-25 17:15:10 +0000";
layers = (
{
layerId = "E232F0B7-B012-4077-9E12-ABC19F379844";
paths = (
{
closed = 1;
nodes = (
"96 -202 OFFCURVE",
"145.833 -183.833 OFFCURVE",
"181.5 -147.5 CURVE SMOOTH",
"217.167 -111.167 OFFCURVE",
"235 -61.667 OFFCURVE",
"235 1 CURVE SMOOTH",
"235 538 LINE",
"79 538 LINE",
"79 0 LINE SMOOTH",
"79 -26 OFFCURVE",
"73.333 -45.5 OFFCURVE",
"62 -58.5 CURVE SMOOTH",
"50.667 -71.5 OFFCURVE",
"35 -78 OFFCURVE",
"15 -78 CURVE SMOOTH",
"-11 -78 OFFCURVE",
"-33 -71.667 OFFCURVE",
"-51 -59 CURVE",
"-93 -172 LINE",
"-64.333 -192 OFFCURVE",
"-22.667 -202 OFFCURVE",
"32 -202 CURVE SMOOTH"
);
}
);
width = 307;
}
);
leftKerningGroup = j;
note = uni0237;
rightKerningGroup = Lj;
unicode = 0237;
},
{
glyphname = k;
lastChange = "2018-09-25 17:15:10 +0000";
layers = (
{
layerId = "E232F0B7-B012-4077-9E12-ABC19F379844";
paths = (
{
closed = 1;
nodes = (
"662 0 LINE",
"418 310 LINE",
"642 538 LINE",
"456 538 LINE",
"228 322 LINE",
"228 742 LINE",
"72 742 LINE",
"72 0 LINE",
"228 0 LINE",
"228 137 LINE",
"303 211 LINE",
"473 0 LINE"
);
}
);
width = 660;
}
);
leftKerningGroup = b;
rightKerningGroup = k;
unicode = 006B;
},
{
glyphname = kgreenlandic;
lastChange = "2018-09-25 17:15:10 +0000";
layers = (
{
layerId = "E232F0B7-B012-4077-9E12-ABC19F379844";
paths = (
{
closed = 1;
nodes = (
"662 0 LINE",
"418 310 LINE",
"642 538 LINE",
"456 538 LINE",
"228 322 LINE",
"228 538 LINE",
"72 538 LINE",
"72 0 LINE",
"228 0 LINE",
"228 137 LINE",
"303 211 LINE",
"473 0 LINE"
);
}
);
width = 645;
}
);
leftKerningGroup = i;
rightKerningGroup = k;
unicode = 0138;
},
{
glyphname = l;
lastChange = "2018-09-25 17:15:10 +0000";
layers = (
{
layerId = "E232F0B7-B012-4077-9E12-ABC19F379844";
paths = (
{
closed = 1;
nodes = (
"228 0 LINE",
"228 742 LINE",
"72 742 LINE",
"72 0 LINE"
);
}
);
width = 301;
}
);
leftKerningGroup = b;
rightKerningGroup = d;
unicode = 006C;
},
{
glyphname = m;
lastChange = "2018-09-25 17:15:10 +0000";
layers = (
{
layerId = "E232F0B7-B012-4077-9E12-ABC19F379844";
paths = (
{
closed = 1;
nodes = (
"721 546 OFFCURVE",
"684.167 538.333 OFFCURVE",
"650.5 523 CURVE SMOOTH",
"616.833 507.667 OFFCURVE",
"589 486 OFFCURVE",
"567 458 CURVE",
"548.333 486.667 OFFCURVE",
"523.667 508.5 OFFCURVE",
"493 523.5 CURVE SMOOTH",
"462.333 538.5 OFFCURVE",
"428 546 OFFCURVE",
"390 546 CURVE SMOOTH",
"355.333 546 OFFCURVE",
"323.5 540 OFFCURVE",
"294.5 528 CURVE SMOOTH",
"265.5 516 OFFCURVE",
"241 498.667 OFFCURVE",
"221 476 CURVE",
"221 538 LINE",
"72 538 LINE",
"72 0 LINE",
"228 0 LINE",
"228 270 LINE SMOOTH",
"228 316.667 OFFCURVE",
"238.667 351.833 OFFCURVE",
"260 375.5 CURVE SMOOTH",
"281.333 399.167 OFFCURVE",
"310 411 OFFCURVE",
"346 411 CURVE SMOOTH",
"414 411 OFFCURVE",
"448 368.667 OFFCURVE",
"448 284 CURVE SMOOTH",
"448 0 LINE",
"604 0 LINE",
"604 270 LINE SMOOTH",
"604 316.667 OFFCURVE",
"614.667 351.833 OFFCURVE",
"636 375.5 CURVE SMOOTH",
"657.333 399.167 OFFCURVE",
"686.333 411 OFFCURVE",
"723 411 CURVE SMOOTH",
"755.667 411 OFFCURVE",
"780.833 400.5 OFFCURVE",
"798.5 379.5 CURVE SMOOTH",
"816.167 358.5 OFFCURVE",
"825 326.667 OFFCURVE",
"825 284 CURVE SMOOTH",
"825 0 LINE",
"981 0 LINE",
"981 308 LINE SMOOTH",
"981 387.333 OFFCURVE",
"961.167 446.833 OFFCURVE",
"921.5 486.5 CURVE SMOOTH",
"881.833 526.167 OFFCURVE",
"828.333 546 OFFCURVE",
"761 546 CURVE SMOOTH"
);
}
);
width = 1049;
}
);
leftKerningGroup = i;
rightKerningGroup = a;
unicode = 006D;
},
{
glyphname = n;
lastChange = "2018-09-25 17:15:10 +0000";
layers = (
{
layerId = "E232F0B7-B012-4077-9E12-ABC19F379844";
paths = (
{
closed = 1;
nodes = (
"362.333 546 OFFCURVE",
"328.667 539.833 OFFCURVE",
"298 527.5 CURVE SMOOTH",
"267.333 515.167 OFFCURVE",
"241.667 497.667 OFFCURVE",
"221 475 CURVE",
"221 538 LINE",
"72 538 LINE",
"72 0 LINE",
"228 0 LINE",
"228 266 LINE SMOOTH",
"228 314 OFFCURVE",
"239.667 350.167 OFFCURVE",
"263 374.5 CURVE SMOOTH",
"286.333 398.833 OFFCURVE",
"317.667 411 OFFCURVE",
"357 411 CURVE SMOOTH",
"392.333 411 OFFCURVE",
"419.333 400.5 OFFCURVE",
"438 379.5 CURVE SMOOTH",
"456.667 358.5 OFFCURVE",
"466 326.667 OFFCURVE",
"466 284 CURVE SMOOTH",
"466 0 LINE",
"622 0 LINE",
"622 308 LINE SMOOTH",
"622 386.667 OFFCURVE",
"601.5 446 OFFCURVE",
"560.5 486 CURVE SMOOTH",
"519.5 526 OFFCURVE",
"465.667 546 OFFCURVE",
"399 546 CURVE SMOOTH"
);
}
);
width = 691;
}
);
leftKerningGroup = i;
rightKerningGroup = a;
unicode = 006E;
},
{
glyphname = eng;
lastChange = "2018-09-25 17:15:10 +0000";
layers = (
{
layerId = "E232F0B7-B012-4077-9E12-ABC19F379844";
paths = (
{
closed = 1;
nodes = (
"362.333 546 OFFCURVE",
"328.667 539.833 OFFCURVE",
"298 527.5 CURVE SMOOTH",
"267.333 515.167 OFFCURVE",
"241.667 497.667 OFFCURVE",
"221 475 CURVE",
"221 538 LINE",
"72 538 LINE",
"72 0 LINE",
"228 0 LINE",
"228 266 LINE SMOOTH",
"228 314 OFFCURVE",
"239.667 350.167 OFFCURVE",
"263 374.5 CURVE SMOOTH",
"286.333 398.833 OFFCURVE",
"317.667 411 OFFCURVE",
"357 411 CURVE SMOOTH",
"392.333 411 OFFCURVE",
"419.333 400.5 OFFCURVE",
"438 379.5 CURVE SMOOTH",
"456.667 358.5 OFFCURVE",
"466 326.667 OFFCURVE",
"466 284 CURVE SMOOTH",
"466 0 LINE SMOOTH",
"466 -26 OFFCURVE",
"460.5 -45.5 OFFCURVE",
"449.5 -58.5 CURVE SMOOTH",
"438.5 -71.5 OFFCURVE",
"422.667 -78 OFFCURVE",
"402 -78 CURVE SMOOTH",
"376 -78 OFFCURVE",
"354 -71.667 OFFCURVE",
"336 -59 CURVE",
"294 -172 LINE",
"323.333 -192 OFFCURVE",
"365.333 -202 OFFCURVE",
"420 -202 CURVE SMOOTH",
"484 -202 OFFCURVE",
"533.667 -183.833 OFFCURVE",
"569 -147.5 CURVE SMOOTH",
"604.333 -111.167 OFFCURVE",
"622 -61.667 OFFCURVE",
"622 1 CURVE SMOOTH",
"622 308 LINE SMOOTH",
"622 386.667 OFFCURVE",
"601.5 446 OFFCURVE",
"560.5 486 CURVE SMOOTH",
"519.5 526 OFFCURVE",
"465.667 546 OFFCURVE",
"399 546 CURVE SMOOTH"
);
}
);
width = 691;
}
);
leftKerningGroup = i;
rightKerningGroup = a;
unicode = 014B;
},
{
glyphname = o;
lastChange = "2018-09-25 17:15:10 +0000";
layers = (
{
layerId = "E232F0B7-B012-4077-9E12-ABC19F379844";
paths = (
{
closed = 1;
nodes = (
"384.667 -8 OFFCURVE",
"435.333 3.833 OFFCURVE",
"480 27.5 CURVE SMOOTH",
"524.667 51.167 OFFCURVE",
"559.667 84 OFFCURVE",
"585 126 CURVE SMOOTH",
"610.333 168 OFFCURVE",
"623 215.667 OFFCURVE",
"623 269 CURVE SMOOTH",
"623 322.333 OFFCURVE",
"610.333 370 OFFCURVE",
"585 412 CURVE SMOOTH",
"559.667 454 OFFCURVE",
"524.667 486.833 OFFCURVE",
"480 510.5 CURVE SMOOTH",
"435.333 534.167 OFFCURVE",
"384.667 546 OFFCURVE",
"328 546 CURVE SMOOTH",
"271.333 546 OFFCURVE",
"220.5 534.167 OFFCURVE",
"175.5 510.5 CURVE SMOOTH",
"130.5 486.833 OFFCURVE",
"95.333 454 OFFCURVE",
"70 412 CURVE SMOOTH",
"44.667 370 OFFCURVE",
"32 322.333 OFFCURVE",
"32 269 CURVE SMOOTH",
"32 215.667 OFFCURVE",
"44.667 168 OFFCURVE",
"70 126 CURVE SMOOTH",
"95.333 84 OFFCURVE",
"130.5 51.167 OFFCURVE",
"175.5 27.5 CURVE SMOOTH",
"220.5 3.833 OFFCURVE",
"271.333 -8 OFFCURVE",
"328 -8 CURVE SMOOTH"
);
},
{
closed = 1;
nodes = (
"288 120 OFFCURVE",
"255 133.5 OFFCURVE",
"229 160.5 CURVE SMOOTH",
"203 187.5 OFFCURVE",
"190 223.667 OFFCURVE",
"190 269 CURVE SMOOTH",
"190 314.333 OFFCURVE",
"203 350.5 OFFCURVE",
"229 377.5 CURVE SMOOTH",
"255 404.5 OFFCURVE",
"288 418 OFFCURVE",
"328 418 CURVE SMOOTH",
"368 418 OFFCURVE",
"400.833 404.5 OFFCURVE",
"426.5 377.5 CURVE SMOOTH",
"452.167 350.5 OFFCURVE",
"465 314.333 OFFCURVE",
"465 269 CURVE SMOOTH",
"465 223.667 OFFCURVE",
"452.167 187.5 OFFCURVE",
"426.5 160.5 CURVE SMOOTH",
"400.833 133.5 OFFCURVE",
"368 120 OFFCURVE",
"328 120 CURVE SMOOTH"
);
}
);
width = 655;
}
);
leftKerningGroup = c;
rightKerningGroup = b;
unicode = 006F;
},
{
glyphname = ohorn;
lastChange = "2018-09-25 17:15:10 +0000";
layers = (
{
layerId = "E232F0B7-B012-4077-9E12-ABC19F379844";
paths = (
{
closed = 1;
nodes = (
"564 479.667 OFFCURVE",
"582.667 497.167 OFFCURVE",
"596 519.5 CURVE SMOOTH",
"609.333 541.833 OFFCURVE",
"616 567.333 OFFCURVE",
"616 596 CURVE SMOOTH",
"616 632 OFFCURVE",
"604.667 665.333 OFFCURVE",
"582 696 CURVE",
"491 662 LINE",
"505 643.333 OFFCURVE",
"512 623.333 OFFCURVE",
"512 602 CURVE SMOOTH",
"512 582.667 OFFCURVE",
"506.5 567 OFFCURVE",
"495.5 555 CURVE SMOOTH",
"484.5 543 OFFCURVE",
"468.667 537 OFFCURVE",
"448 537 CURVE SMOOTH",
"438 537 OFFCURVE",
"421.667 538.333 OFFCURVE",
"399 541 CURVE SMOOTH",
"365.667 544.333 OFFCURVE",
"342.333 546 OFFCURVE",
"329 546 CURVE SMOOTH",
"272.333 546 OFFCURVE",
"221.5 534.167 OFFCURVE",
"176.5 510.5 CURVE SMOOTH",
"131.5 486.833 OFFCURVE",
"96.167 454 OFFCURVE",
"70.5 412 CURVE SMOOTH",
"44.833 370 OFFCURVE",
"32 322.333 OFFCURVE",
"32 269 CURVE SMOOTH",
"32 215.667 OFFCURVE",
"44.667 168 OFFCURVE",
"70 126 CURVE SMOOTH",
"95.333 84 OFFCURVE",
"130.5 51.167 OFFCURVE",
"175.5 27.5 CURVE SMOOTH",
"220.5 3.833 OFFCURVE",
"271.333 -8 OFFCURVE",
"328 -8 CURVE SMOOTH",
"384.667 -8 OFFCURVE",
"435.333 3.833 OFFCURVE",
"480 27.5 CURVE SMOOTH",
"524.667 51.167 OFFCURVE",
"559.667 84 OFFCURVE",
"585 126 CURVE SMOOTH",
"610.333 168 OFFCURVE",
"623 215.667 OFFCURVE",
"623 269 CURVE SMOOTH",
"623 309 OFFCURVE",
"615.833 345.833 OFFCURVE",
"601.5 379.5 CURVE SMOOTH",
"587.167 413.167 OFFCURVE",
"566.667 442.333 OFFCURVE",
"540 467 CURVE"
);
},
{
closed = 1;
nodes = (
"288 120 OFFCURVE",
"255 133.5 OFFCURVE",
"229 160.5 CURVE SMOOTH",
"203 187.5 OFFCURVE",
"190 223.667 OFFCURVE",
"190 269 CURVE SMOOTH",
"190 314.333 OFFCURVE",
"203 350.5 OFFCURVE",
"229 377.5 CURVE SMOOTH",
"255 404.5 OFFCURVE",
"288 418 OFFCURVE",
"328 418 CURVE SMOOTH",
"368 418 OFFCURVE",
"400.833 404.5 OFFCURVE",
"426.5 377.5 CURVE SMOOTH",
"452.167 350.5 OFFCURVE",
"465 314.333 OFFCURVE",
"465 269 CURVE SMOOTH",
"465 223.667 OFFCURVE",
"452 187.5 OFFCURVE",
"426 160.5 CURVE SMOOTH",
"400 133.5 OFFCURVE",
"367.333 120 OFFCURVE",
"328 120 CURVE SMOOTH"
);
}
);
width = 655;
}
);
leftKerningGroup = c;
rightKerningGroup = ohorn;
unicode = 01A1;
},
{
glyphname = oogonek;
lastChange = "2018-09-25 17:15:10 +0000";
layers = (
{
layerId = "E232F0B7-B012-4077-9E12-ABC19F379844";
paths = (
{
closed = 1;
nodes = (
"502 35.667 OFFCURVE",
"544.667 69.333 OFFCURVE",
"576 114 CURVE SMOOTH",
"607.333 158.667 OFFCURVE",
"623 210.333 OFFCURVE",
"623 269 CURVE SMOOTH",
"623 322.333 OFFCURVE",
"610.333 370 OFFCURVE",
"585 412 CURVE SMOOTH",
"559.667 454 OFFCURVE",
"524.667 486.833 OFFCURVE",
"480 510.5 CURVE SMOOTH",
"435.333 534.167 OFFCURVE",
"384.667 546 OFFCURVE",
"328 546 CURVE SMOOTH",
"271.333 546 OFFCURVE",
"220.5 534.167 OFFCURVE",
"175.5 510.5 CURVE SMOOTH",
"130.5 486.833 OFFCURVE",
"95.333 454 OFFCURVE",
"70 412 CURVE SMOOTH",
"44.667 370 OFFCURVE",
"32 322.333 OFFCURVE",
"32 269 CURVE SMOOTH",
"32 220.333 OFFCURVE",
"42.667 176.333 OFFCURVE",
"64 137 CURVE SMOOTH",
"85.333 97.667 OFFCURVE",
"115 65.667 OFFCURVE",
"153 41 CURVE SMOOTH",
"191 16.333 OFFCURVE",
"234.667 1 OFFCURVE",
"284 -5 CURVE",
"241.333 -37 OFFCURVE",
"220 -75.667 OFFCURVE",
"220 -121 CURVE SMOOTH",
"220 -154.333 OFFCURVE",
"232.167 -181.167 OFFCURVE",
"256.5 -201.5 CURVE SMOOTH",
"280.833 -221.833 OFFCURVE",
"314.667 -232 OFFCURVE",
"358 -232 CURVE SMOOTH",
"376 -232 OFFCURVE",
"394.167 -229.833 OFFCURVE",
"412.5 -225.5 CURVE SMOOTH",
"430.833 -221.167 OFFCURVE",
"446.333 -215.667 OFFCURVE",
"459 -209 CURVE",
"436 -138 LINE",
"418 -148 OFFCURVE",
"398 -153 OFFCURVE",
"376 -153 CURVE SMOOTH",
"358 -153 OFFCURVE",
"343.833 -148.667 OFFCURVE",
"333.5 -140 CURVE SMOOTH",
"323.167 -131.333 OFFCURVE",
"318 -120 OFFCURVE",
"318 -106 CURVE SMOOTH",
"318 -85.333 OFFCURVE",
"327.5 -65.167 OFFCURVE",
"346.5 -45.5 CURVE SMOOTH",
"365.5 -25.833 OFFCURVE",
"399.333 -6.333 OFFCURVE",
"448 13 CURVE SMOOTH"
);
},
{
closed = 1;
nodes = (
"190 314.333 OFFCURVE",
"203 350.5 OFFCURVE",
"229 377.5 CURVE SMOOTH",
"255 404.5 OFFCURVE",
"288 418 OFFCURVE",
"328 418 CURVE SMOOTH",
"368 418 OFFCURVE",
"400.833 404.5 OFFCURVE",
"426.5 377.5 CURVE SMOOTH",
"452.167 350.5 OFFCURVE",
"465 314.333 OFFCURVE",
"465 269 CURVE SMOOTH",
"465 223.667 OFFCURVE",
"452.167 187.5 OFFCURVE",
"426.5 160.5 CURVE SMOOTH",
"400.833 133.5 OFFCURVE",
"368 120 OFFCURVE",
"328 120 CURVE SMOOTH",
"288 120 OFFCURVE",
"255 133.5 OFFCURVE",
"229 160.5 CURVE SMOOTH",
"203 187.5 OFFCURVE",
"190 223.667 OFFCURVE",
"190 269 CURVE SMOOTH"
);
}
);
width = 655;
}
);
leftKerningGroup = c;
note = uni01EB;
rightKerningGroup = b;
unicode = 01EB;
},
{
glyphname = oe;
lastChange = "2018-09-25 17:15:10 +0000";
layers = (
{
layerId = "E232F0B7-B012-4077-9E12-ABC19F379844";
paths = (
{
closed = 1;
nodes = (
"1032 324 OFFCURVE",
"1019.667 373 OFFCURVE",
"995 415 CURVE SMOOTH",
"970.333 457 OFFCURVE",
"936.833 489.333 OFFCURVE",
"894.5 512 CURVE SMOOTH",
"852.167 534.667 OFFCURVE",
"804.667 546 OFFCURVE",
"752 546 CURVE SMOOTH",
"708 546 OFFCURVE",
"667.833 538 OFFCURVE",
"631.5 522 CURVE SMOOTH",
"595.167 506 OFFCURVE",
"565 483.333 OFFCURVE",
"541 454 CURVE",
"517 483.333 OFFCURVE",
"486.5 506 OFFCURVE",
"449.5 522 CURVE SMOOTH",
"412.5 538 OFFCURVE",
"371.333 546 OFFCURVE",
"326 546 CURVE SMOOTH",
"270 546 OFFCURVE",
"219.667 534.167 OFFCURVE",
"175 510.5 CURVE SMOOTH",
"130.333 486.833 OFFCURVE",
"95.333 454 OFFCURVE",
"70 412 CURVE SMOOTH",
"44.667 370 OFFCURVE",
"32 322.333 OFFCURVE",
"32 269 CURVE SMOOTH",
"32 215.667 OFFCURVE",
"44.667 168 OFFCURVE",
"70 126 CURVE SMOOTH",
"95.333 84 OFFCURVE",
"130.333 51.167 OFFCURVE",
"175 27.5 CURVE SMOOTH",
"219.667 3.833 OFFCURVE",
"270 -8 OFFCURVE",
"326 -8 CURVE SMOOTH",
"371.333 -8 OFFCURVE",
"412.333 0.167 OFFCURVE",
"449 16.5 CURVE SMOOTH",
"485.667 32.833 OFFCURVE",
"516.667 55.667 OFFCURVE",
"542 85 CURVE",
"567.333 55.667 OFFCURVE",
"599.5 32.833 OFFCURVE",
"638.5 16.5 CURVE SMOOTH",
"677.5 0.167 OFFCURVE",
"721.667 -8 OFFCURVE",
"771 -8 CURVE SMOOTH",
"818.333 -8 OFFCURVE",
"861 -0.667 OFFCURVE",
"899 14 CURVE SMOOTH",
"937 28.667 OFFCURVE",
"968.667 50.333 OFFCURVE",
"994 79 CURVE",
"910 169 LINE",
"890.667 151.667 OFFCURVE",
"870.167 138.667 OFFCURVE",
"848.5 130 CURVE SMOOTH",
"826.833 121.333 OFFCURVE",
"802.667 117 OFFCURVE",
"776 117 CURVE SMOOTH",
"734.667 117 OFFCURVE",
"700.333 126.5 OFFCURVE",
"673 145.5 CURVE SMOOTH",
"645.667 164.5 OFFCURVE",
"628.333 191 OFFCURVE",
"621 225 CURVE",
"1029 225 LINE",
"1031 238.333 OFFCURVE",
"1032 252.667 OFFCURVE",
"1032 268 CURVE SMOOTH"
);
},
{
closed = 1;
nodes = (
"787.333 428 OFFCURVE",
"816.667 417.833 OFFCURVE",
"840 397.5 CURVE SMOOTH",
"863.333 377.167 OFFCURVE",
"877.667 350 OFFCURVE",
"883 316 CURVE",
"619 316 LINE",
"624.333 350.667 OFFCURVE",
"639 378 OFFCURVE",
"663 398 CURVE SMOOTH",
"687 418 OFFCURVE",
"716.667 428 OFFCURVE",
"752 428 CURVE SMOOTH"
);
},
{
closed = 1;
nodes = (
"288 120 OFFCURVE",
"255 133.5 OFFCURVE",
"229 160.5 CURVE SMOOTH",
"203 187.5 OFFCURVE",
"190 223.667 OFFCURVE",
"190 269 CURVE SMOOTH",
"190 314.333 OFFCURVE",
"203 350.5 OFFCURVE",
"229 377.5 CURVE SMOOTH",
"255 404.5 OFFCURVE",
"288 418 OFFCURVE",
"328 418 CURVE SMOOTH",
"368 418 OFFCURVE",
"400.833 404.5 OFFCURVE",
"426.5 377.5 CURVE SMOOTH",
"452.167 350.5 OFFCURVE",
"465 314.333 OFFCURVE",
"465 269 CURVE SMOOTH",
"465 223.667 OFFCURVE",
"452.167 187.5 OFFCURVE",
"426.5 160.5 CURVE SMOOTH",
"400.833 133.5 OFFCURVE",
"368 120 OFFCURVE",
"328 120 CURVE SMOOTH"
);
}
);
width = 1064;
}
);
leftKerningGroup = c;
rightKerningGroup = ae;
unicode = 0153;
},
{
glyphname = p;
lastChange = "2018-09-25 17:15:10 +0000";
layers = (
{
layerId = "E232F0B7-B012-4077-9E12-ABC19F379844";
paths = (
{
closed = 1;
nodes = (
"316 546 OFFCURVE",
"259.667 522.667 OFFCURVE",
"221 476 CURVE",
"221 538 LINE",
"72 538 LINE",
"72 -194 LINE",
"228 -194 LINE",
"228 57 LINE",
"267.333 13.667 OFFCURVE",
"321.333 -8 OFFCURVE",
"390 -8 CURVE SMOOTH",
"440 -8 OFFCURVE",
"485.5 3.5 OFFCURVE",
"526.5 26.5 CURVE SMOOTH",
"567.5 49.5 OFFCURVE",
"599.667 81.833 OFFCURVE",
"623 123.5 CURVE SMOOTH",
"646.333 165.167 OFFCURVE",
"658 213.667 OFFCURVE",
"658 269 CURVE SMOOTH",
"658 324.333 OFFCURVE",
"646.333 372.833 OFFCURVE",
"623 414.5 CURVE SMOOTH",
"599.667 456.167 OFFCURVE",
"567.5 488.5 OFFCURVE",
"526.5 511.5 CURVE SMOOTH",
"485.5 534.5 OFFCURVE",
"440 546 OFFCURVE",
"390 546 CURVE SMOOTH"
);
},
{
closed = 1;
nodes = (
"323 120 OFFCURVE",
"290.167 133.5 OFFCURVE",
"264.5 160.5 CURVE SMOOTH",
"238.833 187.5 OFFCURVE",
"226 223.667 OFFCURVE",
"226 269 CURVE SMOOTH",
"226 314.333 OFFCURVE",
"238.833 350.5 OFFCURVE",
"264.5 377.5 CURVE SMOOTH",
"290.167 404.5 OFFCURVE",
"323 418 OFFCURVE",
"363 418 CURVE SMOOTH",
"403 418 OFFCURVE",
"435.833 404.5 OFFCURVE",
"461.5 377.5 CURVE SMOOTH",
"487.167 350.5 OFFCURVE",
"500 314.333 OFFCURVE",
"500 269 CURVE SMOOTH",
"500 223.667 OFFCURVE",
"487.167 187.5 OFFCURVE",
"461.5 160.5 CURVE SMOOTH",
"435.833 133.5 OFFCURVE",
"403 120 OFFCURVE",
"363 120 CURVE SMOOTH"
);
}
);
width = 690;
}
);
leftKerningGroup = i;
rightKerningGroup = b;
unicode = 0070;
},
{
glyphname = thorn;
lastChange = "2018-09-25 17:15:10 +0000";
layers = (
{
layerId = "E232F0B7-B012-4077-9E12-ABC19F379844";
paths = (
{
closed = 1;
nodes = (
"320.667 546 OFFCURVE",
"266.667 525.333 OFFCURVE",
"228 484 CURVE",
"228 742 LINE",
"72 742 LINE",
"72 -194 LINE",
"228 -194 LINE",
"228 57 LINE",
"267.333 13.667 OFFCURVE",
"321.333 -8 OFFCURVE",
"390 -8 CURVE SMOOTH",
"440 -8 OFFCURVE",
"485.5 3.5 OFFCURVE",
"526.5 26.5 CURVE SMOOTH",
"567.5 49.5 OFFCURVE",
"599.667 81.833 OFFCURVE",
"623 123.5 CURVE SMOOTH",
"646.333 165.167 OFFCURVE",
"658 213.667 OFFCURVE",
"658 269 CURVE SMOOTH",
"658 324.333 OFFCURVE",
"646.333 372.833 OFFCURVE",
"623 414.5 CURVE SMOOTH",
"599.667 456.167 OFFCURVE",
"567.5 488.5 OFFCURVE",
"526.5 511.5 CURVE SMOOTH",
"485.5 534.5 OFFCURVE",
"440 546 OFFCURVE",
"390 546 CURVE SMOOTH"
);
},
{
closed = 1;
nodes = (
"323 120 OFFCURVE",
"290.167 133.5 OFFCURVE",
"264.5 160.5 CURVE SMOOTH",
"238.833 187.5 OFFCURVE",
"226 223.667 OFFCURVE",
"226 269 CURVE SMOOTH",
"226 314.333 OFFCURVE",
"238.833 350.5 OFFCURVE",
"264.5 377.5 CURVE SMOOTH",
"290.167 404.5 OFFCURVE",
"323 418 OFFCURVE",
"363 418 CURVE SMOOTH",
"403 418 OFFCURVE",
"435.833 404.5 OFFCURVE",
"461.5 377.5 CURVE SMOOTH",
"487.167 350.5 OFFCURVE",
"500 314.333 OFFCURVE",
"500 269 CURVE SMOOTH",
"500 223.667 OFFCURVE",
"487.167 187.5 OFFCURVE",
"461.5 160.5 CURVE SMOOTH",
"435.833 133.5 OFFCURVE",
"403 120 OFFCURVE",
"363 120 CURVE SMOOTH"
);
}
);
width = 690;
}
);
leftKerningGroup = b;
rightKerningGroup = b;
unicode = 00FE;
},
{
glyphname = q;
lastChange = "2018-09-25 17:15:10 +0000";
layers = (
{
layerId = "E232F0B7-B012-4077-9E12-ABC19F379844";
paths = (
{
closed = 1;
nodes = (
"469 476 LINE",
"430.333 522.667 OFFCURVE",
"374.333 546 OFFCURVE",
"301 546 CURVE SMOOTH",
"250.333 546 OFFCURVE",
"204.5 534.667 OFFCURVE",
"163.5 512 CURVE SMOOTH",
"122.5 489.333 OFFCURVE",
"90.333 457 OFFCURVE",
"67 415 CURVE SMOOTH",
"43.667 373 OFFCURVE",
"32 324.333 OFFCURVE",
"32 269 CURVE SMOOTH",
"32 213.667 OFFCURVE",
"43.667 165 OFFCURVE",
"67 123 CURVE SMOOTH",
"90.333 81 OFFCURVE",
"122.5 48.667 OFFCURVE",
"163.5 26 CURVE SMOOTH",
"204.5 3.333 OFFCURVE",
"250.333 -8 OFFCURVE",
"301 -8 CURVE SMOOTH",
"369.667 -8 OFFCURVE",
"423.333 13.667 OFFCURVE",
"462 57 CURVE",
"462 -194 LINE",
"618 -194 LINE",
"618 538 LINE",
"469 538 LINE"
);
},
{
closed = 1;
nodes = (
"288 120 OFFCURVE",
"255 133.5 OFFCURVE",
"229 160.5 CURVE SMOOTH",
"203 187.5 OFFCURVE",
"190 223.667 OFFCURVE",
"190 269 CURVE SMOOTH",
"190 314.333 OFFCURVE",
"203 350.5 OFFCURVE",
"229 377.5 CURVE SMOOTH",
"255 404.5 OFFCURVE",
"288 418 OFFCURVE",
"328 418 CURVE SMOOTH",
"367.333 418 OFFCURVE",
"400 404.5 OFFCURVE",
"426 377.5 CURVE SMOOTH",
"452 350.5 OFFCURVE",
"465 314.333 OFFCURVE",
"465 269 CURVE SMOOTH",
"465 223.667 OFFCURVE",
"452 187.5 OFFCURVE",
"426 160.5 CURVE SMOOTH",
"400 133.5 OFFCURVE",
"367.333 120 OFFCURVE",
"328 120 CURVE SMOOTH"
);
}
);
width = 690;
}
);
leftKerningGroup = c;
rightKerningGroup = Lj;
unicode = 0071;
},
{
glyphname = r;
lastChange = "2018-09-25 17:15:10 +0000";
layers = (
{
layerId = "E232F0B7-B012-4077-9E12-ABC19F379844";
paths = (
{
closed = 1;
nodes = (
"221 538 LINE",
"72 538 LINE",
"72 0 LINE",
"228 0 LINE",
"228 254 LINE SMOOTH",
"228 304 OFFCURVE",
"240.667 341.5 OFFCURVE",
"266 366.5 CURVE SMOOTH",
"291.333 391.5 OFFCURVE",
"326.333 404 OFFCURVE",
"371 404 CURVE SMOOTH",
"377 404 OFFCURVE",
"388.667 403.333 OFFCURVE",
"406 402 CURVE",
"406 546 LINE",
"364.667 546 OFFCURVE",
"328.167 539.333 OFFCURVE",
"296.5 526 CURVE SMOOTH",
"264.833 512.667 OFFCURVE",
"239.667 493 OFFCURVE",
"221 467 CURVE"
);
}
);
width = 431;
}
);
leftKerningGroup = i;
rightKerningGroup = r;
unicode = 0072;
},
{
glyphname = s;
lastChange = "2018-09-25 17:15:10 +0000";
layers = (
{
layerId = "E232F0B7-B012-4077-9E12-ABC19F379844";
paths = (
{
closed = 1;
nodes = (
"305.667 -8 OFFCURVE",
"351.167 -0.833 OFFCURVE",
"389.5 13.5 CURVE SMOOTH",
"427.833 27.833 OFFCURVE",
"457 48 OFFCURVE",
"477 74 CURVE SMOOTH",
"497 100 OFFCURVE",
"507 129.667 OFFCURVE",
"507 163 CURVE SMOOTH",
"507 202.333 OFFCURVE",
"496.667 233 OFFCURVE",
"476 255 CURVE SMOOTH",
"455.333 277 OFFCURVE",
"431 292.167 OFFCURVE",
"403 300.5 CURVE SMOOTH",
"375 308.833 OFFCURVE",
"339 316.667 OFFCURVE",
"295 324 CURVE SMOOTH",
"255.667 330 OFFCURVE",
"227 336.333 OFFCURVE",
"209 343 CURVE SMOOTH",
"191 349.667 OFFCURVE",
"182 361.333 OFFCURVE",
"182 378 CURVE SMOOTH",
"182 392.667 OFFCURVE",
"190.333 404.667 OFFCURVE",
"207 414 CURVE SMOOTH",
"223.667 423.333 OFFCURVE",
"248.667 428 OFFCURVE",
"282 428 CURVE SMOOTH",
"338 428 OFFCURVE",
"389.667 414.667 OFFCURVE",
"437 388 CURVE",
"489 499 LINE",
"464.333 513.667 OFFCURVE",
"433.167 525.167 OFFCURVE",
"395.5 533.5 CURVE SMOOTH",
"357.833 541.833 OFFCURVE",
"320 546 OFFCURVE",
"282 546 CURVE SMOOTH",
"230.667 546 OFFCURVE",
"186.167 538.667 OFFCURVE",
"148.5 524 CURVE SMOOTH",
"110.833 509.333 OFFCURVE",
"82.167 488.833 OFFCURVE",
"62.5 462.5 CURVE SMOOTH",
"42.833 436.167 OFFCURVE",
"33 406 OFFCURVE",
"33 372 CURVE SMOOTH",
"33 331.333 OFFCURVE",
"43.5 300 OFFCURVE",
"64.5 278 CURVE SMOOTH",
"85.5 256 OFFCURVE",
"110.333 240.667 OFFCURVE",
"139 232 CURVE SMOOTH",
"167.667 223.333 OFFCURVE",
"204 215.667 OFFCURVE",
"248 209 CURVE SMOOTH",
"285.333 204.333 OFFCURVE",
"313 198.667 OFFCURVE",
"331 192 CURVE SMOOTH",
"349 185.333 OFFCURVE",
"358 174.333 OFFCURVE",
"358 159 CURVE SMOOTH",
"358 126.333 OFFCURVE",
"325 110 OFFCURVE",
"259 110 CURVE SMOOTH",
"226.333 110 OFFCURVE",
"193 114.833 OFFCURVE",
"159 124.5 CURVE SMOOTH",
"125 134.167 OFFCURVE",
"96 146.667 OFFCURVE",
"72 162 CURVE",
"20 50 LINE",
"45.333 33.333 OFFCURVE",
"79.333 19.5 OFFCURVE",
"122 8.5 CURVE SMOOTH",
"164.667 -2.5 OFFCURVE",
"208.333 -8 OFFCURVE",
"253 -8 CURVE SMOOTH"
);
}
);
width = 531;
}
);
leftKerningGroup = s;
rightKerningGroup = s;
unicode = 0073;
},
{
glyphname = saltillo;
lastChange = "2018-09-25 17:15:10 +0000";
layers = (
{
layerId = "E232F0B7-B012-4077-9E12-ABC19F379844";
paths = (
{
closed = 1;
nodes = (
"203 297 LINE",
"223 680 LINE",
"69 680 LINE",
"68 297 LINE"
);
}
);
width = 292;
}
);
note = uniA78C;
unicode = A78C;
},
{
glyphname = germandbls;
lastChange = "2018-09-25 17:15:10 +0000";
layers = (
{
layerId = "E232F0B7-B012-4077-9E12-ABC19F379844";
paths = (
{
closed = 1;
nodes = (
"547.333 410 OFFCURVE",
"565.833 431.667 OFFCURVE",
"579.5 457 CURVE SMOOTH",
"593.167 482.333 OFFCURVE",
"600 510.333 OFFCURVE",
"600 541 CURVE SMOOTH",
"600 580.333 OFFCURVE",
"589.833 615.833 OFFCURVE",
"569.5 647.5 CURVE SMOOTH",
"549.167 679.167 OFFCURVE",
"519.667 704.167 OFFCURVE",
"481 722.5 CURVE SMOOTH",
"442.333 740.833 OFFCURVE",
"397 750 OFFCURVE",
"345 750 CURVE SMOOTH",
"293 750 OFFCURVE",
"246.5 739.833 OFFCURVE",
"205.5 719.5 CURVE SMOOTH",
"164.5 699.167 OFFCURVE",
"132 669 OFFCURVE",
"108 629 CURVE SMOOTH",
"84 589 OFFCURVE",
"72 540.333 OFFCURVE",
"72 483 CURVE SMOOTH",
"72 0 LINE",
"228 0 LINE",
"228 502 LINE SMOOTH",
"228 540.667 OFFCURVE",
"238.333 570.5 OFFCURVE",
"259 591.5 CURVE SMOOTH",
"279.667 612.5 OFFCURVE",
"308.333 623 OFFCURVE",
"345 623 CURVE SMOOTH",
"377.667 623 OFFCURVE",
"403.333 614.5 OFFCURVE",
"422 597.5 CURVE SMOOTH",
"440.667 580.5 OFFCURVE",
"450 558 OFFCURVE",
"450 530 CURVE SMOOTH",
"450 498.667 OFFCURVE",
"439 473.5 OFFCURVE",
"417 454.5 CURVE SMOOTH",
"395 435.5 OFFCURVE",
"365.333 425.667 OFFCURVE",
"328 425 CURVE",
"328 302 LINE",
"382 302 LINE SMOOTH",
"420 302 OFFCURVE",
"449.667 294.167 OFFCURVE",
"471 278.5 CURVE SMOOTH",
"492.333 262.833 OFFCURVE",
"503 240.333 OFFCURVE",
"503 211 CURVE SMOOTH",
"503 181.667 OFFCURVE",
"493.167 159.167 OFFCURVE",
"473.5 143.5 CURVE SMOOTH",
"453.833 127.833 OFFCURVE",
"427 120 OFFCURVE",
"393 120 CURVE SMOOTH",
"362.333 120 OFFCURVE",
"334.333 124 OFFCURVE",
"309 132 CURVE",
"291 8 LINE",
"305.667 3.333 OFFCURVE",
"323.833 -0.5 OFFCURVE",
"345.5 -3.5 CURVE SMOOTH",
"367.167 -6.5 OFFCURVE",
"388.333 -8 OFFCURVE",
"409 -8 CURVE SMOOTH",
"485 -8 OFFCURVE",
"546 11.167 OFFCURVE",
"592 49.5 CURVE SMOOTH",
"638 87.833 OFFCURVE",
"661 140.333 OFFCURVE",
"661 207 CURVE SMOOTH",
"661 253 OFFCURVE",
"649 291.667 OFFCURVE",
"625 323 CURVE SMOOTH",
"601 354.333 OFFCURVE",
"567.333 377.333 OFFCURVE",
"524 392 CURVE"
);
}
);
width = 693;
}
);
leftKerningGroup = b;
rightKerningGroup = b;
unicode = 00DF;
},
{
glyphname = longs;
lastChange = "2018-09-25 17:15:10 +0000";
layers = (
{
layerId = "E232F0B7-B012-4077-9E12-ABC19F379844";
paths = (
{
closed = 1;
nodes = (
"244.667 750 OFFCURVE",
"193.667 732 OFFCURVE",
"157 696 CURVE SMOOTH",
"120.333 660 OFFCURVE",
"102 611.333 OFFCURVE",
"102 550 CURVE SMOOTH",
"102 526 LINE",
"19 526 LINE",
"19 406 LINE",
"102 406 LINE",
"102 0 LINE",
"258 0 LINE",
"258 549 LINE SMOOTH",
"258 601 OFFCURVE",
"280.333 627 OFFCURVE",
"325 627 CURVE SMOOTH",
"349 627 OFFCURVE",
"370 620.667 OFFCURVE",
"388 608 CURVE",
"429 721 LINE",
"415 730.333 OFFCURVE",
"397.5 737.5 OFFCURVE",
"376.5 742.5 CURVE SMOOTH",
"355.5 747.5 OFFCURVE",
"333.333 750 OFFCURVE",
"310 750 CURVE SMOOTH"
);
}
);
width = 333;
}
);
unicode = 017F;
},
{
glyphname = t;
lastChange = "2018-09-25 17:15:10 +0000";
layers = (
{
layerId = "E232F0B7-B012-4077-9E12-ABC19F379844";
paths = (
{
closed = 1;
nodes = (
"359.667 122.667 OFFCURVE",
"338.667 116 OFFCURVE",
"314 116 CURVE SMOOTH",
"292.667 116 OFFCURVE",
"276.167 122.167 OFFCURVE",
"264.5 134.5 CURVE SMOOTH",
"252.833 146.833 OFFCURVE",
"247 164.333 OFFCURVE",
"247 187 CURVE SMOOTH",
"247 406 LINE",
"381 406 LINE",
"381 526 LINE",
"247 526 LINE",
"247 657 LINE",
"91 657 LINE",
"91 526 LINE",
"8 526 LINE",
"8 406 LINE",
"91 406 LINE",
"91 185 LINE SMOOTH",
"91 121.667 OFFCURVE",
"108.5 73.667 OFFCURVE",
"143.5 41 CURVE SMOOTH",
"178.5 8.333 OFFCURVE",
"228 -8 OFFCURVE",
"292 -8 CURVE SMOOTH",
"316.667 -8 OFFCURVE",
"340.167 -5.167 OFFCURVE",
"362.5 0.5 CURVE SMOOTH",
"384.833 6.167 OFFCURVE",
"403.667 14.667 OFFCURVE",
"419 26 CURVE",
"377 136 LINE"
);
}
);
width = 435;
}
);
leftKerningGroup = t;
rightKerningGroup = t;
unicode = 0074;
},
{
glyphname = u;
lastChange = "2018-09-25 17:15:10 +0000";
layers = (
{
layerId = "E232F0B7-B012-4077-9E12-ABC19F379844";
paths = (
{
closed = 1;
nodes = (
"458 272 LINE SMOOTH",
"458 224 OFFCURVE",
"446.667 187.833 OFFCURVE",
"424 163.5 CURVE SMOOTH",
"401.333 139.167 OFFCURVE",
"371.333 127 OFFCURVE",
"334 127 CURVE SMOOTH",
"261.333 127 OFFCURVE",
"225 170.333 OFFCURVE",
"225 257 CURVE SMOOTH",
"225 538 LINE",
"69 538 LINE",
"69 234 LINE SMOOTH",
"69 154 OFFCURVE",
"89.667 93.667 OFFCURVE",
"131 53 CURVE SMOOTH",
"172.333 12.333 OFFCURVE",
"228.333 -8 OFFCURVE",
"299 -8 CURVE SMOOTH",
"332.333 -8 OFFCURVE",
"363.333 -1.833 OFFCURVE",
"392 10.5 CURVE SMOOTH",
"420.667 22.833 OFFCURVE",
"445.333 40.667 OFFCURVE",
"466 64 CURVE",
"466 0 LINE",
"614 0 LINE",
"614 538 LINE",
"458 538 LINE"
);
}
);
width = 687;
}
);
leftKerningGroup = u;
rightKerningGroup = Lj;
unicode = 0075;
},
{
glyphname = v;
lastChange = "2018-09-25 17:15:10 +0000";
layers = (
{
layerId = "E232F0B7-B012-4077-9E12-ABC19F379844";
paths = (
{
closed = 1;
nodes = (
"302 172 LINE",
"153 538 LINE",
"-8 538 LINE",
"218 0 LINE",
"379 0 LINE",
"606 538 LINE",
"456 538 LINE"
);
}
);
width = 598;
}
);
leftKerningGroup = v;
rightKerningGroup = v;
unicode = 0076;
},
{
glyphname = w;
lastChange = "2018-09-25 17:15:10 +0000";
layers = (
{
layerId = "E232F0B7-B012-4077-9E12-ABC19F379844";
paths = (
{
closed = 1;
nodes = (
"667 174 LINE",
"539 538 LINE",
"407 538 LINE",
"275 174 LINE",
"148 538 LINE",
"1 538 LINE",
"195 0 LINE",
"345 0 LINE",
"470 334 LINE",
"591 0 LINE",
"741 0 LINE",
"936 538 LINE",
"798 538 LINE"
);
}
);
width = 937;
}
);
leftKerningGroup = v;
rightKerningGroup = v;
unicode = 0077;
},
{
glyphname = x;
lastChange = "2018-09-25 17:15:10 +0000";
layers = (
{
layerId = "E232F0B7-B012-4077-9E12-ABC19F379844";
paths = (
{
closed = 1;
nodes = (
"383 275 LINE",
"583 538 LINE",
"417 538 LINE",
"300 381 LINE",
"186 538 LINE",
"11 538 LINE",
"211 271 LINE",
"4 0 LINE",
"174 0 LINE",
"296 165 LINE",
"414 0 LINE",
"591 0 LINE"
);
}
);
width = 595;
}
);
leftKerningGroup = x;
rightKerningGroup = x;
unicode = 0078;
},
{
glyphname = y;
lastChange = "2018-09-25 17:15:10 +0000";
layers = (
{
layerId = "E232F0B7-B012-4077-9E12-ABC19F379844";
paths = (
{
closed = 1;
nodes = (
"304 173 LINE",
"153 538 LINE",
"-8 538 LINE",
"225 -4 LINE",
"223 -9 LINE",
"212.333 -33 OFFCURVE",
"200.333 -50.167 OFFCURVE",
"187 -60.5 CURVE SMOOTH",
"173.667 -70.833 OFFCURVE",
"156.333 -76 OFFCURVE",
"135 -76 CURVE SMOOTH",
"119.667 -76 OFFCURVE",
"104.167 -73 OFFCURVE",
"88.5 -67 CURVE SMOOTH",
"72.833 -61 OFFCURVE",
"59 -52.667 OFFCURVE",
"47 -42 CURVE",
"-10 -153 LINE",
"7.333 -168.333 OFFCURVE",
"29.667 -180.333 OFFCURVE",
"57 -189 CURVE SMOOTH",
"84.333 -197.667 OFFCURVE",
"112 -202 OFFCURVE",
"140 -202 CURVE SMOOTH",
"191.333 -202 OFFCURVE",
"235.167 -189.333 OFFCURVE",
"271.5 -164 CURVE SMOOTH",
"307.833 -138.667 OFFCURVE",
"338.333 -95 OFFCURVE",
"363 -33 CURVE SMOOTH",
"606 538 LINE",
"456 538 LINE"
);
}
);
width = 598;
}
);
leftKerningGroup = v;
rightKerningGroup = v;
unicode = 0079;
},
{
glyphname = z;
lastChange = "2018-09-25 17:15:10 +0000";
layers = (
{
layerId = "E232F0B7-B012-4077-9E12-ABC19F379844";
paths = (
{
closed = 1;
nodes = (
"506 444 LINE",
"506 538 LINE",
"42 538 LINE",
"42 418 LINE",
"309 418 LINE",
"35 94 LINE",
"35 0 LINE",
"515 0 LINE",
"515 120 LINE",
"232 120 LINE"
);
}
);
width = 543;
}
);
leftKerningGroup = z;
rightKerningGroup = Dzcaron;
unicode = 007A;
},
{
glyphname = iacute_j.loclNLD;
lastChange = "2018-09-25 17:15:10 +0000";
layers = (
{
layerId = "E232F0B7-B012-4077-9E12-ABC19F379844";
paths = (
{
closed = 1;
nodes = (
"175 607 LINE",
"356 751 LINE",
"200 751 LINE",
"65 607 LINE"
);
},
{
closed = 1;
nodes = (
"480 607 LINE",
"662 751 LINE",
"506 751 LINE",
"371 607 LINE"
);
},
{
closed = 1;
nodes = (
"227 0 LINE",
"227 538 LINE",
"72 538 LINE",
"72 0 LINE"
);
},
{
closed = 1;
nodes = (
"397 -202 OFFCURVE",
"445.667 -184 OFFCURVE",
"481 -148 CURVE SMOOTH",
"516.333 -112 OFFCURVE",
"534 -63.333 OFFCURVE",
"534 -2 CURVE SMOOTH",
"534 538 LINE",
"378 538 LINE",
"378 0 LINE SMOOTH",
"378 -26 OFFCURVE",
"372.167 -45.5 OFFCURVE",
"360.5 -58.5 CURVE SMOOTH",
"348.833 -71.5 OFFCURVE",
"332.667 -78 OFFCURVE",
"312 -78 CURVE SMOOTH",
"287.333 -78 OFFCURVE",
"266 -71.667 OFFCURVE",
"248 -59 CURVE",
"208 -172 LINE",
"223.333 -182 OFFCURVE",
"242 -189.5 OFFCURVE",
"264 -194.5 CURVE SMOOTH",
"286 -199.5 OFFCURVE",
"309.667 -202 OFFCURVE",
"335 -202 CURVE SMOOTH"
);
}
);
width = 606;
}
);
rightKerningGroup = Lj;
},
{
glyphname = a.ss01;
lastChange = "2018-09-25 17:15:10 +0000";
layers = (
{
layerId = "E232F0B7-B012-4077-9E12-ABC19F379844";
paths = (
{
closed = 1;
nodes = (
"462 481 LINE",
"423.333 524.333 OFFCURVE",
"369.667 546 OFFCURVE",
"301 546 CURVE SMOOTH",
"250.333 546 OFFCURVE",
"204.5 534.667 OFFCURVE",
"163.5 512 CURVE SMOOTH",
"122.5 489.333 OFFCURVE",
"90.333 457 OFFCURVE",
"67 415 CURVE SMOOTH",
"43.667 373 OFFCURVE",
"32 324.333 OFFCURVE",
"32 269 CURVE SMOOTH",
"32 213.667 OFFCURVE",
"43.667 165 OFFCURVE",
"67 123 CURVE SMOOTH",
"90.333 81 OFFCURVE",
"122.5 48.667 OFFCURVE",
"163.5 26 CURVE SMOOTH",
"204.5 3.333 OFFCURVE",
"250.333 -8 OFFCURVE",
"301 -8 CURVE SMOOTH",
"374.333 -8 OFFCURVE",
"430.333 15.333 OFFCURVE",
"469 62 CURVE",
"469 0 LINE",
"618 0 LINE",
"618 538 LINE",
"462 538 LINE"
);
},
{
closed = 1;
nodes = (
"288 120 OFFCURVE",
"255 133.5 OFFCURVE",
"229 160.5 CURVE SMOOTH",
"203 187.5 OFFCURVE",
"190 223.667 OFFCURVE",
"190 269 CURVE SMOOTH",
"190 314.333 OFFCURVE",
"203 350.5 OFFCURVE",
"229 377.5 CURVE SMOOTH",
"255 404.5 OFFCURVE",
"288 418 OFFCURVE",
"328 418 CURVE SMOOTH",
"367.333 418 OFFCURVE",
"400 404.5 OFFCURVE",
"426 377.5 CURVE SMOOTH",
"452 350.5 OFFCURVE",
"465 314.333 OFFCURVE",
"465 269 CURVE SMOOTH",
"465 223.667 OFFCURVE",
"452 187.5 OFFCURVE",
"426 160.5 CURVE SMOOTH",
"400 133.5 OFFCURVE",
"367.333 120 OFFCURVE",
"328 120 CURVE SMOOTH"
);
}
);
width = 690;
}
);
leftKerningGroup = c;
rightKerningGroup = Lj;
},
{
glyphname = ae.ss01;
lastChange = "2018-09-25 17:15:10 +0000";
layers = (
{
layerId = "E232F0B7-B012-4077-9E12-ABC19F379844";
paths = (
{
closed = 1;
nodes = (
"674.333 117 OFFCURVE",
"644.333 123.833 OFFCURVE",
"619 137.5 CURVE SMOOTH",
"593.667 151.167 OFFCURVE",
"575 170.667 OFFCURVE",
"563 196 CURVE",
"963 273 LINE",
"962.333 329 OFFCURVE",
"949.5 377.667 OFFCURVE",
"924.5 419 CURVE SMOOTH",
"899.5 460.333 OFFCURVE",
"866.167 491.833 OFFCURVE",
"824.5 513.5 CURVE SMOOTH",
"782.833 535.167 OFFCURVE",
"736.667 546 OFFCURVE",
"686 546 CURVE SMOOTH",
"647.333 546 OFFCURVE",
"610.667 539.333 OFFCURVE",
"576 526 CURVE SMOOTH",
"541.333 512.667 OFFCURVE",
"511.333 494 OFFCURVE",
"486 470 CURVE",
"444.667 520.667 OFFCURVE",
"378.667 546 OFFCURVE",
"288 546 CURVE SMOOTH",
"244.667 546 OFFCURVE",
"202.667 540.333 OFFCURVE",
"162 529 CURVE SMOOTH",
"121.333 517.667 OFFCURVE",
"86.333 501.667 OFFCURVE",
"57 481 CURVE",
"113 372 LINE",
"132.333 387.333 OFFCURVE",
"156 399.5 OFFCURVE",
"184 408.5 CURVE SMOOTH",
"212 417.5 OFFCURVE",
"240.333 422 OFFCURVE",
"269 422 CURVE SMOOTH",
"310.333 422 OFFCURVE",
"341.167 412.833 OFFCURVE",
"361.5 394.5 CURVE SMOOTH",
"381.833 376.167 OFFCURVE",
"392 350.333 OFFCURVE",
"392 317 CURVE",
"268 317 LINE SMOOTH",
"190 317 OFFCURVE",
"132 302.667 OFFCURVE",
"94 274 CURVE SMOOTH",
"56 245.333 OFFCURVE",
"37 207.667 OFFCURVE",
"37 161 CURVE SMOOTH",
"37 109.667 OFFCURVE",
"57.167 68.667 OFFCURVE",
"97.5 38 CURVE SMOOTH",
"137.833 7.333 OFFCURVE",
"193 -8 OFFCURVE",
"263 -8 CURVE SMOOTH",
"360.333 -8 OFFCURVE",
"429.333 23.333 OFFCURVE",
"470 86 CURVE",
"498.667 54 OFFCURVE",
"533.167 30.333 OFFCURVE",
"573.5 15 CURVE SMOOTH",
"613.833 -0.333 OFFCURVE",
"657.667 -8 OFFCURVE",
"705 -8 CURVE SMOOTH",
"799.667 -8 OFFCURVE",
"873 21 OFFCURVE",
"925 79 CURVE",
"841 169 LINE",
"821 151 OFFCURVE",
"800.5 137.833 OFFCURVE",
"779.5 129.5 CURVE SMOOTH",
"758.5 121.167 OFFCURVE",
"735 117 OFFCURVE",
"709 117 CURVE SMOOTH"
);
},
{
closed = 1;
nodes = (
"715.333 428 OFFCURVE",
"742.167 419.667 OFFCURVE",
"764.5 403 CURVE SMOOTH",
"786.833 386.333 OFFCURVE",
"802 364 OFFCURVE",
"810 336 CURVE",
"548 286 LINE",
"548 287 LINE SMOOTH",
"548 329 OFFCURVE",
"560.833 363 OFFCURVE",
"586.5 389 CURVE SMOOTH",
"612.167 415 OFFCURVE",
"644.667 428 OFFCURVE",
"684 428 CURVE SMOOTH"
);
},
{
closed = 1;
nodes = (
"250.333 97 OFFCURVE",
"228.167 102.833 OFFCURVE",
"212.5 114.5 CURVE SMOOTH",
"196.833 126.167 OFFCURVE",
"189 142.667 OFFCURVE",
"189 164 CURVE SMOOTH",
"189 205.333 OFFCURVE",
"221 226 OFFCURVE",
"285 226 CURVE SMOOTH",
"392 226 LINE",
"392 201 LINE SMOOTH",
"392 169 OFFCURVE",
"382 143.667 OFFCURVE",
"362 125 CURVE SMOOTH",
"342 106.333 OFFCURVE",
"314.333 97 OFFCURVE",
"279 97 CURVE SMOOTH"
);
}
);
width = 995;
}
);
leftKerningGroup = a;
rightKerningGroup = ae;
},
{
glyphname = e.ss01;
lastChange = "2018-09-25 17:15:10 +0000";
layers = (
{
layerId = "E232F0B7-B012-4077-9E12-ABC19F379844";
paths = (
{
closed = 1;
nodes = (
"307.667 117 OFFCURVE",
"277.833 123.667 OFFCURVE",
"253.5 137 CURVE SMOOTH",
"229.167 150.333 OFFCURVE",
"211.333 170.333 OFFCURVE",
"200 197 CURVE",
"598 274 LINE",
"598 330 OFFCURVE",
"585.5 378.5 OFFCURVE",
"560.5 419.5 CURVE SMOOTH",
"535.5 460.5 OFFCURVE",
"502 491.833 OFFCURVE",
"460 513.5 CURVE SMOOTH",
"418 535.167 OFFCURVE",
"371.333 546 OFFCURVE",
"320 546 CURVE SMOOTH",
"265.333 546 OFFCURVE",
"216.167 534.167 OFFCURVE",
"172.5 510.5 CURVE SMOOTH",
"128.833 486.833 OFFCURVE",
"94.5 453.833 OFFCURVE",
"69.5 411.5 CURVE SMOOTH",
"44.5 369.167 OFFCURVE",
"32 321.667 OFFCURVE",
"32 269 CURVE SMOOTH",
"32 215.667 OFFCURVE",
"44.667 168 OFFCURVE",
"70 126 CURVE SMOOTH",
"95.333 84 OFFCURVE",
"131.333 51.167 OFFCURVE",
"178 27.5 CURVE SMOOTH",
"224.667 3.833 OFFCURVE",
"278.333 -8 OFFCURVE",
"339 -8 CURVE SMOOTH",
"436.333 -8 OFFCURVE",
"510.333 21 OFFCURVE",
"561 79 CURVE",
"478 169 LINE",
"459.333 151 OFFCURVE",
"439.167 137.833 OFFCURVE",
"417.5 129.5 CURVE SMOOTH",
"395.833 121.167 OFFCURVE",
"371 117 OFFCURVE",
"343 117 CURVE SMOOTH"
);
},
{
closed = 1;
nodes = (
"352 428 OFFCURVE",
"379.333 419.667 OFFCURVE",
"402 403 CURVE SMOOTH",
"424.667 386.333 OFFCURVE",
"439.667 364 OFFCURVE",
"447 336 CURVE",
"185 285 LINE",
"186.333 329.667 OFFCURVE",
"199.333 364.667 OFFCURVE",
"224 390 CURVE SMOOTH",
"248.667 415.333 OFFCURVE",
"280.667 428 OFFCURVE",
"320 428 CURVE SMOOTH"
);
}
);
width = 631;
}
);
leftKerningGroup = c;
rightKerningGroup = ae;
},
{
glyphname = eogonek.ss01;
lastChange = "2018-09-25 17:15:10 +0000";
layers = (
{
layerId = "E232F0B7-B012-4077-9E12-ABC19F379844";
paths = (
{
closed = 1;
nodes = (
"307.667 117 OFFCURVE",
"277.833 123.667 OFFCURVE",
"253.5 137 CURVE SMOOTH",
"229.167 150.333 OFFCURVE",
"211.333 170.333 OFFCURVE",
"200 197 CURVE",
"598 274 LINE",
"598 330 OFFCURVE",
"585.5 378.5 OFFCURVE",
"560.5 419.5 CURVE SMOOTH",
"535.5 460.5 OFFCURVE",
"502 491.833 OFFCURVE",
"460 513.5 CURVE SMOOTH",
"418 535.167 OFFCURVE",
"371.333 546 OFFCURVE",
"320 546 CURVE SMOOTH",
"265.333 546 OFFCURVE",
"216.167 534.167 OFFCURVE",
"172.5 510.5 CURVE SMOOTH",
"128.833 486.833 OFFCURVE",
"94.5 453.833 OFFCURVE",
"69.5 411.5 CURVE SMOOTH",
"44.5 369.167 OFFCURVE",
"32 321.667 OFFCURVE",
"32 269 CURVE SMOOTH",
"32 215.667 OFFCURVE",
"44.667 168 OFFCURVE",
"70 126 CURVE SMOOTH",
"95.333 84 OFFCURVE",
"131.333 51.167 OFFCURVE",
"178 27.5 CURVE SMOOTH",
"224.667 3.833 OFFCURVE",
"278.333 -8 OFFCURVE",
"339 -8 CURVE SMOOTH",
"358 -8 LINE",
"342.667 -23.333 OFFCURVE",
"330.833 -40.5 OFFCURVE",
"322.5 -59.5 CURVE SMOOTH",
"314.167 -78.5 OFFCURVE",
"310 -97.333 OFFCURVE",
"310 -116 CURVE SMOOTH",
"310 -151.333 OFFCURVE",
"322.333 -179.5 OFFCURVE",
"347 -200.5 CURVE SMOOTH",
"371.667 -221.5 OFFCURVE",
"405.333 -232 OFFCURVE",
"448 -232 CURVE SMOOTH",
"466 -232 OFFCURVE",
"484.167 -229.833 OFFCURVE",
"502.5 -225.5 CURVE SMOOTH",
"520.833 -221.167 OFFCURVE",
"536.333 -215.667 OFFCURVE",
"549 -209 CURVE",
"526 -138 LINE",
"508 -148 OFFCURVE",
"488.333 -153 OFFCURVE",
"467 -153 CURVE SMOOTH",
"449 -153 OFFCURVE",
"434.833 -148.667 OFFCURVE",
"424.5 -140 CURVE SMOOTH",
"414.167 -131.333 OFFCURVE",
"409 -119 OFFCURVE",
"409 -103 CURVE SMOOTH",
"409 -81.667 OFFCURVE",
"417.167 -59.833 OFFCURVE",
"433.5 -37.5 CURVE SMOOTH",
"449.833 -15.167 OFFCURVE",
"478.667 11.667 OFFCURVE",
"520 43 CURVE SMOOTH",
"534 53 OFFCURVE",
"547.667 65 OFFCURVE",
"561 79 CURVE",
"478 169 LINE",
"459.333 151 OFFCURVE",
"439.167 137.833 OFFCURVE",
"417.5 129.5 CURVE SMOOTH",
"395.833 121.167 OFFCURVE",
"371 117 OFFCURVE",
"343 117 CURVE SMOOTH"
);
},
{
closed = 1;
nodes = (
"352 428 OFFCURVE",
"379.333 419.667 OFFCURVE",
"402 403 CURVE SMOOTH",
"424.667 386.333 OFFCURVE",
"439.667 364 OFFCURVE",
"447 336 CURVE",
"185 285 LINE",
"186.333 329.667 OFFCURVE",
"199.333 364.667 OFFCURVE",
"224 390 CURVE SMOOTH",
"248.667 415.333 OFFCURVE",
"280.667 428 OFFCURVE",
"320 428 CURVE SMOOTH"
);
}
);
width = 631;
}
);
leftKerningGroup = c;
rightKerningGroup = ae;
},
{
glyphname = f.ss01;
lastChange = "2018-09-25 17:15:10 +0000";
layers = (
{
layerId = "E232F0B7-B012-4077-9E12-ABC19F379844";
paths = (
{
closed = 1;
nodes = (
"224 601 OFFCURVE",
"247.667 627 OFFCURVE",
"295 627 CURVE SMOOTH",
"319 627 OFFCURVE",
"340 620.667 OFFCURVE",
"358 608 CURVE",
"399 721 LINE",
"385 730.333 OFFCURVE",
"367.5 737.5 OFFCURVE",
"346.5 742.5 CURVE SMOOTH",
"325.5 747.5 OFFCURVE",
"303.333 750 OFFCURVE",
"280 750 CURVE SMOOTH",
"214 750 OFFCURVE",
"162.833 732 OFFCURVE",
"126.5 696 CURVE SMOOTH",
"90.167 660 OFFCURVE",
"72 611.333 OFFCURVE",
"72 550 CURVE SMOOTH",
"72 0 LINE",
"228 0 LINE",
"228 406 LINE",
"362 406 LINE",
"362 526 LINE",
"224 526 LINE",
"224 549 LINE SMOOTH"
);
}
);
width = 368;
}
);
leftKerningGroup = b;
rightKerningGroup = f;
},
{
glyphname = l.ss01;
lastChange = "2018-09-25 17:15:10 +0000";
layers = (
{
layerId = "E232F0B7-B012-4077-9E12-ABC19F379844";
paths = (
{
closed = 1;
nodes = (
"293 -8 OFFCURVE",
"320 -3.667 OFFCURVE",
"346 5 CURVE",
"339 126 LINE",
"334.333 123.333 OFFCURVE",
"327.833 121 OFFCURVE",
"319.5 119 CURVE SMOOTH",
"311.167 117 OFFCURVE",
"303 116 OFFCURVE",
"295 116 CURVE SMOOTH",
"273.667 116 OFFCURVE",
"257.167 122.167 OFFCURVE",
"245.5 134.5 CURVE SMOOTH",
"233.833 146.833 OFFCURVE",
"228 164.333 OFFCURVE",
"228 187 CURVE SMOOTH",
"228 742 LINE",
"72 742 LINE",
"72 178 LINE SMOOTH",
"72 118.667 OFFCURVE",
"89 72.833 OFFCURVE",
"123 40.5 CURVE SMOOTH",
"157 8.167 OFFCURVE",
"204.333 -8 OFFCURVE",
"265 -8 CURVE SMOOTH"
);
}
);
width = 351;
}
);
leftKerningGroup = b;
rightKerningGroup = l.ss01;
},
{
glyphname = oe.ss01;
lastChange = "2018-09-25 17:15:10 +0000";
layers = (
{
layerId = "E232F0B7-B012-4077-9E12-ABC19F379844";
paths = (
{
closed = 1;
nodes = (
"747.333 117 OFFCURVE",
"717.167 123.833 OFFCURVE",
"691.5 137.5 CURVE SMOOTH",
"665.833 151.167 OFFCURVE",
"647 170.667 OFFCURVE",
"635 196 CURVE",
"1045 273 LINE",
"1045 329 OFFCURVE",
"1032.167 377.667 OFFCURVE",
"1006.5 419 CURVE SMOOTH",
"980.833 460.333 OFFCURVE",
"946.333 491.833 OFFCURVE",
"903 513.5 CURVE SMOOTH",
"859.667 535.167 OFFCURVE",
"811.667 546 OFFCURVE",
"759 546 CURVE SMOOTH",
"713.667 546 OFFCURVE",
"672.333 538 OFFCURVE",
"635 522 CURVE SMOOTH",
"597.667 506 OFFCURVE",
"566.333 483.333 OFFCURVE",
"541 454 CURVE",
"517 483.333 OFFCURVE",
"486.5 506 OFFCURVE",
"449.5 522 CURVE SMOOTH",
"412.5 538 OFFCURVE",
"371.333 546 OFFCURVE",
"326 546 CURVE SMOOTH",
"270 546 OFFCURVE",
"219.667 534.167 OFFCURVE",
"175 510.5 CURVE SMOOTH",
"130.333 486.833 OFFCURVE",
"95.333 454 OFFCURVE",
"70 412 CURVE SMOOTH",
"44.667 370 OFFCURVE",
"32 322.333 OFFCURVE",
"32 269 CURVE SMOOTH",
"32 215.667 OFFCURVE",
"44.667 168 OFFCURVE",
"70 126 CURVE SMOOTH",
"95.333 84 OFFCURVE",
"130.333 51.167 OFFCURVE",
"175 27.5 CURVE SMOOTH",
"219.667 3.833 OFFCURVE",
"270 -8 OFFCURVE",
"326 -8 CURVE SMOOTH",
"372 -8 OFFCURVE",
"413.333 0.167 OFFCURVE",
"450 16.5 CURVE SMOOTH",
"486.667 32.833 OFFCURVE",
"517.333 56 OFFCURVE",
"542 86 CURVE",
"568.667 56 OFFCURVE",
"602 32.833 OFFCURVE",
"642 16.5 CURVE SMOOTH",
"682 0.167 OFFCURVE",
"727.333 -8 OFFCURVE",
"778 -8 CURVE SMOOTH",
"878 -8 OFFCURVE",
"954.333 21 OFFCURVE",
"1007 79 CURVE",
"922 169 LINE",
"902 151 OFFCURVE",
"881 137.833 OFFCURVE",
"859 129.5 CURVE SMOOTH",
"837 121.167 OFFCURVE",
"811.333 117 OFFCURVE",
"782 117 CURVE SMOOTH"
);
},
{
closed = 1;
nodes = (
"791.667 428 OFFCURVE",
"819.667 419.667 OFFCURVE",
"843 403 CURVE SMOOTH",
"866.333 386.333 OFFCURVE",
"882 364 OFFCURVE",
"890 336 CURVE",
"620 285 LINE",
"620 287 LINE SMOOTH",
"620 329.667 OFFCURVE",
"632.833 363.833 OFFCURVE",
"658.5 389.5 CURVE SMOOTH",
"684.167 415.167 OFFCURVE",
"717.667 428 OFFCURVE",
"759 428 CURVE SMOOTH"
);
},
{
closed = 1;
nodes = (
"288 120 OFFCURVE",
"255 133.5 OFFCURVE",
"229 160.5 CURVE SMOOTH",
"203 187.5 OFFCURVE",
"190 223.667 OFFCURVE",
"190 269 CURVE SMOOTH",
"190 314.333 OFFCURVE",
"203 350.5 OFFCURVE",
"229 377.5 CURVE SMOOTH",
"255 404.5 OFFCURVE",
"288 418 OFFCURVE",
"328 418 CURVE SMOOTH",
"368 418 OFFCURVE",
"400.833 404.5 OFFCURVE",
"426.5 377.5 CURVE SMOOTH",
"452.167 350.5 OFFCURVE",
"465 314.333 OFFCURVE",
"465 269 CURVE SMOOTH",
"465 223.667 OFFCURVE",
"452.167 187.5 OFFCURVE",
"426.5 160.5 CURVE SMOOTH",
"400.833 133.5 OFFCURVE",
"368 120 OFFCURVE",
"328 120 CURVE SMOOTH"
);
}
);
width = 1077;
}
);
leftKerningGroup = c;
rightKerningGroup = ae;
},
{
glyphname = t.ss01;
lastChange = "2018-09-25 17:15:10 +0000";
layers = (
{
layerId = "E232F0B7-B012-4077-9E12-ABC19F379844";
paths = (
{
closed = 1;
nodes = (
"336.333 122.667 OFFCURVE",
"315 116 OFFCURVE",
"291 116 CURVE SMOOTH",
"269.667 116 OFFCURVE",
"253.333 122.167 OFFCURVE",
"242 134.5 CURVE SMOOTH",
"230.667 146.833 OFFCURVE",
"225 164.333 OFFCURVE",
"225 187 CURVE SMOOTH",
"225 406 LINE",
"358 406 LINE",
"358 526 LINE",
"225 526 LINE",
"225 657 LINE",
"69 657 LINE",
"69 185 LINE SMOOTH",
"69 121.667 OFFCURVE",
"86.333 73.667 OFFCURVE",
"121 41 CURVE SMOOTH",
"155.667 8.333 OFFCURVE",
"205.333 -8 OFFCURVE",
"270 -8 CURVE SMOOTH",
"294 -8 OFFCURVE",
"317.167 -5.167 OFFCURVE",
"339.5 0.5 CURVE SMOOTH",
"361.833 6.167 OFFCURVE",
"380.667 14.667 OFFCURVE",
"396 26 CURVE",
"355 136 LINE"
);
}
);
width = 412;
}
);
leftKerningGroup = b;
rightKerningGroup = t;
},
{
glyphname = w.ss01;
lastChange = "2018-09-25 17:15:10 +0000";
layers = (
{
layerId = "E232F0B7-B012-4077-9E12-ABC19F379844";
paths = (
{
closed = 1;
nodes = (
"767 253 LINE SMOOTH",
"767 208.333 OFFCURVE",
"759.333 175.5 OFFCURVE",
"744 154.5 CURVE SMOOTH",
"728.667 133.5 OFFCURVE",
"704.667 123 OFFCURVE",
"672 123 CURVE SMOOTH",
"638.667 123 OFFCURVE",
"614 133.667 OFFCURVE",
"598 155 CURVE SMOOTH",
"582 176.333 OFFCURVE",
"574 209 OFFCURVE",
"574 253 CURVE SMOOTH",
"574 538 LINE",
"418 538 LINE",
"418 253 LINE SMOOTH",
"418 209 OFFCURVE",
"410 176.333 OFFCURVE",
"394 155 CURVE SMOOTH",
"378 133.667 OFFCURVE",
"353.333 123 OFFCURVE",
"320 123 CURVE SMOOTH",
"287.333 123 OFFCURVE",
"263.333 133.5 OFFCURVE",
"248 154.5 CURVE SMOOTH",
"232.667 175.5 OFFCURVE",
"225 208.333 OFFCURVE",
"225 253 CURVE SMOOTH",
"225 538 LINE",
"69 538 LINE",
"69 241 LINE SMOOTH",
"69 161.667 OFFCURVE",
"90.333 100.333 OFFCURVE",
"133 57 CURVE SMOOTH",
"175.667 13.667 OFFCURVE",
"237.333 -8 OFFCURVE",
"318 -8 CURVE SMOOTH",
"358 -8 OFFCURVE",
"392.667 -2 OFFCURVE",
"422 10 CURVE SMOOTH",
"451.333 22 OFFCURVE",
"476 41.333 OFFCURVE",
"496 68 CURVE",
"516 41.333 OFFCURVE",
"540.833 22 OFFCURVE",
"570.5 10 CURVE SMOOTH",
"600.167 -2 OFFCURVE",
"634.333 -8 OFFCURVE",
"673 -8 CURVE SMOOTH",
"753 -8 OFFCURVE",
"814.667 13.667 OFFCURVE",
"858 57 CURVE SMOOTH",
"901.333 100.333 OFFCURVE",
"923 161.667 OFFCURVE",
"923 241 CURVE SMOOTH",
"923 538 LINE",
"767 538 LINE"
);
}
);
width = 991;
}
);
leftKerningGroup = u;
rightKerningGroup = w.ss01;
},
{
glyphname = y.ss01;
lastChange = "2018-09-25 17:15:10 +0000";
layers = (
{
layerId = "E232F0B7-B012-4077-9E12-ABC19F379844";
paths = (
{
closed = 1;
nodes = (
"458 305 LINE SMOOTH",
"458 257 OFFCURVE",
"446.667 220.833 OFFCURVE",
"424 196.5 CURVE SMOOTH",
"401.333 172.167 OFFCURVE",
"371.333 160 OFFCURVE",
"334 160 CURVE SMOOTH",
"261.333 160 OFFCURVE",
"225 203.667 OFFCURVE",
"225 291 CURVE SMOOTH",
"225 538 LINE",
"69 538 LINE",
"69 268 LINE SMOOTH",
"69 187.333 OFFCURVE",
"89.667 126.833 OFFCURVE",
"131 86.5 CURVE SMOOTH",
"172.333 46.167 OFFCURVE",
"228.333 26 OFFCURVE",
"299 26 CURVE SMOOTH",
"330.333 26 OFFCURVE",
"359.667 31.333 OFFCURVE",
"387 42 CURVE SMOOTH",
"414.333 52.667 OFFCURVE",
"438 68 OFFCURVE",
"458 88 CURVE",
"458 70 LINE SMOOTH",
"458 20.667 OFFCURVE",
"446 -16 OFFCURVE",
"422 -40 CURVE SMOOTH",
"398 -64 OFFCURVE",
"360 -76 OFFCURVE",
"308 -76 CURVE SMOOTH",
"274.667 -76 OFFCURVE",
"241.667 -70.667 OFFCURVE",
"209 -60 CURVE SMOOTH",
"176.333 -49.333 OFFCURVE",
"148.667 -34.667 OFFCURVE",
"126 -16 CURVE",
"64 -128 LINE",
"94.667 -152 OFFCURVE",
"132.5 -170.333 OFFCURVE",
"177.5 -183 CURVE SMOOTH",
"222.5 -195.667 OFFCURVE",
"270.333 -202 OFFCURVE",
"321 -202 CURVE SMOOTH",
"416.333 -202 OFFCURVE",
"489 -178 OFFCURVE",
"539 -130 CURVE SMOOTH",
"589 -82 OFFCURVE",
"614 -8.667 OFFCURVE",
"614 90 CURVE SMOOTH",
"614 538 LINE",
"458 538 LINE"
);
}
);
width = 687;
}
);
leftKerningGroup = u;
rightKerningGroup = Lj;
},
{
glyphname = z.ss01;
lastChange = "2018-09-25 17:15:10 +0000";
layers = (
{
layerId = "E232F0B7-B012-4077-9E12-ABC19F379844";
paths = (
{
closed = 1;
nodes = (
"321 219 LINE",
"485 219 LINE",
"485 323 LINE",
"409 323 LINE",
"511 444 LINE",
"511 538 LINE",
"47 538 LINE",
"47 418 LINE",
"314 418 LINE",
"235 324 LINE",
"74 324 LINE",
"74 220 LINE",
"147 220 LINE",
"40 94 LINE",
"40 0 LINE",
"520 0 LINE",
"520 120 LINE",
"237 120 LINE"
);
}
);
width = 553;
}
);
leftKerningGroup = z;
rightKerningGroup = Dzcaron;
},
{
glyphname = T_h;
lastChange = "2018-09-25 17:15:10 +0000";
layers = (
{
layerId = "E232F0B7-B012-4077-9E12-ABC19F379844";
paths = (
{
closed = 1;
nodes = (
"917 546 OFFCURVE",
"885.333 540.5 OFFCURVE",
"856 529.5 CURVE SMOOTH",
"826.667 518.5 OFFCURVE",
"801.667 502.667 OFFCURVE",
"781 482 CURVE",
"781 700 LINE",
"4 700 LINE",
"4 568 LINE",
"228 568 LINE",
"228 0 LINE",
"390 0 LINE",
"390 568 LINE",
"625 568 LINE",
"625 0 LINE",
"781 0 LINE",
"781 266 LINE SMOOTH",
"781 314 OFFCURVE",
"792.667 350.167 OFFCURVE",
"816 374.5 CURVE SMOOTH",
"839.333 398.833 OFFCURVE",
"870.667 411 OFFCURVE",
"910 411 CURVE SMOOTH",
"944.667 411 OFFCURVE",
"971.5 400.5 OFFCURVE",
"990.5 379.5 CURVE SMOOTH",
"1009.5 358.5 OFFCURVE",
"1019 326.667 OFFCURVE",
"1019 284 CURVE SMOOTH",
"1019 0 LINE",
"1175 0 LINE",
"1175 308 LINE SMOOTH",
"1175 386.667 OFFCURVE",
"1154.5 446 OFFCURVE",
"1113.5 486 CURVE SMOOTH",
"1072.5 526 OFFCURVE",
"1018.333 546 OFFCURVE",
"951 546 CURVE SMOOTH"
);
}
);
width = 1243;
}
);
leftKerningGroup = T;
rightKerningGroup = a;
},
{
glyphname = fl.ss01;
lastChange = "2018-09-25 17:15:10 +0000";
layers = (
{
layerId = "E232F0B7-B012-4077-9E12-ABC19F379844";
paths = (
{
closed = 1;
nodes = (
"690.333 18.333 OFFCURVE",
"675.333 15 OFFCURVE",
"660 15 CURVE SMOOTH",
"638.667 15 OFFCURVE",
"622.167 21.167 OFFCURVE",
"610.5 33.5 CURVE SMOOTH",
"598.833 45.833 OFFCURVE",
"593 63.667 OFFCURVE",
"593 87 CURVE SMOOTH",
"593 513 LINE SMOOTH",
"593 587 OFFCURVE",
"571.667 645 OFFCURVE",
"529 687 CURVE SMOOTH",
"486.333 729 OFFCURVE",
"424.333 750 OFFCURVE",
"343 750 CURVE SMOOTH",
"266.333 750 OFFCURVE",
"206 730 OFFCURVE",
"162 690 CURVE SMOOTH",
"118 650 OFFCURVE",
"94.333 595.333 OFFCURVE",
"91 526 CURVE",
"8 526 LINE",
"8 406 LINE",
"91 406 LINE",
"91 0 LINE",
"247 0 LINE",
"247 406 LINE",
"381 406 LINE",
"381 526 LINE",
"247 526 LINE",
"247.667 559.333 OFFCURVE",
"256.167 584.333 OFFCURVE",
"272.5 601 CURVE SMOOTH",
"288.833 617.667 OFFCURVE",
"312 626 OFFCURVE",
"342 626 CURVE SMOOTH",
"372.667 626 OFFCURVE",
"396.167 617.333 OFFCURVE",
"412.5 600 CURVE SMOOTH",
"428.833 582.667 OFFCURVE",
"437 557 OFFCURVE",
"437 523 CURVE SMOOTH",
"437 77 LINE SMOOTH",
"437 17.667 OFFCURVE",
"454 -28.167 OFFCURVE",
"488 -60.5 CURVE SMOOTH",
"522 -92.833 OFFCURVE",
"569.333 -109 OFFCURVE",
"630 -109 CURVE SMOOTH",
"658 -109 OFFCURVE",
"685.333 -104.667 OFFCURVE",
"712 -96 CURVE",
"705 25 LINE"
);
}
);
width = 716;
}
);
leftKerningGroup = t;
rightKerningGroup = d;
},
{
glyphname = adieresis.sc.alt;
lastChange = "2018-09-25 17:15:10 +0000";
layers = (
{
layerId = "E232F0B7-B012-4077-9E12-ABC19F379844";
paths = (
{
closed = 1;
nodes = (
"118.333 448 OFFCURVE",
"134.5 454.333 OFFCURVE",
"147.5 467 CURVE SMOOTH",
"160.5 479.667 OFFCURVE",
"167 496 OFFCURVE",
"167 516 CURVE SMOOTH",
"167 536 OFFCURVE",
"160.5 552.667 OFFCURVE",
"147.5 566 CURVE SMOOTH",
"134.5 579.333 OFFCURVE",
"118.333 586 OFFCURVE",
"99 586 CURVE SMOOTH",
"79.667 586 OFFCURVE",
"63.333 579.5 OFFCURVE",
"50 566.5 CURVE SMOOTH",
"36.667 553.5 OFFCURVE",
"30 536.667 OFFCURVE",
"30 516 CURVE SMOOTH",
"30 496 OFFCURVE",
"36.5 479.667 OFFCURVE",
"49.5 467 CURVE SMOOTH",
"62.5 454.333 OFFCURVE",
"79 448 OFFCURVE",
"99 448 CURVE SMOOTH"
);
},
{
closed = 1;
nodes = (
"576 448 OFFCURVE",
"592.5 454.333 OFFCURVE",
"605.5 467 CURVE SMOOTH",
"618.5 479.667 OFFCURVE",
"625 496 OFFCURVE",
"625 516 CURVE SMOOTH",
"625 536.667 OFFCURVE",
"618.5 553.5 OFFCURVE",
"605.5 566.5 CURVE SMOOTH",
"592.5 579.5 OFFCURVE",
"576 586 OFFCURVE",
"556 586 CURVE SMOOTH",
"536.667 586 OFFCURVE",
"520.5 579.333 OFFCURVE",
"507.5 566 CURVE SMOOTH",
"494.5 552.667 OFFCURVE",
"488 536 OFFCURVE",
"488 516 CURVE SMOOTH",
"488 496 OFFCURVE",
"494.5 479.667 OFFCURVE",
"507.5 467 CURVE SMOOTH",
"520.5 454.333 OFFCURVE",
"536.667 448 OFFCURVE",
"556 448 CURVE SMOOTH"
);
},
{
closed = 1;
nodes = (
"664 0 LINE",
"405 575 LINE",
"249 575 LINE",
"-9 0 LINE",
"144 0 LINE",
"192 113 LINE",
"461 113 LINE",
"508 0 LINE"
);
},
{
closed = 1;
nodes = (
"327 436 LINE",
"413 228 LINE",
"240 228 LINE"
);
}
);
width = 655;
}
);
leftKerningGroup = adieresis.sc.alt;
},
{
glyphname = udieresis.sc.alt;
lastChange = "2018-09-25 17:15:10 +0000";
layers = (
{
layerId = "E232F0B7-B012-4077-9E12-ABC19F379844";
paths = (
{
closed = 1;
nodes = (
"359.667 471 OFFCURVE",
"373.667 476.5 OFFCURVE",
"385 487.5 CURVE SMOOTH",
"396.333 498.5 OFFCURVE",
"402 512 OFFCURVE",
"402 528 CURVE SMOOTH",
"402 544.667 OFFCURVE",
"396.5 558.5 OFFCURVE",
"385.5 569.5 CURVE SMOOTH",
"374.5 580.5 OFFCURVE",
"360.333 586 OFFCURVE",
"343 586 CURVE SMOOTH",
"327 586 OFFCURVE",
"313.5 580.5 OFFCURVE",
"302.5 569.5 CURVE SMOOTH",
"291.5 558.5 OFFCURVE",
"286 544.667 OFFCURVE",
"286 528 CURVE SMOOTH",
"286 512 OFFCURVE",
"291.5 498.5 OFFCURVE",
"302.5 487.5 CURVE SMOOTH",
"313.5 476.5 OFFCURVE",
"327 471 OFFCURVE",
"343 471 CURVE SMOOTH"
);
},
{
closed = 1;
nodes = (
"428.333 -11 OFFCURVE",
"495 12 OFFCURVE",
"543 58 CURVE SMOOTH",
"591 104 OFFCURVE",
"615 167.333 OFFCURVE",
"615 248 CURVE SMOOTH",
"615 575 LINE",
"459 575 LINE",
"459 253 LINE SMOOTH",
"459 208.333 OFFCURVE",
"449.333 174.833 OFFCURVE",
"430 152.5 CURVE SMOOTH",
"410.667 130.167 OFFCURVE",
"382.333 119 OFFCURVE",
"345 119 CURVE SMOOTH",
"307.667 119 OFFCURVE",
"279.167 130.167 OFFCURVE",
"259.5 152.5 CURVE SMOOTH",
"239.833 174.833 OFFCURVE",
"230 208.333 OFFCURVE",
"230 253 CURVE SMOOTH",
"230 575 LINE",
"71 575 LINE",
"71 248 LINE SMOOTH",
"71 167.333 OFFCURVE",
"95 104 OFFCURVE",
"143 58 CURVE SMOOTH",
"191 12 OFFCURVE",
"257.667 -11 OFFCURVE",
"343 -11 CURVE SMOOTH"
);
},
{
closed = 1;
nodes = (
"360.667 337 OFFCURVE",
"374.5 342.5 OFFCURVE",
"385.5 353.5 CURVE SMOOTH",
"396.5 364.5 OFFCURVE",
"402 378.333 OFFCURVE",
"402 395 CURVE SMOOTH",
"402 411 OFFCURVE",
"396.5 424.5 OFFCURVE",
"385.5 435.5 CURVE SMOOTH",
"374.5 446.5 OFFCURVE",
"360.667 452 OFFCURVE",
"344 452 CURVE SMOOTH",
"327.333 452 OFFCURVE",
"313.5 446.5 OFFCURVE",
"302.5 435.5 CURVE SMOOTH",
"291.5 424.5 OFFCURVE",
"286 411 OFFCURVE",
"286 395 CURVE SMOOTH",
"286 378.333 OFFCURVE",
"291.5 364.5 OFFCURVE",
"302.5 353.5 CURVE SMOOTH",
"313.5 342.5 OFFCURVE",
"327.333 337 OFFCURVE",
"344 337 CURVE SMOOTH"
);
}
);
width = 686;
}
);
leftKerningGroup = udieresis.sc.alt;
rightKerningGroup = udieresis.sc.alt;
},
{
glyphname = udieresis.sc.ss01.alt;
lastChange = "2018-09-25 17:15:10 +0000";
layers = (
{
layerId = "E232F0B7-B012-4077-9E12-ABC19F379844";
paths = (
{
closed = 1;
nodes = (
"359.667 471 OFFCURVE",
"373.667 476.5 OFFCURVE",
"385 487.5 CURVE SMOOTH",
"396.333 498.5 OFFCURVE",
"402 512 OFFCURVE",
"402 528 CURVE SMOOTH",
"402 544.667 OFFCURVE",
"396.333 558.5 OFFCURVE",
"385 569.5 CURVE SMOOTH",
"373.667 580.5 OFFCURVE",
"359.667 586 OFFCURVE",
"343 586 CURVE SMOOTH",
"326.333 586 OFFCURVE",
"312.667 580.5 OFFCURVE",
"302 569.5 CURVE SMOOTH",
"291.333 558.5 OFFCURVE",
"286 544.667 OFFCURVE",
"286 528 CURVE SMOOTH",
"286 512 OFFCURVE",
"291.333 498.5 OFFCURVE",
"302 487.5 CURVE SMOOTH",
"312.667 476.5 OFFCURVE",
"326.333 471 OFFCURVE",
"343 471 CURVE SMOOTH"
);
},
{
closed = 1;
nodes = (
"458 246 LINE SMOOTH",
"458 205.333 OFFCURVE",
"447 173.833 OFFCURVE",
"425 151.5 CURVE SMOOTH",
"403 129.167 OFFCURVE",
"373.667 118 OFFCURVE",
"337 118 CURVE SMOOTH",
"302.333 118 OFFCURVE",
"275.667 128.333 OFFCURVE",
"257 149 CURVE SMOOTH",
"238.333 169.667 OFFCURVE",
"229 200.333 OFFCURVE",
"229 241 CURVE SMOOTH",
"229 575 LINE",
"71 575 LINE",
"71 232 LINE SMOOTH",
"71 155.333 OFFCURVE",
"90.5 95.667 OFFCURVE",
"129.5 53 CURVE SMOOTH",
"168.5 10.333 OFFCURVE",
"223.333 -11 OFFCURVE",
"294 -11 CURVE SMOOTH",
"367.333 -11 OFFCURVE",
"424 11 OFFCURVE",
"464 55 CURVE",
"464 0 LINE",
"617 0 LINE",
"617 575 LINE",
"458 575 LINE"
);
},
{
closed = 1;
nodes = (
"359.667 337 OFFCURVE",
"373.667 342.5 OFFCURVE",
"385 353.5 CURVE SMOOTH",
"396.333 364.5 OFFCURVE",
"402 378.333 OFFCURVE",
"402 395 CURVE SMOOTH",
"402 411 OFFCURVE",
"396.333 424.5 OFFCURVE",
"385 435.5 CURVE SMOOTH",
"373.667 446.5 OFFCURVE",
"359.667 452 OFFCURVE",
"343 452 CURVE SMOOTH",
"326.333 452 OFFCURVE",
"312.667 446.5 OFFCURVE",
"302 435.5 CURVE SMOOTH",
"291.333 424.5 OFFCURVE",
"286 411 OFFCURVE",
"286 395 CURVE SMOOTH",
"286 378.333 OFFCURVE",
"291.333 364.5 OFFCURVE",
"302 353.5 CURVE SMOOTH",
"312.667 342.5 OFFCURVE",
"326.333 337 OFFCURVE",
"343 337 CURVE SMOOTH"
);
}
);
width = 693;
}
);
leftKerningGroup = udieresis.sc.alt;
rightKerningGroup = udieresis.sc.ss01.alt;
},
{
glyphname = a.sc;
lastChange = "2018-09-25 17:15:10 +0000";
layers = (
{
layerId = "E232F0B7-B012-4077-9E12-ABC19F379844";
paths = (
{
closed = 1;
nodes = (
"664 0 LINE",
"405 575 LINE",
"249 575 LINE",
"-9 0 LINE",
"144 0 LINE",
"192 114 LINE",
"461 114 LINE",
"508 0 LINE"
);
},
{
closed = 1;
nodes = (
"327 436 LINE",
"413 228 LINE",
"240 228 LINE"
);
}
);
width = 655;
}
);
leftKerningGroup = a.sc;
rightKerningGroup = a.sc;
},
{
glyphname = ae.sc;
lastChange = "2018-09-25 17:15:10 +0000";
layers = (
{
layerId = "E232F0B7-B012-4077-9E12-ABC19F379844";
paths = (
{
closed = 1;
nodes = (
"574 234 LINE",
"835 234 LINE",
"835 349 LINE",
"574 349 LINE",
"574 454 LINE",
"870 454 LINE",
"870 575 LINE",
"311 575 LINE",
"-9 0 LINE",
"153 0 LINE",
"214 114 LINE",
"418 114 LINE",
"418 0 LINE",
"881 0 LINE",
"881 121 LINE",
"574 121 LINE"
);
},
{
closed = 1;
nodes = (
"397 453 LINE",
"418 453 LINE",
"418 228 LINE",
"276 228 LINE"
);
}
);
width = 919;
}
);
leftKerningGroup = a.sc;
rightKerningGroup = ae.sc;
},
{
glyphname = b.sc;
lastChange = "2018-09-25 17:15:10 +0000";
layers = (
{
layerId = "E232F0B7-B012-4077-9E12-ABC19F379844";
paths = (
{
closed = 1;
nodes = (
"549.333 312.667 OFFCURVE",
"567.167 329.667 OFFCURVE",
"579.5 351 CURVE SMOOTH",
"591.833 372.333 OFFCURVE",
"598 396.667 OFFCURVE",
"598 424 CURVE SMOOTH",
"598 470 OFFCURVE",
"578.667 506.667 OFFCURVE",
"540 534 CURVE SMOOTH",
"501.333 561.333 OFFCURVE",
"445 575 OFFCURVE",
"371 575 CURVE SMOOTH",
"77 575 LINE",
"77 0 LINE",
"387 0 LINE SMOOTH",
"465 0 OFFCURVE",
"524.5 13.833 OFFCURVE",
"565.5 41.5 CURVE SMOOTH",
"606.5 69.167 OFFCURVE",
"627 108 OFFCURVE",
"627 158 CURVE SMOOTH",
"627 192.667 OFFCURVE",
"618.167 222 OFFCURVE",
"600.5 246 CURVE SMOOTH",
"582.833 270 OFFCURVE",
"558 288 OFFCURVE",
"526 300 CURVE"
);
},
{
closed = 1;
nodes = (
"380.333 464 OFFCURVE",
"402.5 458.833 OFFCURVE",
"417.5 448.5 CURVE SMOOTH",
"432.5 438.167 OFFCURVE",
"440 423 OFFCURVE",
"440 403 CURVE SMOOTH",
"440 383.667 OFFCURVE",
"432.333 368.833 OFFCURVE",
"417 358.5 CURVE SMOOTH",
"401.667 348.167 OFFCURVE",
"379.667 343 OFFCURVE",
"351 343 CURVE SMOOTH",
"233 343 LINE",
"233 464 LINE",
"351 464 LINE SMOOTH"
);
},
{
closed = 1;
nodes = (
"233 111 LINE",
"233 237 LINE",
"376 237 LINE SMOOTH",
"437.333 237 OFFCURVE",
"468 216 OFFCURVE",
"468 174 CURVE SMOOTH",
"468 132 OFFCURVE",
"437.333 111 OFFCURVE",
"376 111 CURVE SMOOTH"
);
}
);
width = 658;
}
);
leftKerningGroup = b.sc;
rightKerningGroup = b.sc;
},
{
glyphname = c.sc;
lastChange = "2018-09-25 17:15:10 +0000";
layers = (
{
layerId = "E232F0B7-B012-4077-9E12-ABC19F379844";
paths = (
{
closed = 1;
nodes = (
"410.667 -11 OFFCURVE",
"458.5 -2.5 OFFCURVE",
"499.5 14.5 CURVE SMOOTH",
"540.5 31.5 OFFCURVE",
"575.333 58 OFFCURVE",
"604 94 CURVE",
"502 187 LINE",
"464 141 OFFCURVE",
"417.333 118 OFFCURVE",
"362 118 CURVE SMOOTH",
"330 118 OFFCURVE",
"301.167 125 OFFCURVE",
"275.5 139 CURVE SMOOTH",
"249.833 153 OFFCURVE",
"229.833 172.833 OFFCURVE",
"215.5 198.5 CURVE SMOOTH",
"201.167 224.167 OFFCURVE",
"194 253.667 OFFCURVE",
"194 287 CURVE SMOOTH",
"194 337.667 OFFCURVE",
"209.833 378.667 OFFCURVE",
"241.5 410 CURVE SMOOTH",
"273.167 441.333 OFFCURVE",
"313.333 457 OFFCURVE",
"362 457 CURVE SMOOTH",
"417.333 457 OFFCURVE",
"464 434 OFFCURVE",
"502 388 CURVE",
"604 481 LINE",
"574.667 517.667 OFFCURVE",
"539.833 544.333 OFFCURVE",
"499.5 561 CURVE SMOOTH",
"459.167 577.667 OFFCURVE",
"411.333 586 OFFCURVE",
"356 586 CURVE SMOOTH",
"295.333 586 OFFCURVE",
"240.667 573.167 OFFCURVE",
"192 547.5 CURVE SMOOTH",
"143.333 521.833 OFFCURVE",
"105 486.167 OFFCURVE",
"77 440.5 CURVE SMOOTH",
"49 394.833 OFFCURVE",
"35 343.667 OFFCURVE",
"35 287 CURVE SMOOTH",
"35 230.333 OFFCURVE",
"49 179.333 OFFCURVE",
"77 134 CURVE SMOOTH",
"105 88.667 OFFCURVE",
"143.333 53.167 OFFCURVE",
"192 27.5 CURVE SMOOTH",
"240.667 1.833 OFFCURVE",
"295.333 -11 OFFCURVE",
"356 -11 CURVE SMOOTH"
);
}
);
width = 626;
}
);
leftKerningGroup = c.sc;
rightKerningGroup = c.sc;
},
{
glyphname = d.sc;
lastChange = "2018-09-25 17:15:10 +0000";
layers = (
{
layerId = "E232F0B7-B012-4077-9E12-ABC19F379844";
paths = (
{
closed = 1;
nodes = (
"348 0 LINE SMOOTH",
"413.333 0 OFFCURVE",
"470.667 11.667 OFFCURVE",
"520 35 CURVE SMOOTH",
"569.333 58.333 OFFCURVE",
"607.5 91.667 OFFCURVE",
"634.5 135 CURVE SMOOTH",
"661.5 178.333 OFFCURVE",
"675 229 OFFCURVE",
"675 287 CURVE SMOOTH",
"675 345.667 OFFCURVE",
"661.5 396.667 OFFCURVE",
"634.5 440 CURVE SMOOTH",
"607.5 483.333 OFFCURVE",
"569.333 516.667 OFFCURVE",
"520 540 CURVE SMOOTH",
"470.667 563.333 OFFCURVE",
"413.333 575 OFFCURVE",
"348 575 CURVE SMOOTH",
"77 575 LINE",
"77 0 LINE"
);
},
{
closed = 1;
nodes = (
"235 451 LINE",
"343 451 LINE SMOOTH",
"396.333 451 OFFCURVE",
"438.333 436.667 OFFCURVE",
"469 408 CURVE SMOOTH",
"499.667 379.333 OFFCURVE",
"515 339 OFFCURVE",
"515 287 CURVE SMOOTH",
"515 235 OFFCURVE",
"499.667 194.833 OFFCURVE",
"469 166.5 CURVE SMOOTH",
"438.333 138.167 OFFCURVE",
"396.333 124 OFFCURVE",
"343 124 CURVE SMOOTH",
"235 124 LINE"
);
}
);
width = 710;
}
);
leftKerningGroup = b.sc;
rightKerningGroup = d.sc;
},
{
glyphname = e.sc;
lastChange = "2018-09-25 17:15:11 +0000";
layers = (
{
layerId = "E232F0B7-B012-4077-9E12-ABC19F379844";
paths = (
{
closed = 1;
nodes = (
"233 234 LINE",
"495 234 LINE",
"495 349 LINE",
"233 349 LINE",
"233 454 LINE",
"529 454 LINE",
"529 575 LINE",
"77 575 LINE",
"77 0 LINE",
"540 0 LINE",
"540 121 LINE",
"233 121 LINE"
);
}
);
width = 578;
}
);
leftKerningGroup = b.sc;
rightKerningGroup = ae.sc;
},
{
glyphname = schwa.sc;
lastChange = "2018-09-25 17:15:11 +0000";
layers = (
{
layerId = "E232F0B7-B012-4077-9E12-ABC19F379844";
paths = (
{
closed = 1;
nodes = (
"285.667 586 OFFCURVE",
"242.667 579.167 OFFCURVE",
"202 565.5 CURVE SMOOTH",
"161.333 551.833 OFFCURVE",
"127.667 533.333 OFFCURVE",
"101 510 CURVE",
"185 407 LINE",
"204.333 423 OFFCURVE",
"225.833 435.333 OFFCURVE",
"249.5 444 CURVE SMOOTH",
"273.167 452.667 OFFCURVE",
"298 457 OFFCURVE",
"324 457 CURVE SMOOTH",
"365.333 457 OFFCURVE",
"400.167 445.167 OFFCURVE",
"428.5 421.5 CURVE SMOOTH",
"456.833 397.833 OFFCURVE",
"474.667 366.667 OFFCURVE",
"482 328 CURVE",
"35 328 LINE",
"35 294 LINE SMOOTH",
"35 234.667 OFFCURVE",
"47.833 181.833 OFFCURVE",
"73.5 135.5 CURVE SMOOTH",
"99.167 89.167 OFFCURVE",
"135 53.167 OFFCURVE",
"181 27.5 CURVE SMOOTH",
"227 1.833 OFFCURVE",
"279.333 -11 OFFCURVE",
"338 -11 CURVE SMOOTH",
"396 -11 OFFCURVE",
"448 1.667 OFFCURVE",
"494 27 CURVE SMOOTH",
"540 52.333 OFFCURVE",
"576 87.667 OFFCURVE",
"602 133 CURVE SMOOTH",
"628 178.333 OFFCURVE",
"641 229.667 OFFCURVE",
"641 287 CURVE SMOOTH",
"641 344.333 OFFCURVE",
"627.5 395.667 OFFCURVE",
"600.5 441 CURVE SMOOTH",
"573.5 486.333 OFFCURVE",
"536.5 521.833 OFFCURVE",
"489.5 547.5 CURVE SMOOTH",
"442.5 573.167 OFFCURVE",
"389.667 586 OFFCURVE",
"331 586 CURVE SMOOTH"
);
},
{
closed = 1;
nodes = (
"301.333 105 OFFCURVE",
"269.167 115.5 OFFCURVE",
"243.5 136.5 CURVE SMOOTH",
"217.833 157.5 OFFCURVE",
"201.333 187 OFFCURVE",
"194 225 CURVE",
"481 225 LINE",
"474.333 187 OFFCURVE",
"458.833 157.5 OFFCURVE",
"434.5 136.5 CURVE SMOOTH",
"410.167 115.5 OFFCURVE",
"378.667 105 OFFCURVE",
"340 105 CURVE SMOOTH"
);
}
);
width = 676;
}
);
leftKerningGroup = c.sc;
note = uni0259.sc;
rightKerningGroup = d.sc;
},
{
glyphname = ezh.sc;
lastChange = "2018-09-25 17:15:11 +0000";
layers = (
{
layerId = "E232F0B7-B012-4077-9E12-ABC19F379844";
paths = (
{
closed = 1;
nodes = (
"505 480 LINE",
"505 575 LINE",
"55 575 LINE",
"55 458 LINE",
"326 458 LINE",
"199 336 LINE",
"199 241 LINE",
"266 241 LINE SMOOTH",
"306 241 OFFCURVE",
"335.667 235.5 OFFCURVE",
"355 224.5 CURVE SMOOTH",
"374.333 213.5 OFFCURVE",
"384 198 OFFCURVE",
"384 178 CURVE SMOOTH",
"384 157.333 OFFCURVE",
"373.5 141.167 OFFCURVE",
"352.5 129.5 CURVE SMOOTH",
"331.5 117.833 OFFCURVE",
"302.333 112 OFFCURVE",
"265 112 CURVE SMOOTH",
"231 112 OFFCURVE",
"197.667 116.167 OFFCURVE",
"165 124.5 CURVE SMOOTH",
"132.333 132.833 OFFCURVE",
"104 145 OFFCURVE",
"80 161 CURVE",
"29 47 LINE",
"57.667 29 OFFCURVE",
"93.5 15 OFFCURVE",
"136.5 5 CURVE SMOOTH",
"179.5 -5 OFFCURVE",
"223.667 -10 OFFCURVE",
"269 -10 CURVE SMOOTH",
"328.333 -10 OFFCURVE",
"378 -1.5 OFFCURVE",
"418 15.5 CURVE SMOOTH",
"458 32.5 OFFCURVE",
"487.667 55.333 OFFCURVE",
"507 84 CURVE SMOOTH",
"526.333 112.667 OFFCURVE",
"536 144.333 OFFCURVE",
"536 179 CURVE SMOOTH",
"536 221.667 OFFCURVE",
"521.167 257.5 OFFCURVE",
"491.5 286.5 CURVE SMOOTH",
"461.833 315.5 OFFCURVE",
"419 334.333 OFFCURVE",
"363 343 CURVE"
);
}
);
width = 575;
}
);
note = uni0292.sc;
},
{
glyphname = f.sc;
lastChange = "2018-09-25 17:15:11 +0000";
layers = (
{
layerId = "E232F0B7-B012-4077-9E12-ABC19F379844";
paths = (
{
closed = 1;
nodes = (
"529 575 LINE",
"77 575 LINE",
"77 0 LINE",
"235 0 LINE",
"235 199 LINE",
"495 199 LINE",
"495 320 LINE",
"235 320 LINE",
"235 454 LINE",
"529 454 LINE"
);
}
);
width = 554;
}
);
leftKerningGroup = b.sc;
rightKerningGroup = f.sc;
},
{
glyphname = g.sc;
lastChange = "2018-09-25 17:15:11 +0000";
layers = (
{
layerId = "E232F0B7-B012-4077-9E12-ABC19F379844";
paths = (
{
closed = 1;
nodes = (
"427 124 OFFCURVE",
"397 118 OFFCURVE",
"365 118 CURVE SMOOTH",
"314.333 118 OFFCURVE",
"273.167 133.667 OFFCURVE",
"241.5 165 CURVE SMOOTH",
"209.833 196.333 OFFCURVE",
"194 237 OFFCURVE",
"194 287 CURVE SMOOTH",
"194 337.667 OFFCURVE",
"209.833 378.667 OFFCURVE",
"241.5 410 CURVE SMOOTH",
"273.167 441.333 OFFCURVE",
"313.667 457 OFFCURVE",
"363 457 CURVE SMOOTH",
"421.667 457 OFFCURVE",
"470 434.667 OFFCURVE",
"508 390 CURVE",
"612 483 LINE",
"555.333 551.667 OFFCURVE",
"471.667 586 OFFCURVE",
"361 586 CURVE SMOOTH",
"299 586 OFFCURVE",
"243.167 573.167 OFFCURVE",
"193.5 547.5 CURVE SMOOTH",
"143.833 521.833 OFFCURVE",
"105 486.167 OFFCURVE",
"77 440.5 CURVE SMOOTH",
"49 394.833 OFFCURVE",
"35 343.667 OFFCURVE",
"35 287 CURVE SMOOTH",
"35 230.333 OFFCURVE",
"48.833 179.333 OFFCURVE",
"76.5 134 CURVE SMOOTH",
"104.167 88.667 OFFCURVE",
"142.833 53.167 OFFCURVE",
"192.5 27.5 CURVE SMOOTH",
"242.167 1.833 OFFCURVE",
"298.667 -11 OFFCURVE",
"362 -11 CURVE SMOOTH",
"403.333 -11 OFFCURVE",
"445.333 -4.667 OFFCURVE",
"488 8 CURVE SMOOTH",
"530.667 20.667 OFFCURVE",
"567.667 38.667 OFFCURVE",
"599 62 CURVE",
"599 295 LINE",
"455 295 LINE",
"455 136 LINE"
);
}
);
width = 659;
}
);
leftKerningGroup = c.sc;
rightKerningGroup = g.sc;
},
{
glyphname = h.sc;
lastChange = "2018-09-25 17:15:11 +0000";
layers = (
{
layerId = "E232F0B7-B012-4077-9E12-ABC19F379844";
paths = (
{
closed = 1;
nodes = (
"235 0 LINE",
"235 228 LINE",
"469 228 LINE",
"469 0 LINE",
"627 0 LINE",
"627 575 LINE",
"469 575 LINE",
"469 355 LINE",
"235 355 LINE",
"235 575 LINE",
"77 575 LINE",
"77 0 LINE"
);
}
);
width = 704;
}
);
leftKerningGroup = b.sc;
rightKerningGroup = udieresis.sc.ss01.alt;
},
{
glyphname = i.sc;
lastChange = "2018-09-25 17:15:11 +0000";
layers = (
{
layerId = "E232F0B7-B012-4077-9E12-ABC19F379844";
paths = (
{
closed = 1;
nodes = (
"235 0 LINE",
"235 575 LINE",
"77 575 LINE",
"77 0 LINE"
);
}
);
width = 311;
}
);
leftKerningGroup = b.sc;
rightKerningGroup = udieresis.sc.ss01.alt;
},
{
glyphname = iacute_j.loclNLD.sc;
lastChange = "2018-09-25 17:15:11 +0000";
layers = (
{
layerId = "E232F0B7-B012-4077-9E12-ABC19F379844";
paths = (
{
closed = 1;
nodes = (
"165 644 LINE",
"346 789 LINE",
"191 789 LINE",
"56 644 LINE"
);
},
{
closed = 1;
nodes = (
"500 644 LINE",
"682 789 LINE",
"526 789 LINE",
"391 644 LINE"
);
},
{
closed = 1;
nodes = (
"355 -7 OFFCURVE",
"424 16.667 OFFCURVE",
"474 64 CURVE SMOOTH",
"524 111.333 OFFCURVE",
"549 179 OFFCURVE",
"549 267 CURVE SMOOTH",
"549 575 LINE",
"390 575 LINE",
"390 259 LINE SMOOTH",
"390 167 OFFCURVE",
"346.667 121 OFFCURVE",
"260 121 CURVE SMOOTH",
"202 121 OFFCURVE",
"148.667 138.333 OFFCURVE",
"100 173 CURVE",
"42 57 LINE",
"103.333 14.333 OFFCURVE",
"178.333 -7 OFFCURVE",
"267 -7 CURVE SMOOTH"
);
},
{
closed = 1;
nodes = (
"214 269 LINE",
"214 575 LINE",
"56 575 LINE",
"56 269 LINE"
);
}
);
width = 604;
}
);
leftKerningGroup = b.sc;
rightKerningGroup = udieresis.sc.alt;
},
{
glyphname = ij.sc;
lastChange = "2018-09-25 17:15:11 +0000";
layers = (
{
layerId = "E232F0B7-B012-4077-9E12-ABC19F379844";
paths = (
{
closed = 1;
nodes = (
"366.333 -7 OFFCURVE",
"435.167 16.667 OFFCURVE",
"485.5 64 CURVE SMOOTH",
"535.833 111.333 OFFCURVE",
"561 179 OFFCURVE",
"561 267 CURVE SMOOTH",
"561 575 LINE",
"402 575 LINE",
"402 259 LINE SMOOTH",
"402 167 OFFCURVE",
"359 121 OFFCURVE",
"273 121 CURVE SMOOTH",
"213.667 121 OFFCURVE",
"160 138.333 OFFCURVE",
"112 173 CURVE",
"50 57 LINE",
"111.333 14.333 OFFCURVE",
"187.667 -7 OFFCURVE",
"279 -7 CURVE SMOOTH"
);
},
{
closed = 1;
nodes = (
"226 269 LINE",
"226 575 LINE",
"67 575 LINE",
"67 269 LINE"
);
}
);
width = 632;
}
);
leftKerningGroup = b.sc;
rightKerningGroup = udieresis.sc.alt;
},
{
glyphname = j.sc;
lastChange = "2018-09-25 17:15:11 +0000";
layers = (
{
layerId = "E232F0B7-B012-4077-9E12-ABC19F379844";
paths = (
{
closed = 1;
nodes = (
"258.667 -11 OFFCURVE",
"314 7.833 OFFCURVE",
"352 45.5 CURVE SMOOTH",
"390 83.167 OFFCURVE",
"409 140.333 OFFCURVE",
"409 217 CURVE SMOOTH",
"409 575 LINE",
"51 575 LINE",
"51 453 LINE",
"252 453 LINE",
"252 202 LINE SMOOTH",
"252 144 OFFCURVE",
"227.667 115 OFFCURVE",
"179 115 CURVE SMOOTH",
"141 115 OFFCURVE",
"107.667 134.667 OFFCURVE",
"79 174 CURVE",
"-13 76 LINE",
"7.667 48 OFFCURVE",
"35.167 26.5 OFFCURVE",
"69.5 11.5 CURVE SMOOTH",
"103.833 -3.5 OFFCURVE",
"142.667 -11 OFFCURVE",
"186 -11 CURVE SMOOTH"
);
}
);
width = 480;
}
);
leftKerningGroup = j.sc;
rightKerningGroup = udieresis.sc.alt;
},
{
glyphname = k.sc;
lastChange = "2018-09-25 17:15:11 +0000";
layers = (
{
layerId = "E232F0B7-B012-4077-9E12-ABC19F379844";
paths = (
{
closed = 1;
nodes = (
"654 0 LINE",
"402 319 LINE",
"641 575 LINE",
"467 575 LINE",
"233 330 LINE",
"233 575 LINE",
"77 575 LINE",
"77 0 LINE",
"233 0 LINE",
"233 145 LINE",
"298 212 LINE",
"470 0 LINE"
);
}
);
width = 647;
}
);
leftKerningGroup = b.sc;
rightKerningGroup = k.sc;
},
{
glyphname = l.sc;
lastChange = "2018-09-25 17:15:11 +0000";
layers = (
{
layerId = "E232F0B7-B012-4077-9E12-ABC19F379844";
paths = (
{
closed = 1;
nodes = (
"516 0 LINE",
"516 123 LINE",
"235 123 LINE",
"235 575 LINE",
"77 575 LINE",
"77 0 LINE"
);
}
);
width = 524;
}
);
leftKerningGroup = b.sc;
rightKerningGroup = l.sc;
},
{
glyphname = m.sc;
lastChange = "2018-09-25 17:15:11 +0000";
layers = (
{
layerId = "E232F0B7-B012-4077-9E12-ABC19F379844";
paths = (
{
closed = 1;
nodes = (
"749 575 LINE",
"616 575 LINE",
"415 241 LINE",
"209 575 LINE",
"77 575 LINE",
"77 0 LINE",
"224 0 LINE",
"224 304 LINE",
"377 61 LINE",
"448 61 LINE",
"602 314 LINE",
"603 0 LINE",
"751 0 LINE"
);
}
);
width = 827;
}
);
leftKerningGroup = b.sc;
rightKerningGroup = udieresis.sc.ss01.alt;
},
{
glyphname = n.sc;
lastChange = "2018-09-25 17:15:11 +0000";
layers = (
{
layerId = "E232F0B7-B012-4077-9E12-ABC19F379844";
paths = (
{
closed = 1;
nodes = (
"472 257 LINE",
"207 575 LINE",
"77 575 LINE",
"77 0 LINE",
"232 0 LINE",
"232 317 LINE",
"497 0 LINE",
"627 0 LINE",
"627 575 LINE",
"472 575 LINE"
);
}
);
width = 704;
}
);
leftKerningGroup = b.sc;
rightKerningGroup = udieresis.sc.ss01.alt;
},
{
glyphname = eng.sc;
lastChange = "2018-09-25 17:15:11 +0000";
layers = (
{
layerId = "E232F0B7-B012-4077-9E12-ABC19F379844";
paths = (
{
closed = 1;
nodes = (
"472 257 LINE",
"207 575 LINE",
"77 575 LINE",
"77 0 LINE",
"232 0 LINE",
"232 317 LINE",
"472 30 LINE",
"469.333 -17.333 OFFCURVE",
"446.333 -41 OFFCURVE",
"403 -41 CURVE SMOOTH",
"375.667 -41 OFFCURVE",
"351.333 -33 OFFCURVE",
"330 -17 CURVE",
"271 -131 LINE",
"291.667 -143 OFFCURVE",
"313.333 -151.833 OFFCURVE",
"336 -157.5 CURVE SMOOTH",
"358.667 -163.167 OFFCURVE",
"384.333 -166 OFFCURVE",
"413 -166 CURVE SMOOTH",
"555.667 -166 OFFCURVE",
"627 -81 OFFCURVE",
"627 89 CURVE SMOOTH",
"627 575 LINE",
"472 575 LINE"
);
}
);
width = 704;
}
);
leftKerningGroup = b.sc;
rightKerningGroup = udieresis.sc.ss01.alt;
},
{
glyphname = o.sc;
lastChange = "2018-09-25 17:15:11 +0000";
layers = (
{
layerId = "E232F0B7-B012-4077-9E12-ABC19F379844";
paths = (
{
closed = 1;
nodes = (
"419.333 -11 OFFCURVE",
"474.5 1.833 OFFCURVE",
"523.5 27.5 CURVE SMOOTH",
"572.5 53.167 OFFCURVE",
"611 88.667 OFFCURVE",
"639 134 CURVE SMOOTH",
"667 179.333 OFFCURVE",
"681 230.333 OFFCURVE",
"681 287 CURVE SMOOTH",
"681 343.667 OFFCURVE",
"667 394.833 OFFCURVE",
"639 440.5 CURVE SMOOTH",
"611 486.167 OFFCURVE",
"572.5 521.833 OFFCURVE",
"523.5 547.5 CURVE SMOOTH",
"474.5 573.167 OFFCURVE",
"419.333 586 OFFCURVE",
"358 586 CURVE SMOOTH",
"296.667 586 OFFCURVE",
"241.5 573.167 OFFCURVE",
"192.5 547.5 CURVE SMOOTH",
"143.5 521.833 OFFCURVE",
"105 486.167 OFFCURVE",
"77 440.5 CURVE SMOOTH",
"49 394.833 OFFCURVE",
"35 343.667 OFFCURVE",
"35 287 CURVE SMOOTH",
"35 230.333 OFFCURVE",
"49 179.333 OFFCURVE",
"77 134 CURVE SMOOTH",
"105 88.667 OFFCURVE",
"143.5 53.167 OFFCURVE",
"192.5 27.5 CURVE SMOOTH",
"241.5 1.833 OFFCURVE",
"296.667 -11 OFFCURVE",
"358 -11 CURVE SMOOTH"
);
},
{
closed = 1;
nodes = (
"327.333 118 OFFCURVE",
"299.5 125.333 OFFCURVE",
"274.5 140 CURVE SMOOTH",
"249.5 154.667 OFFCURVE",
"229.833 174.833 OFFCURVE",
"215.5 200.5 CURVE SMOOTH",
"201.167 226.167 OFFCURVE",
"194 255 OFFCURVE",
"194 287 CURVE SMOOTH",
"194 319.667 OFFCURVE",
"201.167 348.833 OFFCURVE",
"215.5 374.5 CURVE SMOOTH",
"229.833 400.167 OFFCURVE",
"249.5 420.333 OFFCURVE",
"274.5 435 CURVE SMOOTH",
"299.5 449.667 OFFCURVE",
"327.333 457 OFFCURVE",
"358 457 CURVE SMOOTH",
"388.667 457 OFFCURVE",
"416.5 449.667 OFFCURVE",
"441.5 435 CURVE SMOOTH",
"466.5 420.333 OFFCURVE",
"486 400.167 OFFCURVE",
"500 374.5 CURVE SMOOTH",
"514 348.833 OFFCURVE",
"521 319.667 OFFCURVE",
"521 287 CURVE SMOOTH",
"521 255 OFFCURVE",
"514 226.167 OFFCURVE",
"500 200.5 CURVE SMOOTH",
"486 174.833 OFFCURVE",
"466.5 154.667 OFFCURVE",
"441.5 140 CURVE SMOOTH",
"416.5 125.333 OFFCURVE",
"388.667 118 OFFCURVE",
"358 118 CURVE SMOOTH"
);
}
);
width = 716;
}
);
leftKerningGroup = c.sc;
rightKerningGroup = d.sc;
},
{
glyphname = ohorn.sc;
lastChange = "2018-09-25 17:15:11 +0000";
layers = (
{
layerId = "E232F0B7-B012-4077-9E12-ABC19F379844";
paths = (
{
closed = 1;
nodes = (
"685 671 OFFCURVE",
"674.667 704 OFFCURVE",
"654 732 CURVE",
"561 699 LINE",
"574.333 681 OFFCURVE",
"581 661 OFFCURVE",
"581 639 CURVE SMOOTH",
"581 596.333 OFFCURVE",
"557.667 575 OFFCURVE",
"511 575 CURVE SMOOTH",
"495 575 OFFCURVE",
"475.333 576.667 OFFCURVE",
"452 580 CURVE SMOOTH",
"417.333 584 OFFCURVE",
"386 586 OFFCURVE",
"358 586 CURVE SMOOTH",
"296.667 586 OFFCURVE",
"241.5 573.167 OFFCURVE",
"192.5 547.5 CURVE SMOOTH",
"143.5 521.833 OFFCURVE",
"105 486.167 OFFCURVE",
"77 440.5 CURVE SMOOTH",
"49 394.833 OFFCURVE",
"35 343.667 OFFCURVE",
"35 287 CURVE SMOOTH",
"35 230.333 OFFCURVE",
"49 179.333 OFFCURVE",
"77 134 CURVE SMOOTH",
"105 88.667 OFFCURVE",
"143.5 53.167 OFFCURVE",
"192.5 27.5 CURVE SMOOTH",
"241.5 1.833 OFFCURVE",
"296.667 -11 OFFCURVE",
"358 -11 CURVE SMOOTH",
"419.333 -11 OFFCURVE",
"474.5 1.833 OFFCURVE",
"523.5 27.5 CURVE SMOOTH",
"572.5 53.167 OFFCURVE",
"611 88.667 OFFCURVE",
"639 134 CURVE SMOOTH",
"667 179.333 OFFCURVE",
"681 230.333 OFFCURVE",
"681 287 CURVE SMOOTH",
"681 327 OFFCURVE",
"673.833 364.5 OFFCURVE",
"659.5 399.5 CURVE SMOOTH",
"645.167 434.5 OFFCURVE",
"625 465 OFFCURVE",
"599 491 CURVE",
"627.667 501.667 OFFCURVE",
"649.167 519.333 OFFCURVE",
"663.5 544 CURVE SMOOTH",
"677.833 568.667 OFFCURVE",
"685 598.333 OFFCURVE",
"685 633 CURVE SMOOTH"
);
},
{
closed = 1;
nodes = (
"327.333 118 OFFCURVE",
"299.5 125.333 OFFCURVE",
"274.5 140 CURVE SMOOTH",
"249.5 154.667 OFFCURVE",
"229.833 174.833 OFFCURVE",
"215.5 200.5 CURVE SMOOTH",
"201.167 226.167 OFFCURVE",
"194 255 OFFCURVE",
"194 287 CURVE SMOOTH",
"194 320.333 OFFCURVE",
"201.333 349.833 OFFCURVE",
"216 375.5 CURVE SMOOTH",
"230.667 401.167 OFFCURVE",
"250.833 421.167 OFFCURVE",
"276.5 435.5 CURVE SMOOTH",
"302.167 449.833 OFFCURVE",
"331.333 457 OFFCURVE",
"364 457 CURVE SMOOTH",
"394 457 OFFCURVE",
"420.833 449.667 OFFCURVE",
"444.5 435 CURVE SMOOTH",
"468.167 420.333 OFFCURVE",
"486.833 400 OFFCURVE",
"500.5 374 CURVE SMOOTH",
"514.167 348 OFFCURVE",
"521 319 OFFCURVE",
"521 287 CURVE SMOOTH",
"521 255 OFFCURVE",
"514 226.167 OFFCURVE",
"500 200.5 CURVE SMOOTH",
"486 174.833 OFFCURVE",
"466.5 154.667 OFFCURVE",
"441.5 140 CURVE SMOOTH",
"416.5 125.333 OFFCURVE",
"388.667 118 OFFCURVE",
"358 118 CURVE SMOOTH"
);
}
);
width = 716;
}
);
leftKerningGroup = c.sc;
rightKerningGroup = d.sc;
},
{
glyphname = oogonek.sc;
lastChange = "2018-09-25 17:15:11 +0000";
layers = (
{
layerId = "E232F0B7-B012-4077-9E12-ABC19F379844";
paths = (
{
closed = 1;
nodes = (
"540 29.333 OFFCURVE",
"588.5 64.667 OFFCURVE",
"625.5 114 CURVE SMOOTH",
"662.5 163.333 OFFCURVE",
"681 221 OFFCURVE",
"681 287 CURVE SMOOTH",
"681 343.667 OFFCURVE",
"667 394.833 OFFCURVE",
"639 440.5 CURVE SMOOTH",
"611 486.167 OFFCURVE",
"572.5 521.833 OFFCURVE",
"523.5 547.5 CURVE SMOOTH",
"474.5 573.167 OFFCURVE",
"419.333 586 OFFCURVE",
"358 586 CURVE SMOOTH",
"296.667 586 OFFCURVE",
"241.5 573.167 OFFCURVE",
"192.5 547.5 CURVE SMOOTH",
"143.5 521.833 OFFCURVE",
"105 486.167 OFFCURVE",
"77 440.5 CURVE SMOOTH",
"49 394.833 OFFCURVE",
"35 343.667 OFFCURVE",
"35 287 CURVE SMOOTH",
"35 235.667 OFFCURVE",
"46.667 188.667 OFFCURVE",
"70 146 CURVE SMOOTH",
"93.333 103.333 OFFCURVE",
"126 68.5 OFFCURVE",
"168 41.5 CURVE SMOOTH",
"210 14.5 OFFCURVE",
"257.667 -2 OFFCURVE",
"311 -8 CURVE",
"290.333 -23.333 OFFCURVE",
"275 -40.667 OFFCURVE",
"265 -60 CURVE SMOOTH",
"255 -79.333 OFFCURVE",
"250 -99.333 OFFCURVE",
"250 -120 CURVE SMOOTH",
"250 -154 OFFCURVE",
"262.333 -181.167 OFFCURVE",
"287 -201.5 CURVE SMOOTH",
"311.667 -221.833 OFFCURVE",
"345.333 -232 OFFCURVE",
"388 -232 CURVE SMOOTH",
"406 -232 OFFCURVE",
"424 -229.833 OFFCURVE",
"442 -225.5 CURVE SMOOTH",
"460 -221.167 OFFCURVE",
"475.667 -215.667 OFFCURVE",
"489 -209 CURVE",
"466 -138 LINE",
"458.667 -142.667 OFFCURVE",
"449.5 -146.333 OFFCURVE",
"438.5 -149 CURVE SMOOTH",
"427.5 -151.667 OFFCURVE",
"416.667 -153 OFFCURVE",
"406 -153 CURVE SMOOTH",
"388 -153 OFFCURVE",
"374 -148.667 OFFCURVE",
"364 -140 CURVE SMOOTH",
"354 -131.333 OFFCURVE",
"349 -120 OFFCURVE",
"349 -106 CURVE SMOOTH",
"349 -60 OFFCURVE",
"392.667 -22 OFFCURVE",
"480 8 CURVE SMOOTH"
);
},
{
closed = 1;
nodes = (
"194 319.667 OFFCURVE",
"201.167 348.833 OFFCURVE",
"215.5 374.5 CURVE SMOOTH",
"229.833 400.167 OFFCURVE",
"249.5 420.333 OFFCURVE",
"274.5 435 CURVE SMOOTH",
"299.5 449.667 OFFCURVE",
"327.333 457 OFFCURVE",
"358 457 CURVE SMOOTH",
"388.667 457 OFFCURVE",
"416.5 449.667 OFFCURVE",
"441.5 435 CURVE SMOOTH",
"466.5 420.333 OFFCURVE",
"486 400.167 OFFCURVE",
"500 374.5 CURVE SMOOTH",
"514 348.833 OFFCURVE",
"521 319.667 OFFCURVE",
"521 287 CURVE SMOOTH",
"521 255 OFFCURVE",
"514 226.167 OFFCURVE",
"500 200.5 CURVE SMOOTH",
"486 174.833 OFFCURVE",
"466.5 154.667 OFFCURVE",
"441.5 140 CURVE SMOOTH",
"416.5 125.333 OFFCURVE",
"388.667 118 OFFCURVE",
"358 118 CURVE SMOOTH",
"327.333 118 OFFCURVE",
"299.5 125.333 OFFCURVE",
"274.5 140 CURVE SMOOTH",
"249.5 154.667 OFFCURVE",
"229.833 174.833 OFFCURVE",
"215.5 200.5 CURVE SMOOTH",
"201.167 226.167 OFFCURVE",
"194 255 OFFCURVE",
"194 287 CURVE SMOOTH"
);
}
);
width = 716;
}
);
leftKerningGroup = c.sc;
note = uni01EB.sc;
rightKerningGroup = d.sc;
},
{
glyphname = oe.sc;
lastChange = "2018-09-25 17:15:11 +0000";
layers = (
{
layerId = "E232F0B7-B012-4077-9E12-ABC19F379844";
paths = (
{
closed = 1;
nodes = (
"615 234 LINE",
"876 234 LINE",
"876 349 LINE",
"615 349 LINE",
"615 454 LINE",
"911 454 LINE",
"911 575 LINE",
"368 575 LINE SMOOTH",
"300 575 OFFCURVE",
"241 563.333 OFFCURVE",
"191 540 CURVE SMOOTH",
"141 516.667 OFFCURVE",
"102.5 483.333 OFFCURVE",
"75.5 440 CURVE SMOOTH",
"48.5 396.667 OFFCURVE",
"35 345.667 OFFCURVE",
"35 287 CURVE SMOOTH",
"35 228.333 OFFCURVE",
"48.5 177.5 OFFCURVE",
"75.5 134.5 CURVE SMOOTH",
"102.5 91.5 OFFCURVE",
"141 58.333 OFFCURVE",
"191 35 CURVE SMOOTH",
"241 11.667 OFFCURVE",
"300 0 OFFCURVE",
"368 0 CURVE SMOOTH",
"922 0 LINE",
"922 121 LINE",
"615 121 LINE"
);
},
{
closed = 1;
nodes = (
"316.667 123 OFFCURVE",
"273.167 137.333 OFFCURVE",
"241.5 166 CURVE SMOOTH",
"209.833 194.667 OFFCURVE",
"194 235 OFFCURVE",
"194 287 CURVE SMOOTH",
"194 339 OFFCURVE",
"209.833 379.333 OFFCURVE",
"241.5 408 CURVE SMOOTH",
"273.167 436.667 OFFCURVE",
"316.667 451 OFFCURVE",
"372 451 CURVE SMOOTH",
"458 451 LINE",
"458 123 LINE",
"372 123 LINE SMOOTH"
);
}
);
width = 960;
}
);
leftKerningGroup = c.sc;
rightKerningGroup = ae.sc;
},
{
glyphname = p.sc;
lastChange = "2018-09-25 17:15:11 +0000";
layers = (
{
layerId = "E232F0B7-B012-4077-9E12-ABC19F379844";
paths = (
{
closed = 1;
nodes = (
"77 575 LINE",
"77 0 LINE",
"235 0 LINE",
"235 152 LINE",
"339 152 LINE SMOOTH",
"418.333 152 OFFCURVE",
"481.333 170.833 OFFCURVE",
"528 208.5 CURVE SMOOTH",
"574.667 246.167 OFFCURVE",
"598 297.667 OFFCURVE",
"598 363 CURVE SMOOTH",
"598 429 OFFCURVE",
"574.667 480.833 OFFCURVE",
"528 518.5 CURVE SMOOTH",
"481.333 556.167 OFFCURVE",
"418.333 575 OFFCURVE",
"339 575 CURVE SMOOTH"
);
},
{
closed = 1;
nodes = (
"235 274 LINE",
"235 452 LINE",
"328 452 LINE SMOOTH",
"364.667 452 OFFCURVE",
"392.333 444.333 OFFCURVE",
"411 429 CURVE SMOOTH",
"429.667 413.667 OFFCURVE",
"439 391.667 OFFCURVE",
"439 363 CURVE SMOOTH",
"439 334.333 OFFCURVE",
"429.667 312.333 OFFCURVE",
"411 297 CURVE SMOOTH",
"392.333 281.667 OFFCURVE",
"364.667 274 OFFCURVE",
"328 274 CURVE SMOOTH"
);
}
);
width = 637;
}
);
leftKerningGroup = b.sc;
rightKerningGroup = p.sc;
},
{
glyphname = thorn.sc;
lastChange = "2018-09-25 17:15:11 +0000";
layers = (
{
layerId = "E232F0B7-B012-4077-9E12-ABC19F379844";
paths = (
{
closed = 1;
nodes = (
"235 514 LINE",
"235 576 LINE",
"77 576 LINE",
"77 0 LINE",
"235 0 LINE",
"235 91 LINE",
"339 91 LINE SMOOTH",
"418.333 91 OFFCURVE",
"481.333 109.833 OFFCURVE",
"528 147.5 CURVE SMOOTH",
"574.667 185.167 OFFCURVE",
"598 236.667 OFFCURVE",
"598 302 CURVE SMOOTH",
"598 368 OFFCURVE",
"574.667 419.833 OFFCURVE",
"528 457.5 CURVE SMOOTH",
"481.333 495.167 OFFCURVE",
"418.333 514 OFFCURVE",
"339 514 CURVE SMOOTH"
);
},
{
closed = 1;
nodes = (
"235 214 LINE",
"235 392 LINE",
"328 392 LINE SMOOTH",
"364.667 392 OFFCURVE",
"392.333 384.333 OFFCURVE",
"411 369 CURVE SMOOTH",
"429.667 353.667 OFFCURVE",
"439 331.667 OFFCURVE",
"439 303 CURVE SMOOTH",
"439 274.333 OFFCURVE",
"429.667 252.333 OFFCURVE",
"411 237 CURVE SMOOTH",
"392.333 221.667 OFFCURVE",
"364.667 214 OFFCURVE",
"328 214 CURVE SMOOTH"
);
}
);
width = 637;
}
);
leftKerningGroup = b.sc;
rightKerningGroup = thorn.sc;
},
{
glyphname = q.sc;
lastChange = "2018-09-25 17:15:11 +0000";
layers = (
{
layerId = "E232F0B7-B012-4077-9E12-ABC19F379844";
paths = (
{
closed = 1;
nodes = (
"616.333 -11 OFFCURVE",
"587.333 -24 OFFCURVE",
"554 -24 CURVE SMOOTH",
"539.333 -24 OFFCURVE",
"526.5 -21.5 OFFCURVE",
"515.5 -16.5 CURVE SMOOTH",
"504.5 -11.5 OFFCURVE",
"493 -3 OFFCURVE",
"481 9 CURVE",
"541.667 30.333 OFFCURVE",
"590.167 65.833 OFFCURVE",
"626.5 115.5 CURVE SMOOTH",
"662.833 165.167 OFFCURVE",
"681 222.333 OFFCURVE",
"681 287 CURVE SMOOTH",
"681 343.667 OFFCURVE",
"667 394.833 OFFCURVE",
"639 440.5 CURVE SMOOTH",
"611 486.167 OFFCURVE",
"572.5 521.833 OFFCURVE",
"523.5 547.5 CURVE SMOOTH",
"474.5 573.167 OFFCURVE",
"419.333 586 OFFCURVE",
"358 586 CURVE SMOOTH",
"296.667 586 OFFCURVE",
"241.5 573.167 OFFCURVE",
"192.5 547.5 CURVE SMOOTH",
"143.5 521.833 OFFCURVE",
"105 486.167 OFFCURVE",
"77 440.5 CURVE SMOOTH",
"49 394.833 OFFCURVE",
"35 343.667 OFFCURVE",
"35 287 CURVE SMOOTH",
"35 237 OFFCURVE",
"46.167 191 OFFCURVE",
"68.5 149 CURVE SMOOTH",
"90.833 107 OFFCURVE",
"121.833 72.5 OFFCURVE",
"161.5 45.5 CURVE SMOOTH",
"201.167 18.5 OFFCURVE",
"246.667 1.333 OFFCURVE",
"298 -6 CURVE",
"345.333 -55.333 OFFCURVE",
"387.5 -89.5 OFFCURVE",
"424.5 -108.5 CURVE SMOOTH",
"461.5 -127.5 OFFCURVE",
"503.667 -137 OFFCURVE",
"551 -137 CURVE SMOOTH",
"618.333 -137 OFFCURVE",
"672 -114 OFFCURVE",
"712 -68 CURVE",
"641 15 LINE"
);
},
{
closed = 1;
nodes = (
"194 319.667 OFFCURVE",
"201.167 348.833 OFFCURVE",
"215.5 374.5 CURVE SMOOTH",
"229.833 400.167 OFFCURVE",
"249.5 420.333 OFFCURVE",
"274.5 435 CURVE SMOOTH",
"299.5 449.667 OFFCURVE",
"327.333 457 OFFCURVE",
"358 457 CURVE SMOOTH",
"388.667 457 OFFCURVE",
"416.5 449.667 OFFCURVE",
"441.5 435 CURVE SMOOTH",
"466.5 420.333 OFFCURVE",
"486 400.167 OFFCURVE",
"500 374.5 CURVE SMOOTH",
"514 348.833 OFFCURVE",
"521 319.667 OFFCURVE",
"521 287 CURVE SMOOTH",
"521 255 OFFCURVE",
"514 226.167 OFFCURVE",
"500 200.5 CURVE SMOOTH",
"486 174.833 OFFCURVE",
"466.5 154.667 OFFCURVE",
"441.5 140 CURVE SMOOTH",
"416.5 125.333 OFFCURVE",
"388.667 118 OFFCURVE",
"358 118 CURVE SMOOTH",
"327.333 118 OFFCURVE",
"299.5 125.333 OFFCURVE",
"274.5 140 CURVE SMOOTH",
"249.5 154.667 OFFCURVE",
"229.833 174.833 OFFCURVE",
"215.5 200.5 CURVE SMOOTH",
"201.167 226.167 OFFCURVE",
"194 255 OFFCURVE",
"194 287 CURVE SMOOTH"
);
}
);
width = 716;
}
);
leftKerningGroup = c.sc;
rightKerningGroup = d.sc;
},
{
glyphname = r.sc;
lastChange = "2018-09-25 17:15:11 +0000";
layers = (
{
layerId = "E232F0B7-B012-4077-9E12-ABC19F379844";
paths = (
{
closed = 1;
nodes = (
"609 0 LINE",
"481 181 LINE",
"518.333 198.333 OFFCURVE",
"547.167 222.5 OFFCURVE",
"567.5 253.5 CURVE SMOOTH",
"587.833 284.5 OFFCURVE",
"598 321 OFFCURVE",
"598 363 CURVE SMOOTH",
"598 429 OFFCURVE",
"574.667 480.833 OFFCURVE",
"528 518.5 CURVE SMOOTH",
"481.333 556.167 OFFCURVE",
"418.333 575 OFFCURVE",
"339 575 CURVE SMOOTH",
"77 575 LINE",
"77 0 LINE",
"235 0 LINE",
"235 154 LINE",
"332 154 LINE",
"439 0 LINE"
);
},
{
closed = 1;
nodes = (
"439 334.333 OFFCURVE",
"429.667 312.333 OFFCURVE",
"411 297 CURVE SMOOTH",
"392.333 281.667 OFFCURVE",
"364.667 274 OFFCURVE",
"328 274 CURVE SMOOTH",
"235 274 LINE",
"235 452 LINE",
"328 452 LINE SMOOTH",
"364.667 452 OFFCURVE",
"392.333 444.333 OFFCURVE",
"411 429 CURVE SMOOTH",
"429.667 413.667 OFFCURVE",
"439 391.667 OFFCURVE",
"439 363 CURVE SMOOTH"
);
}
);
width = 644;
}
);
leftKerningGroup = b.sc;
rightKerningGroup = r.sc;
},
{
glyphname = s.sc;
lastChange = "2018-09-25 17:15:11 +0000";
layers = (
{
layerId = "E232F0B7-B012-4077-9E12-ABC19F379844";
paths = (
{
closed = 1;
nodes = (
"322 -11 OFFCURVE",
"368.667 -3.167 OFFCURVE",
"408 12.5 CURVE SMOOTH",
"447.333 28.167 OFFCURVE",
"477.167 50 OFFCURVE",
"497.5 78 CURVE SMOOTH",
"517.833 106 OFFCURVE",
"528 138.333 OFFCURVE",
"528 175 CURVE SMOOTH",
"528 214.333 OFFCURVE",
"517.5 245.5 OFFCURVE",
"496.5 268.5 CURVE SMOOTH",
"475.5 291.5 OFFCURVE",
"450.5 308.167 OFFCURVE",
"421.5 318.5 CURVE SMOOTH",
"392.5 328.833 OFFCURVE",
"356 338.667 OFFCURVE",
"312 348 CURVE SMOOTH",
"271.333 356 OFFCURVE",
"241.667 364 OFFCURVE",
"223 372 CURVE SMOOTH",
"204.333 380 OFFCURVE",
"195 392.667 OFFCURVE",
"195 410 CURVE SMOOTH",
"195 426 OFFCURVE",
"202.833 438.833 OFFCURVE",
"218.5 448.5 CURVE SMOOTH",
"234.167 458.167 OFFCURVE",
"258.333 463 OFFCURVE",
"291 463 CURVE SMOOTH",
"351.667 463 OFFCURVE",
"406 448.333 OFFCURVE",
"454 419 CURVE",
"505 536 LINE",
"478.333 552.667 OFFCURVE",
"446.667 565.167 OFFCURVE",
"410 573.5 CURVE SMOOTH",
"373.333 581.833 OFFCURVE",
"335.667 586 OFFCURVE",
"297 586 CURVE SMOOTH",
"244.333 586 OFFCURVE",
"198.5 578.167 OFFCURVE",
"159.5 562.5 CURVE SMOOTH",
"120.5 546.833 OFFCURVE",
"90.667 525 OFFCURVE",
"70 497 CURVE SMOOTH",
"49.333 469 OFFCURVE",
"39 437 OFFCURVE",
"39 401 CURVE SMOOTH",
"39 360.333 OFFCURVE",
"49.5 328.333 OFFCURVE",
"70.5 305 CURVE SMOOTH",
"91.5 281.667 OFFCURVE",
"116.333 264.833 OFFCURVE",
"145 254.5 CURVE SMOOTH",
"173.667 244.167 OFFCURVE",
"210.333 234.333 OFFCURVE",
"255 225 CURVE SMOOTH",
"295.667 217 OFFCURVE",
"325.333 208.833 OFFCURVE",
"344 200.5 CURVE SMOOTH",
"362.667 192.167 OFFCURVE",
"372 179.333 OFFCURVE",
"372 162 CURVE SMOOTH",
"372 146.667 OFFCURVE",
"364.5 134.5 OFFCURVE",
"349.5 125.5 CURVE SMOOTH",
"334.5 116.5 OFFCURVE",
"310.333 112 OFFCURVE",
"277 112 CURVE SMOOTH",
"241 112 OFFCURVE",
"205.667 117 OFFCURVE",
"171 127 CURVE SMOOTH",
"136.333 137 OFFCURVE",
"106 150.667 OFFCURVE",
"80 168 CURVE",
"25 51 LINE",
"51.667 32.333 OFFCURVE",
"87.167 17.333 OFFCURVE",
"131.5 6 CURVE SMOOTH",
"175.833 -5.333 OFFCURVE",
"221.333 -11 OFFCURVE",
"268 -11 CURVE SMOOTH"
);
}
);
width = 551;
}
);
leftKerningGroup = s.sc;
rightKerningGroup = s.sc;
},
{
glyphname = germandbls.sc;
lastChange = "2018-09-25 17:15:11 +0000";
layers = (
{
layerId = "E232F0B7-B012-4077-9E12-ABC19F379844";
paths = (
{
closed = 1;
nodes = (
"583 438 LINE",
"583 534 LINE",
"557 550 OFFCURVE",
"524.333 562.5 OFFCURVE",
"485 571.5 CURVE SMOOTH",
"445.667 580.5 OFFCURVE",
"407 585 OFFCURVE",
"369 585 CURVE SMOOTH",
"307 585 OFFCURVE",
"253.667 574.167 OFFCURVE",
"209 552.5 CURVE SMOOTH",
"164.333 530.833 OFFCURVE",
"130.167 500 OFFCURVE",
"106.5 460 CURVE SMOOTH",
"82.833 420 OFFCURVE",
"71 372.667 OFFCURVE",
"71 318 CURVE SMOOTH",
"71 0 LINE",
"229 0 LINE",
"229 314 LINE SMOOTH",
"229 361.333 OFFCURVE",
"241.333 397.667 OFFCURVE",
"266 423 CURVE SMOOTH",
"290.667 448.333 OFFCURVE",
"326.667 461 OFFCURVE",
"374 461 CURVE SMOOTH",
"398 461 OFFCURVE",
"421.333 458.333 OFFCURVE",
"444 453 CURVE",
"312 299 LINE",
"339 234 LINE",
"358.333 240 OFFCURVE",
"378 243 OFFCURVE",
"398 243 CURVE SMOOTH",
"425.333 243 OFFCURVE",
"446.333 237.5 OFFCURVE",
"461 226.5 CURVE SMOOTH",
"475.667 215.5 OFFCURVE",
"483 199.333 OFFCURVE",
"483 178 CURVE SMOOTH",
"483 157.333 OFFCURVE",
"475.833 141.167 OFFCURVE",
"461.5 129.5 CURVE SMOOTH",
"447.167 117.833 OFFCURVE",
"427.333 112 OFFCURVE",
"402 112 CURVE SMOOTH",
"371.333 112 OFFCURVE",
"342.667 118 OFFCURVE",
"316 130 CURVE",
"291 9 LINE",
"326.333 -4.333 OFFCURVE",
"369 -11 OFFCURVE",
"419 -11 CURVE SMOOTH",
"487.667 -11 OFFCURVE",
"542 5.5 OFFCURVE",
"582 38.5 CURVE SMOOTH",
"622 71.5 OFFCURVE",
"642 116.333 OFFCURVE",
"642 173 CURVE SMOOTH",
"642 216.333 OFFCURVE",
"629 252.833 OFFCURVE",
"603 282.5 CURVE SMOOTH",
"577 312.167 OFFCURVE",
"543 332.333 OFFCURVE",
"501 343 CURVE"
);
}
);
width = 673;
}
);
rightKerningGroup = b.sc;
},
{
glyphname = t.sc;
lastChange = "2018-09-25 17:15:11 +0000";
layers = (
{
layerId = "E232F0B7-B012-4077-9E12-ABC19F379844";
paths = (
{
closed = 1;
nodes = (
"343 0 LINE",
"343 452 LINE",
"524 452 LINE",
"524 575 LINE",
"4 575 LINE",
"4 452 LINE",
"185 452 LINE",
"185 0 LINE"
);
}
);
width = 528;
}
);
leftKerningGroup = t.sc;
rightKerningGroup = t.sc;
},
{
glyphname = u.sc;
lastChange = "2018-09-25 17:15:11 +0000";
layers = (
{
layerId = "E232F0B7-B012-4077-9E12-ABC19F379844";
paths = (
{
closed = 1;
nodes = (
"428.333 -11 OFFCURVE",
"495 12 OFFCURVE",
"543 58 CURVE SMOOTH",
"591 104 OFFCURVE",
"615 167.333 OFFCURVE",
"615 248 CURVE SMOOTH",
"615 575 LINE",
"459 575 LINE",
"459 253 LINE SMOOTH",
"459 208.333 OFFCURVE",
"449.333 174.667 OFFCURVE",
"430 152 CURVE SMOOTH",
"410.667 129.333 OFFCURVE",
"382.333 118 OFFCURVE",
"345 118 CURVE SMOOTH",
"307 118 OFFCURVE",
"278.167 129.333 OFFCURVE",
"258.5 152 CURVE SMOOTH",
"238.833 174.667 OFFCURVE",
"229 208.333 OFFCURVE",
"229 253 CURVE SMOOTH",
"229 575 LINE",
"71 575 LINE",
"71 248 LINE SMOOTH",
"71 167.333 OFFCURVE",
"95 104 OFFCURVE",
"143 58 CURVE SMOOTH",
"191 12 OFFCURVE",
"257.667 -11 OFFCURVE",
"343 -11 CURVE SMOOTH"
);
}
);
width = 686;
}
);
leftKerningGroup = udieresis.sc.alt;
rightKerningGroup = udieresis.sc.alt;
},
{
glyphname = uogonek.sc;
lastChange = "2018-09-25 17:15:11 +0000";
layers = (
{
layerId = "E232F0B7-B012-4077-9E12-ABC19F379844";
paths = (
{
closed = 1;
nodes = (
"459 253 LINE SMOOTH",
"459 208.333 OFFCURVE",
"449.333 174.667 OFFCURVE",
"430 152 CURVE SMOOTH",
"410.667 129.333 OFFCURVE",
"382.333 118 OFFCURVE",
"345 118 CURVE SMOOTH",
"307 118 OFFCURVE",
"278.167 129.333 OFFCURVE",
"258.5 152 CURVE SMOOTH",
"238.833 174.667 OFFCURVE",
"229 208.333 OFFCURVE",
"229 253 CURVE SMOOTH",
"229 575 LINE",
"71 575 LINE",
"71 248 LINE SMOOTH",
"71 176 OFFCURVE",
"90.333 117.5 OFFCURVE",
"129 72.5 CURVE SMOOTH",
"167.667 27.5 OFFCURVE",
"222 0.667 OFFCURVE",
"292 -8 CURVE",
"251.333 -40 OFFCURVE",
"231 -77.333 OFFCURVE",
"231 -120 CURVE SMOOTH",
"231 -154 OFFCURVE",
"243.333 -181.167 OFFCURVE",
"268 -201.5 CURVE SMOOTH",
"292.667 -221.833 OFFCURVE",
"326.333 -232 OFFCURVE",
"369 -232 CURVE SMOOTH",
"387.667 -232 OFFCURVE",
"406 -229.833 OFFCURVE",
"424 -225.5 CURVE SMOOTH",
"442 -221.167 OFFCURVE",
"457.333 -215.667 OFFCURVE",
"470 -209 CURVE",
"448 -138 LINE",
"430 -148 OFFCURVE",
"409.667 -153 OFFCURVE",
"387 -153 CURVE SMOOTH",
"369.667 -153 OFFCURVE",
"355.833 -148.833 OFFCURVE",
"345.5 -140.5 CURVE SMOOTH",
"335.167 -132.167 OFFCURVE",
"330 -121 OFFCURVE",
"330 -107 CURVE SMOOTH",
"330 -87.667 OFFCURVE",
"339.167 -68.833 OFFCURVE",
"357.5 -50.5 CURVE SMOOTH",
"375.833 -32.167 OFFCURVE",
"410.667 -13 OFFCURVE",
"462 7 CURVE SMOOTH",
"510.667 25.667 OFFCURVE",
"548.333 55.667 OFFCURVE",
"575 97 CURVE SMOOTH",
"601.667 138.333 OFFCURVE",
"615 188.667 OFFCURVE",
"615 248 CURVE SMOOTH",
"615 575 LINE",
"459 575 LINE"
);
}
);
width = 686;
}
);
leftKerningGroup = udieresis.sc.alt;
rightKerningGroup = udieresis.sc.alt;
},
{
glyphname = v.sc;
lastChange = "2018-09-25 17:15:11 +0000";
layers = (
{
layerId = "E232F0B7-B012-4077-9E12-ABC19F379844";
paths = (
{
closed = 1;
nodes = (
"328 184 LINE",
"164 575 LINE",
"-4 575 LINE",
"246 0 LINE",
"402 0 LINE",
"652 575 LINE",
"496 575 LINE"
);
}
);
width = 648;
}
);
leftKerningGroup = v.sc;
rightKerningGroup = v.sc;
},
{
glyphname = w.sc;
lastChange = "2018-09-25 17:15:11 +0000";
layers = (
{
layerId = "E232F0B7-B012-4077-9E12-ABC19F379844";
paths = (
{
closed = 1;
nodes = (
"699 192 LINE",
"577 575 LINE",
"431 575 LINE",
"305 199 LINE",
"184 575 LINE",
"21 575 LINE",
"212 0 LINE",
"381 0 LINE",
"501 364 LINE",
"618 0 LINE",
"787 0 LINE",
"977 575 LINE",
"825 575 LINE"
);
}
);
width = 999;
}
);
leftKerningGroup = v.sc;
rightKerningGroup = v.sc;
},
{
glyphname = x.sc;
lastChange = "2018-09-25 17:15:11 +0000";
layers = (
{
layerId = "E232F0B7-B012-4077-9E12-ABC19F379844";
paths = (
{
closed = 1;
nodes = (
"396 296 LINE",
"603 575 LINE",
"430 575 LINE",
"310 405 LINE",
"190 575 LINE",
"12 575 LINE",
"219 291 LINE",
"2 0 LINE",
"183 0 LINE",
"308 180 LINE",
"433 0 LINE",
"614 0 LINE"
);
}
);
width = 617;
}
);
leftKerningGroup = x.sc;
rightKerningGroup = x.sc;
},
{
glyphname = y.sc;
lastChange = "2018-09-25 17:15:11 +0000";
layers = (
{
layerId = "E232F0B7-B012-4077-9E12-ABC19F379844";
paths = (
{
closed = 1;
nodes = (
"453 575 LINE",
"305 330 LINE",
"156 575 LINE",
"-11 575 LINE",
"221 191 LINE",
"221 0 LINE",
"379 0 LINE",
"379 191 LINE",
"612 575 LINE"
);
}
);
width = 601;
}
);
leftKerningGroup = y.sc;
rightKerningGroup = y.sc;
},
{
glyphname = z.sc;
lastChange = "2018-09-25 17:15:11 +0000";
layers = (
{
layerId = "E232F0B7-B012-4077-9E12-ABC19F379844";
paths = (
{
closed = 1;
nodes = (
"543 476 LINE",
"543 575 LINE",
"43 575 LINE",
"43 452 LINE",
"338 452 LINE",
"36 99 LINE",
"36 0 LINE",
"555 0 LINE",
"555 123 LINE",
"240 123 LINE"
);
}
);
width = 577;
}
);
leftKerningGroup = z.sc;
rightKerningGroup = dzcaron.sc;
},
{
glyphname = a.sc.ss01;
lastChange = "2018-09-25 17:15:11 +0000";
layers = (
{
layerId = "E232F0B7-B012-4077-9E12-ABC19F379844";
paths = (
{
closed = 1;
nodes = (
"291.333 586 OFFCURVE",
"243.333 575.333 OFFCURVE",
"202 554 CURVE SMOOTH",
"160.667 532.667 OFFCURVE",
"128.5 501.333 OFFCURVE",
"105.5 460 CURVE SMOOTH",
"82.5 418.667 OFFCURVE",
"71 369 OFFCURVE",
"71 311 CURVE SMOOTH",
"71 0 LINE",
"229 0 LINE",
"229 129 LINE",
"464 129 LINE",
"464 0 LINE",
"622 0 LINE",
"622 311 LINE SMOOTH",
"622 369 OFFCURVE",
"610.5 418.667 OFFCURVE",
"587.5 460 CURVE SMOOTH",
"564.5 501.333 OFFCURVE",
"532.167 532.667 OFFCURVE",
"490.5 554 CURVE SMOOTH",
"448.833 575.333 OFFCURVE",
"400.667 586 OFFCURVE",
"346 586 CURVE SMOOTH"
);
},
{
closed = 1;
nodes = (
"229 330 LINE SMOOTH",
"229 371.333 OFFCURVE",
"239.333 402.833 OFFCURVE",
"260 424.5 CURVE SMOOTH",
"280.667 446.167 OFFCURVE",
"309.333 457 OFFCURVE",
"346 457 CURVE SMOOTH",
"382.667 457 OFFCURVE",
"411.5 446.167 OFFCURVE",
"432.5 424.5 CURVE SMOOTH",
"453.5 402.833 OFFCURVE",
"464 371.333 OFFCURVE",
"464 330 CURVE SMOOTH",
"464 251 LINE",
"229 251 LINE"
);
}
);
width = 693;
}
);
leftKerningGroup = a.sc.ss01;
rightKerningGroup = a.sc.ss01;
},
{
glyphname = ae.sc.ss01;
lastChange = "2018-09-25 17:15:11 +0000";
layers = (
{
layerId = "E232F0B7-B012-4077-9E12-ABC19F379844";
paths = (
{
closed = 1;
nodes = (
"589 235 LINE",
"852 235 LINE",
"852 349 LINE",
"589 349 LINE",
"589 455 LINE",
"887 455 LINE",
"887 575 LINE",
"336 575 LINE SMOOTH",
"248.667 575 OFFCURVE",
"181.667 552.5 OFFCURVE",
"135 507.5 CURVE SMOOTH",
"88.333 462.5 OFFCURVE",
"65 398 OFFCURVE",
"65 314 CURVE SMOOTH",
"65 0 LINE",
"217 0 LINE",
"217 137 LINE",
"433 137 LINE",
"433 0 LINE",
"899 0 LINE",
"899 120 LINE",
"589 120 LINE"
);
},
{
closed = 1;
nodes = (
"217 310 LINE SMOOTH",
"217 356.667 OFFCURVE",
"227.667 391.167 OFFCURVE",
"249 413.5 CURVE SMOOTH",
"270.333 435.833 OFFCURVE",
"303.667 447 OFFCURVE",
"349 447 CURVE SMOOTH",
"433 447 LINE",
"433 257 LINE",
"217 257 LINE"
);
}
);
width = 942;
}
);
},
{
glyphname = e.sc.ss01;
lastChange = "2018-09-25 17:15:11 +0000";
layers = (
{
layerId = "E232F0B7-B012-4077-9E12-ABC19F379844";
paths = (
{
closed = 1;
nodes = (
"487.667 145.667 OFFCURVE",
"458.833 133.333 OFFCURVE",
"424.5 124 CURVE SMOOTH",
"390.167 114.667 OFFCURVE",
"356.667 110 OFFCURVE",
"324 110 CURVE SMOOTH",
"278 110 OFFCURVE",
"244 115.667 OFFCURVE",
"222 127 CURVE SMOOTH",
"200 138.333 OFFCURVE",
"189 154 OFFCURVE",
"189 174 CURVE SMOOTH",
"189 192.667 OFFCURVE",
"196.5 207 OFFCURVE",
"211.5 217 CURVE SMOOTH",
"226.5 227 OFFCURVE",
"248.333 232 OFFCURVE",
"277 232 CURVE SMOOTH",
"454 232 LINE",
"454 348 LINE",
"287 348 LINE SMOOTH",
"237.667 348 OFFCURVE",
"213 365.333 OFFCURVE",
"213 400 CURVE SMOOTH",
"213 420 OFFCURVE",
"223.167 435.667 OFFCURVE",
"243.5 447 CURVE SMOOTH",
"263.833 458.333 OFFCURVE",
"294.667 464 OFFCURVE",
"336 464 CURVE SMOOTH",
"396.667 464 OFFCURVE",
"450 452 OFFCURVE",
"496 428 CURVE",
"540 546 LINE",
"512 558.667 OFFCURVE",
"479.667 568.5 OFFCURVE",
"443 575.5 CURVE SMOOTH",
"406.333 582.5 OFFCURVE",
"368.333 586 OFFCURVE",
"329 586 CURVE SMOOTH",
"269 586 OFFCURVE",
"218.5 578 OFFCURVE",
"177.5 562 CURVE SMOOTH",
"136.5 546 OFFCURVE",
"105.833 524.667 OFFCURVE",
"85.5 498 CURVE SMOOTH",
"65.167 471.333 OFFCURVE",
"55 442 OFFCURVE",
"55 410 CURVE SMOOTH",
"55 385.333 OFFCURVE",
"60.667 363 OFFCURVE",
"72 343 CURVE SMOOTH",
"83.333 323 OFFCURVE",
"100 307.333 OFFCURVE",
"122 296 CURVE",
"93.333 284 OFFCURVE",
"71 266.5 OFFCURVE",
"55 243.5 CURVE SMOOTH",
"39 220.5 OFFCURVE",
"31 194.333 OFFCURVE",
"31 165 CURVE SMOOTH",
"31 130.333 OFFCURVE",
"41.833 99.833 OFFCURVE",
"63.5 73.5 CURVE SMOOTH",
"85.167 47.167 OFFCURVE",
"117.5 26.5 OFFCURVE",
"160.5 11.5 CURVE SMOOTH",
"203.5 -3.5 OFFCURVE",
"255.667 -11 OFFCURVE",
"317 -11 CURVE SMOOTH",
"363 -11 OFFCURVE",
"407.5 -6 OFFCURVE",
"450.5 4 CURVE SMOOTH",
"493.5 14 OFFCURVE",
"529.667 27.667 OFFCURVE",
"559 45 CURVE",
"511 161 LINE"
);
}
);
width = 576;
}
);
leftKerningGroup = e.sc.ss01;
rightKerningGroup = e.sc.ss01;
},
{
glyphname = eogonek.sc.ss01;
lastChange = "2018-09-25 17:15:11 +0000";
layers = (
{
layerId = "E232F0B7-B012-4077-9E12-ABC19F379844";
paths = (
{
closed = 1;
nodes = (
"524 -148 OFFCURVE",
"504 -153 OFFCURVE",
"482 -153 CURVE SMOOTH",
"464 -153 OFFCURVE",
"450 -148.667 OFFCURVE",
"440 -140 CURVE SMOOTH",
"430 -131.333 OFFCURVE",
"425 -119.333 OFFCURVE",
"425 -104 CURVE SMOOTH",
"425 -82.667 OFFCURVE",
"435.667 -59.167 OFFCURVE",
"457 -33.5 CURVE SMOOTH",
"478.333 -7.833 OFFCURVE",
"512.333 18.333 OFFCURVE",
"559 45 CURVE",
"511 161 LINE",
"487.667 145.667 OFFCURVE",
"458.833 133.333 OFFCURVE",
"424.5 124 CURVE SMOOTH",
"390.167 114.667 OFFCURVE",
"356.667 110 OFFCURVE",
"324 110 CURVE SMOOTH",
"278 110 OFFCURVE",
"244 115.667 OFFCURVE",
"222 127 CURVE SMOOTH",
"200 138.333 OFFCURVE",
"189 154 OFFCURVE",
"189 174 CURVE SMOOTH",
"189 192.667 OFFCURVE",
"196.5 207 OFFCURVE",
"211.5 217 CURVE SMOOTH",
"226.5 227 OFFCURVE",
"248.333 232 OFFCURVE",
"277 232 CURVE SMOOTH",
"454 232 LINE",
"454 348 LINE",
"287 348 LINE SMOOTH",
"237.667 348 OFFCURVE",
"213 365.333 OFFCURVE",
"213 400 CURVE SMOOTH",
"213 420 OFFCURVE",
"223.167 435.667 OFFCURVE",
"243.5 447 CURVE SMOOTH",
"263.833 458.333 OFFCURVE",
"294.667 464 OFFCURVE",
"336 464 CURVE SMOOTH",
"396.667 464 OFFCURVE",
"450 452 OFFCURVE",
"496 428 CURVE",
"540 546 LINE",
"512 558.667 OFFCURVE",
"479.667 568.5 OFFCURVE",
"443 575.5 CURVE SMOOTH",
"406.333 582.5 OFFCURVE",
"368.333 586 OFFCURVE",
"329 586 CURVE SMOOTH",
"269 586 OFFCURVE",
"218.5 578 OFFCURVE",
"177.5 562 CURVE SMOOTH",
"136.5 546 OFFCURVE",
"105.833 524.667 OFFCURVE",
"85.5 498 CURVE SMOOTH",
"65.167 471.333 OFFCURVE",
"55 442 OFFCURVE",
"55 410 CURVE SMOOTH",
"55 385.333 OFFCURVE",
"60.667 363 OFFCURVE",
"72 343 CURVE SMOOTH",
"83.333 323 OFFCURVE",
"100 307.333 OFFCURVE",
"122 296 CURVE",
"93.333 284 OFFCURVE",
"71 266.5 OFFCURVE",
"55 243.5 CURVE SMOOTH",
"39 220.5 OFFCURVE",
"31 194.333 OFFCURVE",
"31 165 CURVE SMOOTH",
"31 130.333 OFFCURVE",
"41.833 99.833 OFFCURVE",
"63.5 73.5 CURVE SMOOTH",
"85.167 47.167 OFFCURVE",
"117.5 26.5 OFFCURVE",
"160.5 11.5 CURVE SMOOTH",
"203.5 -3.5 OFFCURVE",
"255.667 -11 OFFCURVE",
"317 -11 CURVE SMOOTH",
"336.333 -11 OFFCURVE",
"356 -10 OFFCURVE",
"376 -8 CURVE",
"342.667 -41.333 OFFCURVE",
"326 -78.667 OFFCURVE",
"326 -120 CURVE SMOOTH",
"326 -154 OFFCURVE",
"338.333 -181.167 OFFCURVE",
"363 -201.5 CURVE SMOOTH",
"387.667 -221.833 OFFCURVE",
"421.333 -232 OFFCURVE",
"464 -232 CURVE SMOOTH",
"482 -232 OFFCURVE",
"500.167 -229.833 OFFCURVE",
"518.5 -225.5 CURVE SMOOTH",
"536.833 -221.167 OFFCURVE",
"552.333 -215.667 OFFCURVE",
"565 -209 CURVE",
"542 -138 LINE"
);
}
);
width = 576;
}
);
leftKerningGroup = e.sc.ss01;
rightKerningGroup = e.sc.ss01;
},
